<svg width="163" height="188" viewBox="0 0 163 188" fill="none" xmlns="http://www.w3.org/2000/svg">
<g clip-path="url(#clip0)">
<path d="M143.75 181.234C143.76 180.882 143.573 180.813 143.284 180.907C143.195 180.937 143.142 180.944 143.092 180.864C142.892 180.697 142.632 180.878 142.425 180.75C141.727 180.776 141.026 180.835 140.341 180.635C140.089 180.591 139.837 180.587 139.585 180.638C139.254 180.716 138.942 180.623 138.63 180.536C138.342 180.462 138.04 180.572 137.752 180.472C137.1 180.529 136.436 180.353 135.79 180.561C135.392 180.354 134.969 180.401 134.547 180.446C134.102 180.511 133.657 180.483 133.211 180.446C132.992 180.364 132.75 180.479 132.533 180.374C132.379 180.365 132.225 180.357 132.071 180.348C131.911 180.283 131.731 180.367 131.574 180.282C131.422 180.272 131.271 180.263 131.12 180.252C130.799 180.18 130.466 180.287 130.147 180.188C129.911 180.182 129.689 180.327 129.481 180.322C129.047 180.314 128.608 180.003 128.191 180.391C128.171 180.41 128.084 180.394 128.061 180.367C127.805 180.063 127.461 180.189 127.155 180.201C126.857 180.213 126.565 180.205 126.272 180.156C125.824 180.083 125.366 180.198 124.919 180.094C124.42 180.084 123.921 180.075 123.421 180.067C123.169 180.026 122.917 180.02 122.666 180.071C122.57 180.093 122.485 180.237 122.375 180.096C122.191 179.997 122 180.036 121.81 180.068C121.555 180.149 121.299 180.083 121.044 180.069C120.619 180.009 120.191 180.053 119.765 180.042C118.785 180.017 117.805 180.089 116.826 180.002C116.71 180.008 116.591 180.038 116.484 179.964C116.293 179.876 116.103 179.872 115.914 179.97C115.755 179.97 115.595 179.97 115.436 179.97C115.218 179.897 114.98 180.009 114.765 179.902C114.463 179.851 114.17 179.939 113.893 180.011C113.256 180.176 112.644 179.865 112.018 179.965C111.841 179.815 111.653 179.798 111.454 179.92C111.378 180.012 111.328 180.151 111.162 180.074C111.083 179.989 111.093 179.763 110.876 179.899C110.75 180.045 110.623 180.037 110.495 179.902C110.277 179.812 110.055 179.85 109.833 179.881C109.451 179.811 109.064 180.192 108.684 179.868C107.958 179.848 107.233 179.833 106.508 179.875C106.283 179.954 106.059 180.104 105.834 179.877C105.646 179.84 105.459 179.837 105.27 179.879C105.114 179.887 104.955 179.919 104.802 179.9C103.72 179.765 102.632 179.854 101.548 179.804C101.356 179.794 101.173 179.811 101.002 179.903C100.862 179.988 100.767 179.933 100.694 179.808C100.416 179.791 100.153 179.808 99.902 179.969C99.7546 180.065 99.572 180.111 99.3703 180.068C98.9937 179.988 98.6113 179.939 98.2308 179.878C98.0387 179.813 97.8285 179.904 97.6383 179.814C97.3291 179.805 97.02 179.797 96.7109 179.788C96.4274 179.739 96.144 179.752 95.8606 179.782C95.4145 179.925 94.9684 179.989 94.5232 179.782C93.6063 179.752 92.6894 179.735 91.7725 179.791C91.4852 179.871 91.198 179.814 90.9117 179.785C90.673 179.784 90.3905 179.631 90.2487 179.971C90.2221 179.993 90.1917 179.998 90.1593 179.986C90.107 179.952 90.0471 179.935 89.991 179.911C89.8911 179.887 89.7903 179.87 89.6895 179.854C89.6467 179.853 89.6096 179.865 89.5772 179.892C89.3556 179.955 89.1359 179.914 88.9162 179.881C88.7621 179.811 88.5833 179.909 88.4339 179.809C88.2779 179.801 88.121 179.792 87.965 179.784C87.8071 179.752 87.6502 179.738 87.4942 179.794C86.9007 179.775 86.3119 179.808 85.7127 179.754C84.7121 179.663 83.6753 179.612 82.6937 179.778C81.8082 179.928 80.9502 179.903 80.0761 179.88C79.7613 179.798 79.4312 179.921 79.1193 179.808C78.8682 179.801 78.6171 179.793 78.365 179.786C78.1091 179.709 77.8362 179.818 77.5822 179.72C77.1941 179.73 76.7994 179.856 76.4408 179.861C75.8815 179.869 75.3061 179.871 74.7392 179.813C74.335 179.771 73.925 179.794 73.517 179.788C73.1394 179.738 72.7617 179.755 72.3832 179.777C72.1644 180.027 71.9257 179.777 71.6936 179.795C70.8442 179.862 69.9901 179.933 69.1397 179.779C68.9143 179.771 68.6775 179.684 68.4796 179.87C68.3893 179.922 68.3189 179.919 68.2904 179.802C67.849 179.722 67.4058 179.756 66.9635 179.782C66.9293 179.786 66.896 179.79 66.8617 179.794C65.9448 179.731 65.0269 179.747 64.1091 179.786C63.7248 179.839 63.3339 179.771 62.9506 179.897C62.4788 180.051 62.0165 179.804 61.5448 179.805C60.5974 179.807 59.651 179.809 58.7037 179.811C58.445 179.878 58.1872 179.887 57.9294 179.805C57.8971 179.805 57.8647 179.805 57.8315 179.805C57.6051 179.906 57.3663 179.848 57.1333 179.852C55.4022 179.875 53.6711 179.817 51.941 179.883C51.4302 179.871 50.9356 180.139 50.4153 179.972C49.9102 179.935 49.4052 179.93 48.9001 179.974C48.3494 180.127 47.7949 180.029 47.2394 180.01C46.4671 179.984 45.6938 180.001 44.9205 180C44.3498 180.111 43.7686 179.985 43.197 180.068C42.7119 180.075 42.2278 180.084 41.7427 180.087C41.3042 180.091 40.8666 180.113 40.4348 180.193C39.964 180.079 39.4894 180.145 39.0157 180.159C38.25 180.118 37.4996 180.412 36.7291 180.261C36.478 180.211 36.226 180.22 35.9739 180.255C35.8959 180.263 35.8189 180.274 35.7409 180.276C34.8487 180.301 33.9556 180.341 33.0624 180.286C32.681 180.414 32.2673 180.21 31.8915 180.4C31.7584 180.535 31.6176 180.494 31.4702 180.423C31.2467 180.316 30.949 180.294 30.7873 180.391C30.3164 180.674 29.8684 180.503 29.4081 180.443C29.157 180.404 28.9049 180.404 28.6538 180.443C28.3095 180.452 27.9652 180.461 27.6199 180.47C27.2727 180.579 26.9113 180.46 26.5622 180.537C25.5854 180.65 24.6076 180.754 23.6212 180.656C23.4396 180.762 23.2294 180.649 23.0439 180.73C22.6967 180.807 22.361 181.02 21.9919 180.815C21.7722 180.785 21.5534 180.782 21.3347 180.817C21.1939 180.824 21.0798 180.879 21.0027 181C20.6213 180.663 20.1657 180.933 19.7539 180.851C19.5589 180.942 19.3372 180.832 19.1442 180.931L19.1413 180.933C18.9187 180.925 18.8493 181.169 18.6629 181.221C18.6039 181.189 18.5459 181.157 18.4879 181.125C18.3861 181.498 18.4375 181.875 18.4584 182.251C18.5516 182.503 18.4793 182.757 18.465 183.01C18.4156 183.385 18.4184 183.76 18.4641 184.135C18.5659 184.357 18.7142 184.578 18.4641 184.8C18.4175 185.238 18.4175 185.675 18.4641 186.114C18.7114 186.275 18.3148 186.431 18.4603 186.59C18.4203 186.87 18.4241 187.151 18.4574 187.432C18.5288 187.615 18.4584 187.827 18.5773 188C18.641 188 18.7038 188 18.7675 188C19.8842 187.666 21.0103 187.363 22.1422 187.089C23.2455 186.823 24.3603 186.571 25.4874 186.433C26.2769 186.337 26.8409 186.084 27.0055 185.257C27.0549 185.095 27.1843 185.019 27.3222 184.932C27.8853 184.573 28.2429 183.947 28.9325 183.773C28.982 183.923 29.0419 184.119 29.0685 184.32C29.1199 184.705 28.9905 184.795 28.5977 184.661C28.6709 184.48 28.9753 184.28 28.6823 184.114C28.4122 183.961 28.222 184.201 28.1059 184.443C28.0441 184.571 28.0127 184.708 27.9804 184.846C27.95 184.981 27.9509 185.128 27.8349 185.237C27.677 185.235 27.6247 185.056 27.4839 185.03C27.2899 184.993 27.0873 184.948 27.1053 185.257C27.3888 185.867 27.7217 186.082 28.182 185.893C28.3865 185.809 28.5644 185.807 28.7718 185.822C29.3206 185.858 29.545 185.714 29.6354 185.313C29.7362 184.86 29.7362 184.86 30.324 185.053C29.9978 185.065 29.7448 185.116 29.8323 185.43C29.916 185.729 30.1738 185.637 30.3897 185.605C30.4524 185.595 30.3735 185.604 30.4363 185.594C31.065 185.503 31.6851 185.379 32.3215 185.32C33.8623 185.177 35.4108 185.088 36.9393 184.823C37.2018 184.778 37.4434 184.615 37.724 184.675C38.1501 184.768 38.5696 184.694 38.9957 184.67C39.6606 184.631 40.3121 184.503 40.9694 184.446C41.9367 184.363 42.9145 184.385 43.8866 184.359C45.2077 184.323 46.527 184.23 47.8491 184.276C48.2742 184.29 48.6652 184.047 49.0551 184.085C49.7362 184.153 50.3963 184.087 51.0706 184.06C52.5687 184 54.0696 183.794 55.5658 183.892C56.7167 183.967 57.8381 183.608 58.989 183.788C59.4874 183.866 59.9925 183.689 60.5023 183.7C61.638 183.722 62.7765 183.549 63.9103 183.709C64.9394 183.854 65.96 183.455 66.9882 183.688C67.0776 183.709 67.1775 183.676 67.2707 183.658C67.537 183.606 67.8157 183.567 68.0745 183.619C69.31 183.873 70.5551 183.345 71.7868 183.679C71.8315 183.691 71.881 183.673 71.9285 183.67C73.303 183.609 74.6707 183.48 76.0546 183.588C77.2826 183.685 78.5229 183.621 79.7565 183.586C80.9873 183.55 82.2162 183.566 83.4442 183.638C83.6506 183.651 83.8532 183.647 84.0596 183.636C85.259 183.571 86.4612 183.627 87.6597 183.576C88.3265 183.548 88.9647 183.725 89.6381 183.685C90.8356 183.612 92.0388 183.591 93.2382 183.527C93.7271 183.501 94.1723 183.673 94.645 183.707C96.4446 183.837 98.247 183.765 100.048 183.798C100.222 183.8 100.397 183.741 100.568 183.781C101.312 183.953 102.072 183.961 102.826 183.98C104.151 184.013 105.477 183.904 106.802 184.073C107.851 184.206 108.909 184.159 109.966 184.166C110.776 184.172 111.599 184.269 112.411 184.342C113.669 184.454 114.931 184.394 116.186 184.526C116.783 184.59 117.398 184.45 117.986 184.54C119.289 184.737 120.605 184.684 121.911 184.816C123.909 185.017 125.908 185.221 127.907 185.421C129.047 185.535 130.188 185.543 131.333 185.742C132.833 186.004 134.35 186.217 135.871 186.376C136.56 186.448 137.222 186.692 137.911 186.789C138.576 186.882 139.31 186.678 139.873 187.229C139.912 187.268 139.994 187.258 140.057 187.269C140.574 187.352 141.087 187.421 141.603 187.225C141.895 187.114 142.104 187.161 142.173 187.545C142.235 187.884 142.487 187.991 142.814 187.81C142.824 187.516 143.04 187.631 143.193 187.621C143.272 187.527 143.464 187.643 143.491 187.486C143.51 187.373 143.349 187.409 143.295 187.342C143.144 187.201 143.158 187.035 143.294 186.918C143.493 186.747 143.469 187.054 143.585 187.079C143.795 187.051 143.705 186.897 143.711 186.784C143.69 186.465 143.67 186.146 143.649 185.827C143.766 185.751 143.721 185.632 143.722 185.53C143.723 184.819 143.731 184.108 143.719 183.396C143.673 183.357 143.673 183.319 143.719 183.28C143.753 182.896 143.675 182.506 143.764 182.123C143.752 181.827 143.742 181.53 143.75 181.234Z" fill="#F8F6E9"/>
<path d="M18.6056 72.5059C18.8501 72.5209 19.0936 72.6171 19.0327 72.947C19.007 73.0866 18.8501 73.2798 19.0527 73.3316C19.26 73.3854 19.5473 73.457 19.689 73.1563C19.845 73.0686 20.0266 73.1582 20.1855 73.0865C20.3795 72.931 20.1969 72.914 20.1037 72.8499C19.9648 72.7547 19.9505 72.6105 20.0476 72.4898C20.1474 72.3654 20.2749 72.3748 20.4081 72.4832C20.6848 72.7066 20.7933 72.9489 20.5498 73.2609C20.6107 73.524 20.8627 73.3222 20.9845 73.4372C21.2631 73.3788 21.5361 73.6776 21.8177 73.4504C21.8462 73.4287 21.8766 73.4108 21.9109 73.3967C22.0241 73.4023 21.928 73.5164 21.9917 73.5475C22.1144 73.6154 22.2419 73.5918 22.3703 73.5673C22.8478 73.5984 23.3252 73.6305 23.8027 73.6616C24.0243 73.7276 24.2612 73.6248 24.479 73.7266C24.7929 73.704 25.1068 73.6465 25.4168 73.7493C25.6385 73.786 25.8591 73.8058 26.0788 73.7389C26.3033 73.7455 26.5268 73.753 26.7513 73.7596C27.0024 73.7822 27.2535 73.7992 27.5037 73.7493C27.9488 73.6842 28.394 73.7021 28.8391 73.7493C29.0626 73.8284 29.3042 73.72 29.5258 73.8181C29.7408 73.8275 29.9558 73.836 30.1707 73.8454C30.4209 73.9236 30.69 73.8068 30.9373 73.917C31.1894 73.9265 31.4415 73.935 31.6926 73.9444C31.9456 73.9661 32.1995 74.0057 32.4487 73.918C32.716 73.704 32.9586 73.9925 33.2173 73.9529C33.436 73.9491 33.6605 74.0236 33.8726 73.9086C34.2455 73.9406 34.6193 73.9736 34.9921 74.0057C35.2023 73.9378 35.4125 73.9482 35.6227 74.0038C35.7378 74.0132 35.8529 74.0236 35.969 74.033C36.6709 74.1188 37.3795 73.9896 38.0815 74.0999C39.1515 74.099 40.2225 74.0594 41.2926 74.1273C41.4476 74.1744 41.6074 74.1518 41.7644 74.1518C42.9371 74.1537 44.1089 74.1546 45.2817 74.1518C45.4891 74.1508 45.7012 74.1244 45.782 74.3837C46.2043 74.2149 46.6362 74.1244 47.0908 74.2215C47.7614 74.3101 48.4167 74.099 49.0835 74.116C49.6513 74.2178 50.2258 74.493 50.7708 74.0264C50.8346 73.9717 51.0248 73.9887 50.9839 74.1603C50.9497 74.3054 51.0724 74.2932 51.0923 74.2715C51.3881 73.9463 51.6706 74.3186 51.955 74.2781C52.5057 74.1989 53.0384 74.1697 53.6081 74.2592C54.6839 74.428 55.7825 74.1593 56.8706 74.2941C57.0665 74.2234 57.2625 74.2225 57.4584 74.2941C57.5516 74.3017 57.6448 74.3092 57.7381 74.3167C58.3135 74.3742 58.8899 74.3271 59.4663 74.3431C59.6318 74.3479 59.8182 74.2951 59.9267 74.4836C60.4165 74.3111 60.9282 74.2564 61.4409 74.2131C61.5769 74.3808 61.7377 74.3837 61.9146 74.2828C61.9631 74.1508 61.8233 73.7653 62.1077 73.951C62.4853 74.198 62.8857 74.0943 63.2529 74.2272C63.5097 74.2941 63.7798 74.1914 64.0328 74.2894C64.1717 74.2885 64.3096 74.2875 64.4485 74.2875C64.7072 74.198 64.9792 74.2677 65.2417 74.2253C65.4928 74.1848 65.7116 74.5185 65.9779 74.2866C66.074 74.247 66.0797 74.1885 66.0169 74.1141C66.1016 74.1593 66.1111 74.2536 66.1558 74.3243C66.172 74.3507 66.1929 74.3714 66.2233 74.3827C66.3375 74.3535 66.4525 74.3243 66.5667 74.2951C66.7388 74.2131 66.9129 74.2413 67.087 74.2885C67.2325 74.2988 67.3514 74.3771 67.5178 74.3733C68.1542 74.3573 68.7924 74.3959 69.4297 74.4148C69.6817 74.4534 69.9328 74.4534 70.1839 74.4148C70.2448 74.4063 70.3047 74.3969 70.3656 74.3884C70.5311 74.3215 70.6956 74.3167 70.8611 74.3903C71.0314 74.3592 70.9724 74.6769 71.039 74.5835C71.2882 74.2319 71.7476 74.527 71.993 74.2338C72.1642 74.3441 72.3193 74.527 72.5542 74.3573C73.0279 74.1678 73.5158 74.4195 73.9924 74.3139C74.3081 74.4054 74.641 74.28 74.9559 74.3884C75.264 74.0914 75.8338 74.6071 76.0973 73.934C75.9593 74.4827 76.2827 74.3884 76.5224 74.3922C76.7907 74.3969 77.0608 74.411 77.3262 74.3856C77.4469 74.3733 77.758 74.5647 77.6486 74.1556C77.6201 74.0481 77.8284 74.1131 77.9206 74.1178C78.0329 74.1235 78.1765 74.0349 78.2583 74.1848C78.4076 74.4572 78.4095 74.461 78.6245 74.2083C78.6625 74.1631 78.7072 74.083 78.7234 74.1716C78.8023 74.6005 79.1476 74.4063 79.3093 74.3611C79.5937 74.2809 79.8657 74.2932 80.1454 74.2922C80.3337 74.198 80.5458 74.2988 80.737 74.2225C81.1508 74.1518 81.5645 74.2017 81.9773 74.2272C82.2626 74.3017 82.5623 74.1885 82.8448 74.2941C83.094 74.3026 83.3432 74.3111 83.5933 74.3186C83.8492 74.395 84.1212 74.2856 84.3752 74.3856C84.8051 74.3743 85.2436 74.2357 85.6393 74.2328C86.0692 74.23 86.5324 74.2281 86.9794 74.2875C87.4293 74.3469 87.8906 74.3149 88.3472 74.3233C88.8209 74.3535 89.2945 74.3695 89.7673 74.3139C90.24 74.2197 90.7327 74.2649 91.1978 74.2649C91.4889 74.2649 91.8579 74.017 92.148 74.3073C92.303 74.3714 92.4609 74.3488 92.6188 74.3233C92.751 74.2998 92.8842 74.2583 93.0126 74.3394C93.2285 74.3083 93.4625 74.4355 93.6613 74.2658C93.7707 74.1565 93.7888 74.3309 93.8629 74.3299C94.3024 74.3573 94.7418 74.3497 95.1812 74.3337C95.2155 74.3262 95.2507 74.3196 95.2849 74.312C96.5585 74.3573 97.8312 74.3874 99.1038 74.2904C99.4852 74.1508 99.8581 74.264 100.232 74.329C101.307 74.3488 102.382 74.3648 103.455 74.3205C105.703 74.2272 107.951 74.3299 110.199 74.296C110.382 74.1885 110.595 74.3045 110.781 74.2197L110.793 74.2112C110.996 74.0848 111.229 74.1876 111.441 74.1273C111.67 74.148 111.899 74.165 112.127 74.1895C113 74.2838 113.875 73.9651 114.747 74.198C115.481 74.0933 116.22 74.2093 116.953 74.1348C117.239 74.016 117.527 73.9708 117.815 74.1301C118.194 74.1735 118.572 74.1763 118.952 74.1292C119.871 74.0943 120.795 74.1348 121.712 74.033C122.154 74.0858 122.596 74.0773 123.039 74.0377C123.323 74.0264 123.607 74.0264 123.89 74C124.115 73.9783 124.301 73.9293 124.21 73.605C124.086 73.1629 124.213 73.0366 124.735 73.0064C124.603 73.2072 124.505 73.4165 124.447 73.6437C124.349 74.0424 124.606 73.9812 124.844 73.9434C125.444 73.9359 126.044 73.9284 126.645 73.9208C127.084 73.7992 127.54 73.9425 127.98 73.8426C128.14 73.8435 128.3 73.8435 128.46 73.8445C128.933 73.901 129.407 73.8831 129.88 73.8548C130.894 73.7549 131.907 73.6418 132.928 73.754C133.085 73.7964 133.242 73.7964 133.399 73.754C133.768 73.7445 134.136 73.7361 134.505 73.7266C134.86 73.6276 135.228 73.7379 135.583 73.6635C136.558 73.5428 137.535 73.4495 138.52 73.5419C138.704 73.4429 138.912 73.5409 139.1 73.4768C139.457 73.4985 139.783 73.2327 140.152 73.3722C140.371 73.4297 140.591 73.4108 140.812 73.3835C141.007 73.3882 141.088 73.2713 141.178 73.1129C141.309 72.881 141.546 72.914 141.677 73.1563C141.885 73.441 142.172 73.2751 142.429 73.2864C142.775 73.309 143.092 73.1148 143.448 73.1582C143.581 73.1742 143.709 73.0733 143.743 72.9131C143.786 72.7114 143.615 72.6906 143.497 72.6322C143.431 72.5992 143.337 72.6256 143.288 72.5257C143.416 72.4276 143.74 72.5898 143.708 72.3663C143.658 72.0072 143.705 71.6556 143.684 71.3021C143.664 70.9853 143.225 70.6657 143.686 70.3481C143.765 70.2934 143.663 70.2463 143.663 70.1972C143.666 69.6693 143.587 69.2621 143.061 68.8926C142.541 68.5268 142.281 67.8509 141.771 67.3956C141.462 67.1194 141.184 67.093 140.958 67.2674C140.697 67.4691 140.466 67.4286 140.187 67.4635C139.374 67.5643 138.574 67.7736 137.767 67.9301C137.458 67.9895 137.256 68.1167 137.307 68.5617C137.115 67.9056 136.687 68.1497 136.326 68.1969C135.96 68.2449 135.516 68.2308 135.633 68.9161C135.552 68.3373 135.194 68.4646 134.888 68.475C134.809 68.4778 134.73 68.4702 134.651 68.4674C134.499 68.5626 134.319 68.4665 134.163 68.5391C133.826 68.5947 133.483 68.6286 133.191 68.8388C133.147 68.8709 133.071 68.9878 133.004 68.8879C132.832 68.6277 132.628 68.7964 132.426 68.8134C132.178 68.8351 131.957 68.9963 131.697 68.9359C131.353 69.0528 130.991 68.9227 130.645 69.0095C130.051 69.1113 129.459 69.2338 128.851 69.2206C128.699 69.3158 128.519 69.2197 128.363 69.2923C128.241 69.2998 128.118 69.3073 127.995 69.3149C127.811 69.4158 127.6 69.3102 127.413 69.3856C126.803 69.4572 126.195 69.5421 125.583 69.5967C125.051 69.6439 124.538 70.0002 123.982 69.7014C123.971 69.6948 123.951 69.6995 123.936 69.7033C123.397 69.8371 122.845 69.8334 122.298 69.8381C121.901 69.8418 121.537 70.0577 121.135 69.9738C120.814 69.9201 120.49 69.8334 120.186 70.0398C119.557 70.0954 118.933 69.9785 118.306 69.9767C118.118 70.0728 117.906 69.9682 117.717 70.0483C117.451 70.054 117.183 70.0728 116.917 70.0606C116.517 70.0417 116.111 70.3302 115.716 70.0436C115.595 69.9889 115.506 70.0445 115.428 70.1294C114.707 70.0313 113.994 70.0398 113.288 70.2481C112.974 70.3415 112.68 70.5555 112.321 70.448C112.035 70.5479 111.732 70.4386 111.443 70.5121C111.252 70.6959 111.004 70.5225 110.843 70.5743C110.302 70.7506 109.761 70.5658 109.236 70.6535C108.075 70.8467 106.914 70.7581 105.752 70.728C105.135 70.7402 104.528 70.859 103.916 70.9184C103.678 70.8053 103.439 70.8364 103.186 70.8731C102.81 70.9278 102.431 71.0805 102.045 70.9165C101.893 71.0117 101.712 70.9137 101.557 70.9891C101.174 70.9156 100.795 71.2219 100.413 70.9966C100.193 70.941 99.9694 71.0994 99.7515 70.9844C99.4006 71.2182 99.0505 71.0834 98.7005 70.9834C98.2896 70.9504 97.8797 70.9316 97.4697 70.9938C97.368 71.072 97.2548 70.9881 97.1539 71.0117C96.6898 71.1182 96.1704 70.8062 95.7367 71.2342C95.5931 71.3756 95.4714 71.2031 95.4675 71.0183C95.2526 70.9052 95.03 70.9617 94.8084 70.9881C94.6686 71.1182 94.4955 71.105 94.3233 71.0984C93.4929 71.0683 92.6626 71.0343 91.8322 71.0089C91.68 71.0042 91.5069 70.9542 91.3852 71.09C91.2178 71.2766 91.0095 71.2351 90.8154 71.188C90.3446 71.073 89.8671 71.0117 89.3839 70.9806C89.227 70.9485 89.071 70.9457 88.915 70.9834C88.5327 71.0127 88.1503 71.0428 87.767 71.072C87.61 71.0475 87.4541 71.0343 87.299 71.0824C86.949 71.32 86.598 71.3096 86.248 71.0824C85.9665 71.0287 85.683 71.0504 85.4005 71.0692C84.6263 71.0796 83.8444 71.1578 83.0806 71.073C82.6365 71.024 82.3074 71.3624 81.789 71.1757C81.2335 70.9759 80.5335 71.2031 79.899 71.1748C79.6232 71.1625 79.3426 71.0937 79.0592 71.0984C78.3116 71.1107 77.5601 71.1701 76.8163 71.1239C75.947 71.0702 75.0843 71.2596 74.2187 71.1107C74.2625 71.2389 74.2901 71.3435 74.3329 71.4425C74.3757 71.5434 74.3138 71.5971 74.2444 71.6216C74.213 71.6329 74.1217 71.5773 74.1132 71.5396C74.0047 71.072 73.5815 71.1333 73.2885 71.1314C72.1699 71.1248 71.0504 71.2097 69.9319 71.1927C69.6009 71.188 69.2737 71.468 68.9436 71.2116C68.7962 71.0475 68.7534 71.2502 68.664 71.2898C68.3159 71.3567 68.0457 71.0758 67.7119 71.0786C67.5578 71.0089 67.379 71.1069 67.2296 71.007C66.7303 70.9985 66.2319 71.1107 65.7325 71.0089C65.2807 71.0786 64.8289 71.0834 64.3771 71.007C64.2373 71.0174 64.0965 71.0268 63.9738 71.0353C63.9843 71.2266 64.1146 71.3831 64.0147 71.6301C63.8549 70.9599 63.3708 70.9702 62.8743 71.007C62.53 71.122 62.1695 70.9966 61.8223 71.0758C61.7281 71.0843 61.634 71.0918 61.5398 71.1003C61.2307 70.9655 60.9197 70.8533 60.5896 71.0362C60.6762 71.1748 60.7627 71.3124 60.8616 71.4699C60.6942 71.4821 60.543 71.5528 60.4536 71.3492C60.2833 70.9618 59.9419 70.9203 59.57 70.9231C59.2418 70.9259 58.9137 70.8995 58.5846 70.8854C58.2374 70.8533 57.8912 70.8439 57.545 70.8901C57.0998 70.9523 56.6547 70.9382 56.2096 70.8901C56.0498 70.8251 55.869 70.909 55.7121 70.8241C55.5609 70.8137 55.4096 70.8043 55.2584 70.794C55.0976 70.7336 54.9188 70.8137 54.7609 70.7299C54.546 70.7195 54.332 70.7082 54.117 70.6978C53.7965 70.629 53.4636 70.7346 53.1449 70.6356C52.4201 70.6535 51.6878 70.7817 50.9801 70.5093C50.7585 70.4423 50.5207 70.546 50.3029 70.4442C49.8587 70.6299 49.4221 70.5017 48.9836 70.415C48.8286 70.3547 48.6526 70.4461 48.5023 70.3481C47.3562 70.5112 46.2262 70.2463 45.0867 70.2293C44.9307 70.1906 44.7738 70.1925 44.6178 70.2274C44.4656 70.2406 44.3515 70.3716 44.1803 70.3405C43.7551 70.2632 43.3271 70.2019 42.901 70.1341C42.7402 70.0737 42.5614 70.1539 42.4035 70.07C41.9679 70.2085 41.5237 70.0228 41.0862 70.0992C40.8893 69.8984 40.6173 70.102 40.4071 69.9757C39.551 69.987 38.7111 69.8202 37.8627 69.757C37.5374 69.6844 37.2007 69.79 36.8764 69.6948C36.5292 69.7353 36.2039 69.5986 35.8662 69.5666C35.7093 69.5081 35.5324 69.5939 35.3792 69.5015C35.2252 69.4921 35.0701 69.4836 34.916 69.4742C34.7591 69.411 34.5812 69.4997 34.4281 69.4073C34.3054 69.3997 34.1836 69.3922 34.0609 69.3846C33.9011 69.3158 33.7204 69.4026 33.5635 69.3158C32.3203 69.5873 31.1647 69.099 29.9738 68.9133C29.8197 68.8643 29.6638 68.885 29.5078 68.8973C29.3917 68.9793 29.2605 68.9491 29.1406 68.9274C28.4662 68.8002 27.7938 68.6635 27.1213 68.5296C26.8017 68.4599 26.4707 68.5683 26.154 68.4674C25.8553 68.2346 25.4853 68.4203 25.1591 68.2911C24.6426 68.0866 24.0919 68.0083 23.5336 67.997C23.3652 68.0545 23.1978 68.0706 23.0304 67.9923C22.7336 67.8886 22.4987 67.6548 22.1801 67.5983C22.0203 67.5238 21.8376 67.6124 21.6797 67.5276C21.6027 67.52 21.5095 67.537 21.4496 67.5012C20.681 67.0402 19.7689 67.0034 18.9594 66.6678C18.773 66.5905 18.5086 66.6509 18.5543 66.7706C18.6693 67.0723 18.4144 67.2429 18.4078 67.4701C18.3916 68.0215 18.4258 68.5749 18.4401 69.1282C18.4658 69.3583 18.2927 69.6486 18.6418 69.7806C18.4468 70.0474 18.8263 70.3302 18.657 70.5583C18.2461 71.1116 18.4629 71.7329 18.3992 72.3239C18.3821 72.4889 18.4449 72.4955 18.6056 72.5059Z" fill="#F8F6E9"/>
<path d="M53.7381 26.756C59.8921 26.7644 66.046 26.7635 72.1991 26.7607C72.3513 26.7607 72.5168 26.8172 72.6547 26.7003C72.6509 24.3672 72.6376 22.0341 72.6518 19.7019C72.6537 19.3437 72.5558 19.257 72.2057 19.2664C71.2584 19.2918 70.3101 19.2777 69.3618 19.2749C67.3881 19.2683 65.4135 19.2598 63.4399 19.2522C63.3647 19.1551 63.3914 19.042 63.3914 18.9346C63.3904 15.2996 63.3904 11.6646 63.3914 8.02872C63.3914 7.92126 63.3647 7.80814 63.4399 7.71104C63.613 7.7035 63.7871 7.68842 63.9602 7.68842C68.6161 7.68747 73.272 7.6837 77.9288 7.69596C78.2741 7.6969 78.3768 7.62809 78.374 7.2661C78.355 4.8651 78.3635 2.46316 78.3626 0.0621557C78.2332 -0.0255133 78.0858 0.0131365 77.9469 0.0131365C70.6183 0.0103084 63.2896 0.0103084 55.9609 0.0131365C55.8259 0.0131365 55.6737 -0.0434242 55.5557 0.0781812C55.5586 0.140398 55.5653 0.203557 55.5653 0.265774C55.5653 8.58396 55.5662 16.9012 55.5634 25.2194C55.5634 25.3419 55.5339 25.4635 55.5187 25.5861C55.3522 25.702 55.1525 25.5842 54.9803 25.6615C54.2888 25.7831 53.7019 26.0867 53.2463 26.6259C53.3491 26.8908 53.5783 26.756 53.7381 26.756Z" fill="#F8F6E9"/>
<path d="M81.7298 26.759C84.8115 26.7647 87.8933 26.7637 90.975 26.7609C91.111 26.7609 91.2613 26.8118 91.3831 26.7006C91.384 21.3867 91.3869 16.0738 91.385 10.7599C91.385 9.34024 92.5035 7.97901 93.9312 7.77445C94.0872 7.68772 94.266 7.77068 94.4258 7.70941C95.8221 7.70941 97.2184 7.70941 98.6147 7.70941C98.7745 7.76974 98.9533 7.68772 99.1093 7.77445C99.8988 7.98938 100.543 8.39568 101.036 9.06686C101.673 9.93224 101.7 10.906 101.659 11.9053C101.684 11.9251 101.708 11.9628 101.733 11.9628C104.202 11.9826 106.671 11.9665 109.14 11.975C109.359 11.976 109.404 11.8723 109.401 11.6856C109.38 10.0397 109.436 8.39285 109.371 6.74788C109.325 6.48958 109.29 6.22846 109.229 5.97394C108.387 2.54259 105.616 0.260372 102.032 0.0388425C101.862 -0.0139474 101.687 0.0115049 101.515 0.0115049C98.0592 0.00961953 94.6037 0.00961953 91.1481 0.0115049C90.975 0.0115049 90.801 -0.0101767 90.6297 0.0341291C90.3824 0.0737216 90.1342 0.112371 89.8869 0.152906C87.9494 0.468703 86.36 1.40761 85.1625 2.92438C84.0468 4.33651 83.5741 5.97677 83.5817 7.78576C83.6083 13.5483 83.5921 19.3109 83.5902 25.0735C83.5902 25.2441 83.5684 25.4157 83.5569 25.5863C83.3914 25.7004 83.1955 25.5892 83.0243 25.658C82.3204 25.7683 81.7222 26.0662 81.2742 26.6299C81.3712 26.8589 81.5747 26.759 81.7298 26.759Z" fill="#F8F6E9"/>
<path d="M109.362 32.4637C106.943 32.4637 104.522 32.4731 102.102 32.4561C101.743 32.4533 101.637 32.5457 101.662 32.8983C101.694 33.3507 101.688 33.8079 101.666 34.2614C101.598 35.5811 100.606 36.6303 99.4532 36.684C97.7811 36.7613 96.1023 36.6935 94.4254 36.6878C94.2666 36.619 94.0849 36.7057 93.928 36.619C92.5926 36.4597 91.4321 35.1164 91.3998 33.8899C91.3456 31.8227 91.3808 29.7525 91.3789 27.6843C91.3351 27.6334 91.279 27.6164 91.2124 27.6164C88.1174 27.6155 85.0223 27.6164 81.9282 27.6183C81.8302 27.6183 81.6895 27.575 81.6895 27.756C82.9107 28.4187 83.567 29.4424 83.5851 30.8187C83.6108 32.7625 83.5889 34.7063 83.5937 36.651C83.5946 37.161 83.6098 37.6682 83.6964 38.1772C83.9618 39.7393 84.6704 41.0835 85.7813 42.1902C86.9284 43.3318 88.3276 44.0501 89.9626 44.2632C90.1481 44.3376 90.3573 44.2292 90.539 44.3348C90.6018 44.3452 90.6636 44.3546 90.7264 44.365C90.8196 44.3895 90.9147 44.3838 91.0098 44.3838C94.7003 44.3838 98.3908 44.3838 102.081 44.3838C102.192 44.3838 102.304 44.398 102.41 44.3565C102.623 44.3197 102.836 44.2792 103.05 44.2462C105.043 43.9379 106.601 42.9199 107.837 41.371C108.71 40.2756 109.145 39.004 109.372 37.6475C109.431 36.7453 109.396 35.8422 109.394 34.9391C109.393 34.1115 109.442 33.2866 109.362 32.4637Z" fill="#F8F6E9"/>
<path d="M103.23 111.141C102.653 111.24 102.108 111.393 101.823 111.975C101.908 112.224 102.12 112.104 102.268 112.105C104.422 112.113 106.576 112.1 108.729 112.121C109.136 112.125 109.219 111.997 109.218 111.619C109.205 108.071 109.21 104.525 109.212 100.978C109.212 100.808 109.17 100.632 109.256 100.469C109.26 99.5664 109.992 98.6426 110.87 98.4927C112.025 98.2947 113.203 98.34 114.353 98.4333C115.882 98.5577 116.564 99.5136 116.578 100.706C116.624 104.484 116.59 108.264 116.587 112.043C116.656 112.134 116.757 112.11 116.848 112.11C118.539 112.111 120.23 112.111 121.92 112.11C122.011 112.11 122.113 112.134 122.181 112.043C122.178 110.883 122.171 109.724 122.172 108.565C122.175 105.119 122.18 101.671 122.185 98.2249C122.075 98.0119 122.192 97.7753 122.113 97.5594C121.799 96.1454 121.185 94.9133 119.985 94.0178C119.167 93.4069 118.234 93.0968 117.243 92.9205C117.073 92.8715 116.899 92.896 116.726 92.896C114.567 92.8941 112.407 92.8913 110.248 92.8969C109.666 92.8979 109.083 92.8639 108.502 92.9205C105.835 93.2448 103.939 95.1254 103.629 97.748C103.584 97.9176 103.606 98.0911 103.606 98.2627C103.605 102.37 103.606 106.476 103.603 110.583C103.603 110.751 103.652 110.928 103.555 111.089C103.446 111.106 103.337 111.122 103.23 111.141Z" fill="#F8F6E9"/>
<path d="M45.7646 111.72C45.9719 110.358 46.2173 109.002 46.4542 107.644C46.7566 105.906 47.0705 104.17 47.373 102.43C47.5765 101.257 47.7601 100.079 47.9751 98.9066C47.9941 98.8039 47.957 98.5644 48.152 98.5795C48.3489 98.5946 48.3137 98.7973 48.3403 98.9519C48.4839 99.772 48.6704 100.586 48.7931 101.409C48.9101 102.191 49.0622 102.964 49.204 103.741C49.3524 104.558 49.4532 105.383 49.5987 106.2C49.8061 107.364 50.0381 108.523 50.2521 109.686C50.411 110.549 50.5774 111.411 50.6992 112.28C50.7334 112.526 50.8219 112.539 51.015 112.539C52.6785 112.534 54.3412 112.527 56.0047 112.543C56.3167 112.546 56.3443 112.41 56.3024 112.178C55.9962 110.472 55.6842 108.767 55.3827 107.061C55.1164 105.553 54.8586 104.043 54.5989 102.534C54.3345 100.993 54.0786 99.4487 53.8095 97.9083C53.5403 96.3699 53.2473 94.8352 52.9943 93.2939C52.9515 93.0337 52.8906 92.9527 52.6281 92.9536C49.6501 92.9612 46.6729 92.9612 43.6949 92.9536C43.4704 92.9527 43.4238 93.0187 43.3867 93.2345C43.2612 93.9679 43.1289 94.6995 43.0043 95.4329C42.7437 96.9685 42.4251 98.4956 42.1559 100.03C41.9172 101.388 41.7222 102.754 41.4911 104.112C41.2828 105.339 41.0535 106.561 40.83 107.785C40.6074 109.004 40.3582 110.218 40.1718 111.442C40.1261 111.739 39.9911 111.697 39.8113 111.71C39.1208 111.762 38.4312 111.82 37.9756 112.538C40.3088 112.538 42.5887 112.538 44.8696 112.538C45.6714 112.537 45.6409 112.532 45.7646 111.72Z" fill="#F8F6E9"/>
<path d="M31.7353 111.94C31.7363 110.388 31.7249 108.837 31.7439 107.285C31.7487 106.934 31.6535 106.834 31.2959 106.837C29.3983 106.855 27.5008 106.846 25.6032 106.846C25.083 106.846 25.082 106.845 25.082 106.348C25.082 103.919 25.0811 101.489 25.0839 99.0602C25.0839 98.9066 25.043 98.7463 25.1296 98.6002C25.2932 98.5106 25.471 98.5549 25.6413 98.5549C28.8828 98.5521 32.1234 98.554 35.3649 98.5493C35.5324 98.5493 35.7131 98.6115 35.8681 98.4899C35.8643 96.86 35.8386 95.2301 35.8691 93.6012C35.8776 93.127 35.7292 93.0375 35.2879 93.0488C34.0552 93.0799 32.8216 93.0601 31.5879 93.0591C27.5721 93.0554 23.5554 93.0506 19.5396 93.0469C19.4169 93.2005 19.4797 93.3806 19.4787 93.5465C19.4749 99.3232 19.4759 105.1 19.473 110.877C19.473 111.045 19.5215 111.222 19.4255 111.383C19.2761 111.424 19.1287 111.495 18.9784 111.502C18.4391 111.528 18.0786 111.827 17.6868 112.261C22.4169 112.261 27.0576 112.261 31.6973 112.261C31.7534 112.16 31.7353 112.048 31.7353 111.94Z" fill="#F8F6E9"/>
<path d="M61.946 111.307C61.4181 111.344 61.0481 111.628 60.6553 112.066C63.1625 112.066 65.587 112.066 68.0106 112.066C68.0809 111.9 68.0458 111.725 68.0467 111.555C68.0486 108.024 68.0477 104.494 68.0505 100.964C68.0505 100.795 68.0115 100.619 68.0895 100.454C67.983 99.4797 69.2166 98.2571 70.1802 98.4013C71.2045 98.3221 72.2289 98.3334 73.2533 98.3966C73.5977 98.3994 73.9144 98.489 74.2092 98.6681C75.0834 99.1988 75.4924 99.9737 75.4277 100.981C75.4058 101.323 75.4914 101.435 75.8605 101.429C77.4574 101.407 79.0554 101.411 80.6533 101.426C80.9577 101.429 81.0195 101.331 81.0148 101.051C81.0014 100.111 81.0157 99.1705 81.0195 98.2297C80.9149 98.0139 81.0262 97.7763 80.9491 97.5585C80.8226 97.0646 80.7294 96.5612 80.5097 96.0927C79.6793 94.3242 78.2612 93.3165 76.3646 92.9196C76.2105 92.8499 76.0317 92.9479 75.8833 92.848C74.253 92.8527 72.6227 92.8433 70.9934 92.8659C69.6846 92.8838 68.372 92.766 67.067 92.9422C65.8001 93.1129 64.6939 93.6436 63.8512 94.5929C63.0598 95.4846 62.529 96.5244 62.4644 97.7471C62.4235 97.9177 62.4434 98.0912 62.4434 98.2627C62.4425 102.402 62.4434 106.541 62.4396 110.68C62.4396 110.848 62.4891 111.025 62.3921 111.186C62.2447 111.228 62.0972 111.296 61.946 111.307Z" fill="#F8F6E9"/>
<path d="M58.3228 125.111C58.4787 125.113 58.5663 125.053 58.5158 124.881C58.2952 123.963 58.1677 123.028 58.0051 122.099C57.5076 119.254 56.9949 116.411 56.4918 113.567C56.4357 113.25 56.3453 113.088 55.9401 113.089C50.2103 113.109 44.4806 113.103 38.7508 113.103C38.6053 113.103 38.4588 113.103 38.2201 113.103C38.4341 113.241 38.5596 113.303 38.6633 113.392C39.2692 113.91 39.7724 114.445 39.5174 115.365C39.3168 116.09 39.2349 116.849 39.1094 117.593C38.9039 118.818 38.7099 120.044 38.5045 121.269C38.2914 122.537 38.0165 123.794 37.8672 125.073C37.8957 125.085 37.9252 125.107 37.9547 125.108C39.7162 125.12 41.4778 125.108 43.2393 125.118C43.44 125.119 43.5209 125.03 43.5656 124.864C43.6179 123.81 43.8956 122.79 44.0535 121.753C44.2209 120.655 44.4473 119.566 44.648 118.473C44.6889 118.451 44.7269 118.425 44.7783 118.425C46.9888 118.42 49.1993 118.425 51.4107 118.423C51.5391 118.423 51.6675 118.418 51.7293 118.564C51.8083 119.089 51.8777 119.616 51.969 120.138C52.1459 121.148 52.3333 122.156 52.5207 123.165C52.6386 123.799 52.7642 124.433 52.8859 125.067C54.6989 125.171 56.5118 125.085 58.3228 125.111Z" fill="#F8F6E9"/>
<path d="M88.4516 111.32C87.9294 111.333 87.4995 111.564 87.1733 111.975C87.2474 112.195 87.4358 112.106 87.5756 112.106C89.7385 112.112 91.9024 112.111 94.0653 112.108C94.1852 112.108 94.3212 112.156 94.422 112.042C94.4182 107.603 94.4182 103.164 94.4058 98.7247C94.4049 98.44 94.5124 98.3985 94.7616 98.3994C96.4233 98.4079 98.0849 98.4032 99.7475 98.4032C99.8227 98.3061 99.797 98.193 99.798 98.0855C99.7999 96.4858 99.7875 94.887 99.8075 93.2873C99.8122 92.9263 99.6657 92.8886 99.3614 92.8886C94.2042 92.8961 89.0461 92.898 83.8889 92.8857C83.5275 92.8848 83.439 92.9847 83.4428 93.3345C83.4619 94.855 83.4495 96.3765 83.4533 97.897C83.4533 98.0657 83.4048 98.242 83.5018 98.4032C85.1492 98.4032 86.7966 98.4107 88.444 98.3985C88.7379 98.3966 88.8463 98.4522 88.8454 98.7765C88.833 102.811 88.8359 106.845 88.8416 110.879C88.8416 111.162 88.7788 111.312 88.4516 111.32Z" fill="#F8F6E9"/>
<path d="M122.113 120.448C122.176 120.252 122.092 120.042 122.176 119.849C122.178 117.637 122.18 115.425 122.182 113.213C122.108 113.13 122.008 113.151 121.916 113.151C120.227 113.15 118.537 113.15 116.847 113.151C116.755 113.151 116.655 113.13 116.582 113.213C116.586 114.751 116.591 116.288 116.594 117.826C116.596 118.688 115.817 119.563 115.066 119.606C113.814 119.685 112.562 119.672 111.311 119.612C110.369 119.721 109.132 118.491 109.252 117.544C109.174 117.396 109.212 117.236 109.211 117.081C109.207 115.904 109.2 114.726 109.214 113.549C109.218 113.254 109.155 113.139 108.824 113.142C106.891 113.158 104.959 113.148 103.026 113.153C102.9 113.153 102.727 113.079 102.673 113.287C103.114 113.656 103.398 114.123 103.565 114.666C103.636 114.832 103.601 115.007 103.603 115.178C103.619 116.871 103.577 118.565 103.625 120.258C103.647 121.117 103.944 121.91 104.39 122.611C105.273 123.998 106.545 124.861 108.215 125.084C108.374 125.153 108.555 125.065 108.711 125.152C111.384 125.155 114.058 125.153 116.73 125.162C117.588 125.165 118.416 124.975 119.149 124.577C120.793 123.687 121.801 122.301 122.113 120.448Z" fill="#F8F6E9"/>
<path d="M18.7932 150.267C20.4368 150.266 22.0795 150.268 23.7231 150.264C23.8734 150.263 24.0398 150.328 24.1739 150.198C24.1711 147.189 24.1558 144.179 24.1701 141.17C24.1758 139.94 24.931 139.245 26.1809 139.242C26.8923 139.24 27.6047 139.225 28.3162 139.246C29.3415 139.277 30.0692 140.042 30.0796 141.069C30.1614 141.233 30.1215 141.408 30.1215 141.578C30.1243 144.322 30.131 147.065 30.1148 149.809C30.1129 150.183 30.2176 150.284 30.5904 150.277C31.7603 150.253 32.9322 150.251 34.1021 150.278C34.4978 150.286 34.5986 150.172 34.5976 149.783C34.5824 146.271 34.5891 142.759 34.5881 139.246C34.5881 139.106 34.6062 138.964 34.5643 138.826C34.4493 138.022 34.1791 137.28 33.695 136.615C32.9607 135.608 31.9258 135.104 30.7378 134.847C28.3638 134.801 25.9887 134.809 23.6146 134.842C21.3623 135.141 19.9061 136.686 19.6959 138.637C19.6426 138.805 19.6683 138.98 19.6683 139.15C19.6664 142.396 19.6673 145.643 19.6654 148.888C19.6654 149.058 19.7044 149.233 19.6264 149.398C19.3753 149.458 19.1147 149.494 18.875 149.583C18.544 149.705 18.2349 149.874 18.2273 150.297C18.4137 150.248 18.604 150.267 18.7932 150.267Z" fill="#F8F6E9"/>
<path d="M71.6863 125.109C73.1825 125.109 74.6786 125.143 76.1748 125.089C77.5321 124.906 78.6744 124.303 79.5923 123.306C80.337 122.496 80.7346 121.512 80.9477 120.449C81.0266 120.227 80.9182 119.988 81.0171 119.768C81.0171 118.715 81.0181 117.663 81.0181 116.61C80.9486 116.519 80.8478 116.543 80.7565 116.543C79.0663 116.542 77.3761 116.542 75.6849 116.543C75.5936 116.543 75.4919 116.519 75.4234 116.61C75.4262 117.016 75.4405 117.424 75.431 117.83C75.4063 118.881 74.4522 119.614 73.658 119.614C72.4586 119.613 71.2564 119.647 70.0598 119.591C68.8956 119.536 67.9853 118.358 68.0938 117.538C68.0044 117.36 68.0538 117.169 68.05 116.984C68.0224 115.69 68.0966 114.394 68.0101 113.101C65.7016 113.101 63.3932 113.101 61.0486 113.101C61.9522 113.841 61.9522 113.841 62.3935 114.798C62.4867 114.959 62.4382 115.134 62.4401 115.303C62.4591 116.955 62.4106 118.608 62.4668 120.259C62.7093 122.936 64.9683 125.005 67.5288 125.087C68.9146 125.146 70.3005 125.108 71.6863 125.109Z" fill="#F8F6E9"/>
<path d="M64.1893 143.208C65.4334 143.19 66.6785 143.202 67.9235 143.198C68.0443 143.198 68.1775 143.242 68.2831 143.137C68.2831 141.764 68.284 140.391 68.284 139.018C68.1765 138.838 68.2897 138.629 68.2098 138.446C68.1794 138.376 68.1385 138.308 68.1204 138.234C67.6268 136.291 66.3246 135.223 64.3871 134.843C63.8383 134.789 63.2885 134.818 62.7397 134.822C61.4214 134.831 60.1022 134.781 58.7839 134.848C58.6469 134.881 58.5109 134.922 58.372 134.945C56.522 135.256 55.199 136.786 54.9555 138.543C54.8898 138.727 54.9926 138.932 54.8879 139.113C54.8898 140.982 54.8927 142.852 54.8946 144.721C54.9802 144.914 54.8927 145.125 54.9602 145.32C55.0515 146.338 55.5518 147.172 56.3194 147.786C57.5417 148.764 59.0426 149.099 60.5587 149.358C61.2302 149.472 61.9122 149.549 62.5571 149.76C62.4211 149.96 62.1053 149.918 62.1186 150.218C62.2004 150.283 62.2974 150.267 62.3907 150.267C64.234 150.268 66.0764 150.268 67.9197 150.267C68.0129 150.267 68.1099 150.283 68.1917 150.217C68.1413 149.88 68.1176 149.538 68.0358 149.209C67.5687 147.315 66.1934 146.334 64.4299 145.802C63.1031 145.402 61.7258 145.222 60.3542 145.024C60.0461 144.979 59.6561 145.008 59.4459 144.665C59.3403 144.298 59.3983 143.922 59.4031 143.551C59.4164 142.602 59.3355 141.651 59.4449 140.702C59.5467 139.926 60.2401 139.318 61.0543 139.289C61.567 139.215 62.0796 139.215 62.5923 139.289C63.1354 139.452 63.5644 139.739 63.7299 140.314C63.8259 141.138 63.766 141.964 63.7651 142.788C63.7641 143.116 63.8583 143.213 64.1893 143.208Z" fill="#F8F6E9"/>
<path d="M63.0686 27.6094C60.0115 27.6189 56.9545 27.6142 53.8984 27.6189C53.81 27.6189 53.653 27.5501 53.6683 27.7499C54.1163 27.9809 54.5452 28.2297 54.8268 28.6718C55.1502 29.1781 55.5563 29.6692 55.5582 30.2895C55.5706 34.9661 55.5592 39.6427 55.5554 44.3193C55.6942 44.4362 55.8597 44.3787 56.0119 44.3797C58.2928 44.3834 60.5737 44.3825 62.8545 44.3825C63.391 44.3825 63.3919 44.3816 63.3919 43.8527C63.3919 39.4259 63.3919 34.9991 63.3919 30.5723C63.3919 29.7088 63.3862 28.8453 63.3958 27.9818C63.3967 27.7442 63.3682 27.6085 63.0686 27.6094Z" fill="#F8F6E9"/>
<path d="M44.0528 150.203C44.0652 150.213 44.0775 150.23 44.0908 150.231C45.509 150.311 46.9281 150.247 48.3473 150.266C48.5051 150.268 48.5889 150.202 48.5365 150.033C48.2445 148.978 47.9449 147.925 47.6615 146.868C46.8758 143.935 46.0921 141.001 45.3169 138.065C45.0372 137.006 44.7842 135.941 44.5198 134.879C44.379 134.769 44.2145 134.823 44.0614 134.823C42.2266 134.819 40.3918 134.82 38.5561 134.82C38.0139 134.82 38.013 134.821 38.013 135.343C38.013 139.858 38.013 144.374 38.011 148.888C38.011 149.058 38.05 149.233 37.9721 149.398C37.818 149.539 37.6154 149.458 37.4385 149.512C37.0447 149.635 36.6728 149.765 36.551 150.217C36.6176 150.27 36.6966 150.268 36.7755 150.268C38.6036 150.268 40.4317 150.268 42.2589 150.267C42.3502 150.267 42.451 150.291 42.5195 150.2C42.5195 148.334 42.5195 146.469 42.5195 144.604C42.5424 144.602 42.5652 144.601 42.588 144.599C43.076 146.467 43.5639 148.335 44.0528 150.203Z" fill="#F8F6E9"/>
<path d="M151.737 150.214C152.124 150.218 152.237 150.133 152.235 149.732C152.216 146.83 152.225 143.929 152.226 141.026C152.226 140.145 152.79 139.425 153.66 139.283C154.636 139.124 155.617 139.157 156.6 139.286C157.365 139.387 158.126 140.134 158.122 140.885C158.211 141.063 158.161 141.254 158.165 141.438C158.168 141.611 158.223 141.694 158.41 141.694C159.735 141.691 161.059 141.691 162.384 141.694C162.565 141.694 162.637 141.624 162.634 141.444C162.615 140.508 162.666 139.57 162.607 138.634C162.55 138.393 162.509 138.147 162.433 137.914C161.831 136.048 160.186 134.82 158.224 134.792C156.182 134.764 154.138 134.779 152.096 134.792C151.756 134.794 151.413 134.865 151.077 134.931C149.287 135.284 147.856 136.83 147.735 138.823C147.69 138.993 147.712 139.166 147.712 139.338C147.711 142.569 147.712 145.8 147.709 149.031C147.709 149.199 147.757 149.376 147.661 149.537C147.173 149.607 146.67 149.649 146.397 150.203C148.199 150.204 149.969 150.192 151.737 150.214Z" fill="#F8F6E9"/>
<path d="M0.334807 150.2C1.94892 150.206 3.56303 150.208 5.17714 150.203C5.91429 150.201 5.81441 150.299 5.81537 149.593C5.81917 146.755 5.81441 143.917 5.81822 141.077C5.81917 140.15 6.24434 139.519 7.14508 139.298C8.08197 139.068 9.0512 139.187 10.0043 139.251C10.1612 139.262 10.3448 139.258 10.5312 139.353C11.3654 139.777 11.8381 140.437 11.7344 141.626C11.8685 141.754 12.035 141.69 12.1843 141.691C13.1145 141.697 14.0448 141.701 14.975 141.691C15.3811 141.686 15.7911 141.749 16.1934 141.644C16.1449 140.582 16.2657 139.521 16.1107 138.457C15.8025 136.34 13.884 134.787 11.6954 134.788C9.68467 134.788 7.67392 134.772 5.66318 134.792C3.44128 134.814 1.61316 136.391 1.34113 138.543C1.30023 138.714 1.3202 138.886 1.3202 139.058C1.31925 142.379 1.3202 145.701 1.3164 149.023C1.3164 149.191 1.36586 149.368 1.26884 149.528C0.9055 149.628 0.480334 149.555 0.208303 149.921C0.15599 149.992 -0.03329 149.997 0.00380501 150.124C0.0523139 150.281 0.222571 150.199 0.334807 150.2Z" fill="#F8F6E9"/>
<path d="M114.508 139.246C115.648 139.241 116.788 139.236 117.928 139.249C118.221 139.253 118.348 139.197 118.342 138.865C118.323 137.641 118.327 136.418 118.34 135.194C118.342 134.917 118.278 134.812 117.973 134.813C113.842 134.822 109.711 134.822 105.579 134.813C105.276 134.812 105.21 134.917 105.213 135.194C105.225 136.418 105.231 137.641 105.21 138.865C105.204 139.197 105.332 139.252 105.625 139.249C106.764 139.236 107.904 139.241 109.044 139.246C109.198 139.247 109.361 139.201 109.507 139.293C109.519 139.401 109.541 139.508 109.541 139.615C109.542 141.211 109.542 142.806 109.542 144.402C109.542 145.982 109.527 147.562 109.554 149.142C109.56 149.487 109.442 149.618 109.135 149.635C108.741 149.657 108.455 149.869 108.191 150.129C108.256 150.358 108.449 150.261 108.584 150.262C110.285 150.269 111.987 150.267 113.688 150.266C113.796 150.266 113.911 150.291 114.008 150.216C114.008 146.746 114.008 143.276 114.011 139.806C114.011 139.635 114.033 139.465 114.044 139.293C114.192 139.201 114.354 139.247 114.508 139.246Z" fill="#F8F6E9"/>
<path d="M162.629 151.289C162.629 151.235 162.593 151.205 162.568 151.168C161.123 151.168 159.677 151.168 158.231 151.168C158.106 151.321 158.175 151.5 158.17 151.666C158.138 152.825 158.221 153.985 158.126 155.143C158.059 155.781 157.655 156.134 157.088 156.35C155.962 156.424 154.834 156.416 153.708 156.354C152.938 156.355 152.212 155.383 152.222 154.699C152.236 153.664 152.213 152.628 152.233 151.593C152.24 151.271 152.163 151.168 151.82 151.171C150.174 151.19 148.527 151.178 146.882 151.184C146.792 151.184 146.666 151.108 146.589 151.273C147.21 151.477 147.441 152.007 147.675 152.535C147.742 152.717 147.707 152.908 147.71 153.095C147.728 154.334 147.68 155.574 147.736 156.812C147.776 157.722 148.093 158.529 148.673 159.231C149.518 160.253 150.612 160.821 151.943 160.84C154.123 160.873 156.304 160.857 158.484 160.861C158.636 160.767 158.816 160.86 158.972 160.792C159.111 160.723 159.268 160.743 159.418 160.692C161.204 160.071 162.261 158.841 162.606 157.002C162.663 155.098 162.62 153.193 162.629 151.289Z" fill="#F8F6E9"/>
<path d="M34.1975 151.211C33.1075 151.214 32.0175 151.212 30.9284 151.212C30.1237 151.212 30.1351 151.212 30.1209 151.991C30.1028 153.005 30.1836 154.021 30.0781 155.035C30.0666 155.844 29.5492 156.417 28.7483 156.442C27.8638 156.469 26.9782 156.467 26.0937 156.453C24.9551 156.434 24.199 155.701 24.1742 154.563C24.1495 153.468 24.1742 152.371 24.1771 151.275C24.1305 151.228 24.0734 151.212 24.0068 151.212C22.3994 151.211 20.791 151.212 19.1835 151.213C19.0741 151.213 18.9543 151.197 18.9248 151.349C19.2434 151.662 19.5364 151.991 19.6287 152.446C19.7 152.612 19.6639 152.787 19.6667 152.958C19.6848 154.306 19.6372 155.655 19.6924 157.002C19.7228 157.199 19.7361 157.4 19.7856 157.592C20.0424 158.583 20.5988 159.391 21.395 160.024C21.998 160.503 22.718 160.828 23.4799 160.845C25.7417 160.894 28.0045 160.865 30.2673 160.87C30.6744 160.871 31.072 160.821 31.4553 160.686C33.3006 160.035 34.3031 158.716 34.5685 156.814C34.6179 155.046 34.5704 153.278 34.5951 151.51C34.598 151.186 34.4106 151.21 34.1975 151.211Z" fill="#F8F6E9"/>
<path d="M86.4731 151.211C85.3032 151.212 84.1333 151.211 82.9633 151.212C82.405 151.212 82.4136 151.213 82.4031 151.766C82.3822 152.861 82.4583 153.956 82.3641 155.05C82.3346 155.776 81.6964 156.435 80.9669 156.449C80.0509 156.466 79.133 156.419 78.218 156.455C77.323 156.49 76.4223 155.471 76.4527 154.633C76.4945 153.507 76.4641 152.378 76.4641 151.251C76.4346 151.239 76.4051 151.219 76.3757 151.219C74.7387 151.207 73.1018 151.215 71.4648 151.214C71.3564 151.214 71.2347 151.195 71.209 151.35C71.5134 151.648 71.7939 151.961 71.9005 152.389C71.9937 152.55 71.9452 152.725 71.9471 152.893C71.968 154.263 71.9147 155.633 71.9756 157.003C72.0726 157.189 71.9832 157.389 72.0527 157.593C72.3551 158.475 72.7908 159.255 73.5089 159.88C74.1547 160.443 74.9232 160.814 75.7374 160.839C78.0573 160.909 80.381 160.87 82.7027 160.865C83.4846 160.863 84.1818 160.584 84.8267 160.162C86.0099 159.387 86.6377 158.275 86.8488 156.908C86.8983 155.106 86.8507 153.305 86.8754 151.504C86.8792 151.175 86.6814 151.211 86.4731 151.211Z" fill="#F8F6E9"/>
<path d="M16.1935 153.995C16.1269 153.943 16.048 153.944 15.969 153.944C14.6441 153.944 13.32 153.944 11.9951 153.945C11.9038 153.945 11.8029 153.92 11.7345 154.012C11.7373 154.309 11.7468 154.606 11.743 154.902C11.7335 155.628 11.3597 156.096 10.6863 156.346C9.5392 156.428 8.39211 156.418 7.24501 156.35C6.47933 156.229 5.84967 155.562 5.83255 154.789C5.80782 153.707 5.81067 152.625 5.82399 151.543C5.82779 151.252 5.74219 151.17 5.44923 151.172C4.05674 151.187 2.6633 151.179 1.27081 151.179C0.917928 151.179 0.565049 151.179 0.130371 151.179C0.690602 151.61 1.1386 152.008 1.28127 152.633C1.35261 152.799 1.31646 152.974 1.31932 153.145C1.33739 154.461 1.28983 155.778 1.345 157.094C1.38304 157.689 1.61988 158.217 1.91759 158.72C2.68708 160.016 3.85605 160.78 5.34651 160.838C7.49517 160.921 9.64953 160.854 11.802 160.848C12.6818 160.846 13.5141 160.609 14.2198 160.115C15.5657 159.173 16.2353 157.857 16.1982 156.204C16.1811 155.469 16.1944 154.732 16.1935 153.995Z" fill="#F8F6E9"/>
<path d="M68.2829 151.275C68.2439 151.251 68.2144 151.215 68.1602 151.215C66.3359 151.207 64.5116 151.214 62.6873 151.214C62.6017 151.214 62.4837 151.192 62.5056 151.347C63.0335 151.634 63.5195 151.961 63.7316 152.56C63.802 153.359 63.7992 154.157 63.7326 154.956C63.5737 155.546 63.2332 155.998 62.6711 156.258C61.9263 156.603 61.1312 156.523 60.3759 156.366C59.8842 156.263 59.4933 155.9 59.4419 155.324C59.3458 154.5 59.4058 153.674 59.4067 152.849C59.4067 152.521 59.3116 152.425 58.9815 152.43C57.7365 152.448 56.4914 152.436 55.2464 152.44C55.1265 152.44 54.9914 152.391 54.8906 152.506C54.8916 153.868 54.8925 155.23 54.8935 156.592C54.9791 156.785 54.8916 156.997 54.9591 157.192C55.0514 157.358 55.0086 157.546 55.0637 157.727C55.3358 158.616 55.8142 159.333 56.5542 159.919C57.2295 160.453 57.9562 160.829 58.8141 160.845C60.5376 160.878 62.263 160.878 63.9865 160.861C64.6381 160.855 65.2715 160.72 65.8603 160.398C67.1529 159.69 67.9177 158.612 68.2163 157.192C68.2724 157.032 68.1935 156.856 68.2791 156.701C68.2801 154.892 68.281 153.083 68.2829 151.275Z" fill="#F8F6E9"/>
<path d="M90.8459 160.877C95.0529 160.862 99.2608 160.868 103.468 160.869C103.548 159.419 103.492 157.969 103.495 156.519C103.495 156.494 103.46 156.47 103.441 156.445C100.655 156.449 97.8702 156.453 95.0843 156.454C95.0244 156.454 94.9644 156.425 94.9045 156.41C94.8113 156.265 94.857 156.104 94.857 155.951C94.8532 154.509 94.8532 153.066 94.856 151.623C94.856 151.394 94.8817 151.203 94.5288 151.206C92.8681 151.223 91.2064 151.211 89.5448 151.217C89.4592 151.217 89.2975 151.142 89.3165 151.346C89.9985 151.738 90.3542 152.327 90.3561 153.107C90.3618 155.537 90.3685 157.966 90.3485 160.397C90.3447 160.796 90.4607 160.877 90.8459 160.877Z" fill="#F8F6E9"/>
<path d="M144.159 151.214C141.41 151.211 138.66 151.212 135.91 151.213C135.802 151.213 135.688 151.19 135.588 151.257C135.611 151.391 135.627 151.528 135.662 151.658C136.013 152.95 136.373 154.241 136.72 155.535C137.169 157.207 137.624 158.877 138.039 160.557C138.109 160.844 138.211 160.873 138.454 160.872C140.323 160.864 142.191 160.855 144.059 160.877C144.449 160.882 144.518 160.76 144.517 160.405C144.508 157.362 144.517 154.318 144.522 151.275C144.414 151.171 144.28 151.214 144.159 151.214Z" fill="#F8F6E9"/>
<path d="M46.546 160.442C46.6231 160.739 46.7524 160.884 47.1167 160.879C48.9515 160.854 50.7863 160.858 52.6211 160.877C52.9854 160.88 53.09 160.796 53.0872 160.421C53.071 157.364 53.0786 154.307 53.0786 151.25C52.9911 151.201 52.8941 151.212 52.8009 151.212C50.0197 151.211 47.2375 151.211 44.4563 151.213C44.3508 151.213 44.2319 151.175 44.1472 151.28C44.4021 152.236 44.6608 153.191 44.91 154.148C45.4589 156.245 46.0029 158.344 46.546 160.442Z" fill="#F8F6E9"/>
<path d="M70.8922 150.264C72.6585 150.268 74.4238 150.267 76.1901 150.266C76.2833 150.266 76.3803 150.282 76.4621 150.216C76.4631 145.096 76.464 139.976 76.465 134.857C76.3137 134.788 76.153 134.821 75.997 134.821C74.8271 134.818 73.6572 134.819 72.4873 134.819C71.9508 134.819 71.9508 134.82 71.9499 135.348C71.9499 139.876 71.9508 144.405 71.947 148.934C71.947 149.102 71.9955 149.279 71.8994 149.44C71.362 149.516 70.8132 149.569 70.5298 150.137C70.5964 150.326 70.7619 150.264 70.8922 150.264Z" fill="#F8F6E9"/>
<path d="M121.916 134.819C121.381 134.819 121.38 134.82 121.38 135.347C121.38 139.876 121.381 144.405 121.377 148.933C121.377 149.102 121.426 149.278 121.329 149.44C120.801 149.523 120.255 149.573 119.972 150.132C120.026 150.34 120.2 150.263 120.324 150.264C122.089 150.269 123.854 150.268 125.619 150.267C125.712 150.267 125.809 150.283 125.891 150.217C125.892 145.098 125.893 139.978 125.893 134.858C125.742 134.789 125.581 134.822 125.425 134.822C124.256 134.817 123.086 134.819 121.916 134.819Z" fill="#F8F6E9"/>
<path d="M144.111 134.821C142.893 134.816 141.674 134.831 140.456 134.81C140.105 134.804 140.002 134.891 140.002 135.251C140 140.113 140.042 144.975 139.984 149.837C139.984 149.878 139.985 149.916 139.988 149.95C139.964 149.892 139.931 149.824 139.886 149.746C139.594 148.692 139.295 147.64 139.012 146.583C138.227 143.652 137.43 140.722 136.676 137.782C136.432 136.828 136.101 135.892 135.961 134.912C135.89 134.748 135.742 134.822 135.631 134.822C133.663 134.817 131.694 134.818 129.726 134.82C129.62 134.82 129.503 134.787 129.414 134.881C129.418 135.633 129.425 136.385 129.426 137.137C129.427 141.055 129.424 144.972 129.432 148.891C129.433 149.246 129.417 149.482 128.954 149.504C128.539 149.523 128.201 149.768 127.971 150.128C128.028 150.371 128.227 150.26 128.357 150.261C130.063 150.269 131.768 150.252 133.473 150.276C133.877 150.282 133.933 150.129 133.93 149.787C133.916 148.222 133.92 146.657 133.93 145.092C133.931 144.952 133.809 144.749 134.051 144.664C134.22 145.332 134.386 146.001 134.56 146.667C134.869 147.85 135.184 149.032 135.496 150.213C135.537 150.234 135.573 150.263 135.625 150.264C136.985 150.269 138.344 150.269 139.705 150.262C139.923 150.261 140.025 150.217 140.025 150.101C140.085 150.234 140.218 150.281 140.457 150.275C141.675 150.249 142.894 150.267 144.112 150.263C144.247 150.262 144.4 150.319 144.517 150.198C144.514 148.835 144.507 147.472 144.508 146.11C144.51 142.367 144.516 138.624 144.519 134.881C144.399 134.771 144.248 134.822 144.111 134.821Z" fill="#F8F6E9"/>
<path d="M48.9238 150.264C49.9016 150.269 50.8803 150.273 51.8581 150.263C52.2643 150.258 52.6742 150.321 53.0766 150.216C53.0775 145.096 53.0785 139.976 53.0794 134.857C52.8968 134.783 52.7056 134.818 52.5192 134.821C51.2161 134.841 49.9111 134.769 48.609 134.857C48.609 139.791 48.6099 144.725 48.609 149.659C48.609 149.783 48.5957 149.907 48.5881 150.033C48.5376 150.339 48.7707 150.263 48.9238 150.264Z" fill="#F8F6E9"/>
<path d="M89.2658 125.171C90.7686 125.148 92.2724 125.161 93.7762 125.161C94.4116 125.161 94.4116 125.161 94.4116 124.553C94.4154 120.773 94.4201 116.993 94.4239 113.214C94.3849 113.189 94.3554 113.154 94.3012 113.154C92.1288 113.146 89.9563 113.153 87.7839 113.153C87.6992 113.153 87.5794 113.129 87.6032 113.285C88.4915 113.866 88.8606 114.673 88.8492 115.737C88.8149 118.733 88.8435 121.729 88.8292 124.725C88.8273 125.068 88.8996 125.176 89.2658 125.171Z" fill="#F8F6E9"/>
<path d="M89.3395 150.262C91.0478 150.268 92.7561 150.257 94.4644 150.274C94.7868 150.277 94.861 150.175 94.86 149.873C94.8515 144.983 94.8515 140.092 94.861 135.201C94.8619 134.884 94.7602 134.808 94.4539 134.812C93.1889 134.828 91.9238 134.818 90.6578 134.821C90.5513 134.821 90.4334 134.788 90.344 134.882C90.3478 139.677 90.3525 144.473 90.3563 149.268C90.3563 149.284 90.3554 149.299 90.3563 149.315C90.3715 149.476 90.3363 149.576 90.1385 149.591C89.6924 149.624 89.3196 149.826 88.999 150.128C89.0409 150.348 89.2206 150.262 89.3395 150.262Z" fill="#F8F6E9"/>
<path d="M137.475 124.828C137.556 125.107 137.667 125.165 137.918 125.164C139.549 125.158 141.181 125.154 142.812 125.168C143.112 125.171 143.149 125.087 143.068 124.827C142.385 122.647 141.707 120.465 141.034 118.281C140.513 116.585 140.002 114.886 139.488 113.188C139.458 113.177 139.429 113.156 139.399 113.156C137.667 113.145 135.935 113.152 134.203 113.151C134.097 113.151 133.972 113.128 133.949 113.287C134.12 113.897 134.275 114.511 134.464 115.115C134.859 116.374 135.283 117.624 135.674 118.884C136.289 120.861 136.896 122.841 137.475 124.828Z" fill="#F8F6E9"/>
<path d="M19.437 114.855C19.5083 115.021 19.474 115.196 19.474 115.367C19.476 118.46 19.4817 121.552 19.4683 124.645C19.4664 125.004 19.5454 125.128 19.9354 125.122C21.4876 125.098 23.0399 125.099 24.5922 125.121C24.9831 125.126 25.0935 125.023 25.0916 124.63C25.0764 120.925 25.083 117.22 25.0802 113.515C25.0802 113.378 25.1192 113.232 25.0307 113.104C22.727 113.104 20.4233 113.104 18.1187 113.104C18.8235 113.511 19.1982 114.131 19.437 114.855Z" fill="#F8F6E9"/>
<path d="M131.6 113.144C129.497 113.157 127.394 113.15 125.29 113.155C125.208 113.155 125.041 113.072 125.065 113.283C125.728 113.627 126.015 114.25 126.273 114.893C126.366 115.054 126.32 115.23 126.32 115.399C126.323 118.483 126.322 121.568 126.324 124.652C126.324 124.822 126.289 124.997 126.36 125.163C128.199 125.162 130.038 125.161 131.877 125.16C131.974 125 131.925 124.823 131.925 124.654C131.929 122.93 131.928 121.206 131.928 119.482C131.928 117.507 131.926 115.532 131.93 113.557C131.931 113.323 131.945 113.141 131.6 113.144Z" fill="#F8F6E9"/>
<path d="M42.3987 151.215C40.7741 151.207 39.1505 151.214 37.5259 151.212C37.4156 151.212 37.2977 151.201 37.2634 151.347C37.6363 151.635 37.817 152.042 37.9682 152.467C38.051 152.631 38.0091 152.806 38.0101 152.976C38.0129 155.436 38.011 157.896 38.0139 160.357C38.0139 160.527 37.9787 160.702 38.05 160.868C39.3769 160.868 40.7047 160.851 42.0316 160.876C42.4292 160.884 42.5214 160.774 42.5195 160.386C42.5062 157.349 42.5176 154.311 42.5224 151.273C42.4834 151.25 42.4539 151.215 42.3987 151.215Z" fill="#F8F6E9"/>
<path d="M109.942 160.876C111.144 160.853 112.348 160.855 113.55 160.876C113.906 160.882 114.023 160.809 114.022 160.425C114.004 157.367 114.012 154.309 114.013 151.25C112.227 151.165 110.44 151.233 108.653 151.215C108.57 151.214 108.494 151.231 108.519 151.345C109.2 151.721 109.534 152.32 109.539 153.069C109.554 155.531 109.551 157.994 109.537 160.456C109.534 160.775 109.596 160.883 109.942 160.876Z" fill="#F8F6E9"/>
<path d="M121.43 160.866C122.777 160.866 124.123 160.851 125.469 160.877C125.839 160.885 125.903 160.773 125.901 160.433C125.888 157.372 125.893 154.311 125.894 151.25C125.865 151.238 125.835 151.218 125.806 151.218C124.17 151.206 122.534 151.214 120.897 151.213C120.791 151.213 120.665 151.187 120.647 151.35C121.035 151.583 121.101 152.032 121.337 152.368C121.416 152.533 121.376 152.708 121.376 152.878C121.379 155.372 121.377 157.866 121.381 160.36C121.383 160.529 121.333 160.705 121.43 160.866Z" fill="#F8F6E9"/>
<path d="M133.596 151.205C132.033 151.222 130.468 151.211 128.903 151.218C128.827 151.218 128.655 151.127 128.686 151.342C129.171 151.811 129.439 152.355 129.433 153.051C129.415 155.512 129.433 157.972 129.418 160.432C129.416 160.774 129.486 160.885 129.853 160.878C131.197 160.855 132.541 160.87 133.885 160.87C133.965 160.546 133.92 160.216 133.921 159.889C133.925 157.149 133.923 154.409 133.923 151.667C133.923 151.439 133.993 151.201 133.596 151.205Z" fill="#F8F6E9"/>
<path d="M154.498 145.886C154.417 147.304 154.475 148.722 154.47 150.141C154.47 150.166 154.505 150.191 154.524 150.216C157.206 150.216 159.888 150.216 162.569 150.216C162.691 148.773 162.641 147.33 162.595 145.886C159.896 145.886 157.197 145.886 154.498 145.886Z" fill="#F8F6E9"/>
<path d="M144.827 97.6528C144.79 97.5029 144.747 97.354 144.715 97.2032C144.476 96.0644 143.899 95.1265 143.043 94.3346C142.167 93.5239 141.111 93.127 139.959 92.9234C139.805 92.8725 139.645 92.8961 139.489 92.8961C135.28 92.8942 131.071 92.8951 126.862 92.8951C126.324 92.8951 126.323 92.8961 126.323 93.423C126.323 99.1781 126.323 104.934 126.32 110.689C126.32 110.858 126.367 111.034 126.273 111.196C126.209 111.234 126.144 111.307 126.08 111.306C125.49 111.298 125.04 111.572 124.648 111.973C124.742 112.246 124.973 112.103 125.129 112.104C129.74 112.114 134.352 112.112 138.964 112.112C139.105 112.112 139.248 112.129 139.388 112.09C140.964 112.032 142.305 111.442 143.388 110.307C144.204 109.452 144.613 108.398 144.829 107.26C144.877 107.107 144.854 106.95 144.855 106.794C144.857 103.903 144.857 101.012 144.855 98.1204C144.855 97.963 144.879 97.8055 144.827 97.6528ZM139.316 104.843C139.275 105.943 138.431 106.695 137.329 106.706C135.637 106.724 133.944 106.703 132.252 106.719C131.947 106.721 131.888 106.618 131.891 106.34C131.905 105.07 131.896 103.8 131.896 102.53C131.896 101.276 131.905 100.022 131.89 98.768C131.886 98.4824 131.956 98.3947 132.255 98.3976C133.932 98.4117 135.609 98.3947 137.285 98.4079C138.414 98.4164 139.274 99.163 139.316 100.284C139.375 101.802 139.373 103.325 139.316 104.843Z" fill="#F8F6E9"/>
<path d="M86.4652 134.819C85.2781 134.832 84.0911 134.84 82.904 134.815C82.5188 134.807 82.3961 134.895 82.399 135.299C82.4189 137.715 82.4085 140.131 82.4085 142.546C82.4085 144.977 82.4132 147.409 82.4028 149.84C82.4018 150.134 82.4618 150.247 82.788 150.241C84.0226 150.221 85.2572 150.227 86.4918 150.238C86.7496 150.241 86.8437 150.183 86.8428 149.905C86.8342 144.995 86.8342 140.085 86.8437 135.175C86.8447 134.873 86.7429 134.815 86.4652 134.819Z" fill="#F8F6E9"/>
</g>
<defs>
<clipPath id="clip0">
<rect width="162.645" height="188" fill="white"/>
</clipPath>
</defs>
</svg>
