<svg width="108" height="80" viewBox="0 0 108 80" fill="none" xmlns="http://www.w3.org/2000/svg">
<path d="M94.7548 75.5398C94.7611 75.308 94.6382 75.2626 94.4476 75.3248C94.3886 75.344 94.3535 75.349 94.3209 75.2962C94.1893 75.1862 94.0175 75.3055 93.8814 75.221C93.4212 75.2384 92.9592 75.2769 92.5078 75.1452C92.3416 75.116 92.1755 75.1135 92.0093 75.1471C91.7911 75.1986 91.5855 75.1371 91.3798 75.08C91.1899 75.0315 90.9905 75.1036 90.8012 75.0377C90.3711 75.0756 89.9334 74.9594 89.5077 75.0967C89.245 74.96 88.9667 74.9911 88.6883 75.0203C88.3949 75.0632 88.1015 75.0452 87.808 75.0203C87.6632 74.9669 87.504 75.0421 87.361 74.9731C87.2594 74.9675 87.1579 74.9619 87.0563 74.9563C86.951 74.9134 86.8319 74.9687 86.7284 74.9128C86.6287 74.906 86.529 74.8998 86.4293 74.8929C86.2181 74.8451 85.9986 74.9159 85.788 74.8507C85.6325 74.8463 85.4864 74.942 85.3491 74.9389C85.0632 74.9333 84.7735 74.7289 84.4989 74.9843C84.4857 74.9967 84.4281 74.9861 84.413 74.9687C84.2444 74.768 84.0174 74.8513 83.8162 74.8594C83.6193 74.8668 83.4268 74.8619 83.2337 74.8296C82.9384 74.7811 82.6368 74.8569 82.3422 74.7885C82.013 74.7823 81.6838 74.7761 81.3547 74.7705C81.1885 74.7438 81.0224 74.7401 80.8569 74.7736C80.7936 74.7879 80.7378 74.883 80.665 74.7898C80.544 74.7245 80.418 74.7506 80.2926 74.7711C80.1246 74.8246 79.9559 74.7811 79.7879 74.7724C79.5077 74.7326 79.2255 74.7618 78.9446 74.7544C78.2989 74.7376 77.6525 74.7854 77.0073 74.7283C76.9308 74.732 76.8525 74.7519 76.7822 74.7028C76.6562 74.645 76.5308 74.6425 76.4061 74.7071C76.3014 74.7071 76.196 74.7071 76.0913 74.7071C75.9471 74.6587 75.7904 74.7326 75.6487 74.6618C75.4499 74.6282 75.2568 74.6866 75.0738 74.7339C74.6543 74.8426 74.2506 74.6375 73.838 74.7034C73.7214 74.6046 73.5973 74.5934 73.4662 74.6742C73.4161 74.7345 73.3835 74.8264 73.2738 74.7755C73.2217 74.7196 73.2286 74.5704 73.0857 74.6599C73.0023 74.7562 72.9189 74.7513 72.8342 74.6618C72.6907 74.6028 72.544 74.6276 72.3979 74.6481C72.1458 74.6021 71.8907 74.8532 71.6405 74.6394C71.1621 74.6264 70.6838 74.6164 70.206 74.6444C70.0581 74.6966 69.9101 74.7954 69.7621 74.6456C69.638 74.6214 69.5145 74.6195 69.3903 74.6469C69.2875 74.6525 69.1822 74.673 69.0819 74.6605C68.3684 74.5717 67.6511 74.6307 66.9364 74.5972C66.8104 74.5909 66.6894 74.6021 66.5765 74.663C66.4844 74.719 66.4217 74.6823 66.374 74.6003C66.1903 74.5891 66.0173 74.6003 65.8517 74.7065C65.7546 74.7693 65.6342 74.7997 65.5013 74.7718C65.253 74.719 65.001 74.6866 64.7502 74.6463C64.6235 74.6034 64.485 74.6636 64.3596 74.604C64.1558 74.5984 63.9521 74.5928 63.7483 74.5872C63.5615 74.5549 63.3746 74.563 63.1878 74.5829C62.8937 74.6773 62.5997 74.7196 62.3063 74.5829C61.7019 74.563 61.0975 74.5518 60.4931 74.5891C60.3037 74.6419 60.1144 74.604 59.9257 74.5847C59.7683 74.5841 59.5821 74.4835 59.4887 74.7078C59.4711 74.7221 59.4511 74.7252 59.4298 74.7177C59.3953 74.6953 59.3558 74.6835 59.3188 74.668C59.253 74.6518 59.1865 74.6407 59.12 74.6301C59.0918 74.6295 59.0674 74.6376 59.0461 74.6556C58.9 74.6972 58.7551 74.6699 58.6103 74.6481C58.5088 74.6021 58.3909 74.6668 58.2924 74.6009C58.1896 74.5953 58.0862 74.5897 57.9834 74.5841C57.8793 74.563 57.7758 74.5537 57.673 74.5909C57.2818 74.5785 56.8937 74.6003 56.4987 74.5642C55.8391 74.5046 55.1557 74.471 54.5087 74.5804C53.925 74.6792 53.3595 74.6624 52.7833 74.6475C52.5758 74.5934 52.3582 74.6748 52.1526 74.6003C51.9871 74.5953 51.8216 74.5903 51.6554 74.5854C51.4868 74.535 51.3068 74.6065 51.1394 74.5419C50.8836 74.5487 50.6234 74.632 50.3871 74.6351C50.0184 74.64 49.6391 74.6419 49.2654 74.6034C48.999 74.576 48.7287 74.5909 48.4598 74.5872C48.2109 74.5537 47.962 74.5655 47.7124 74.5798C47.5682 74.7444 47.4109 74.5798 47.2579 74.5916C46.698 74.6357 46.135 74.6823 45.5745 74.581C45.4259 74.5754 45.2698 74.5182 45.1394 74.6407C45.0798 74.6755 45.0334 74.673 45.0146 74.5959C44.7237 74.5437 44.4315 74.5661 44.14 74.5829C44.1174 74.5854 44.0955 74.5885 44.0729 74.5909C43.4685 74.5493 42.8635 74.5599 42.2585 74.5854C42.0052 74.6208 41.7475 74.576 41.4948 74.6587C41.1839 74.76 40.8791 74.5978 40.5682 74.5984C39.9437 74.5996 39.3199 74.6009 38.6954 74.6021C38.5249 74.6462 38.355 74.6525 38.1851 74.5984C38.1638 74.5984 38.1424 74.5984 38.1205 74.5984C37.9713 74.6649 37.8139 74.6264 37.6603 74.6289C36.5192 74.6444 35.3782 74.6059 34.2377 74.6494C33.901 74.6419 33.575 74.8184 33.2321 74.7084C32.8991 74.6835 32.5662 74.6804 32.2333 74.7096C31.8703 74.8103 31.5048 74.7457 31.1386 74.7332C30.6295 74.7158 30.1198 74.727 29.6101 74.7264C29.2339 74.7997 28.8508 74.7171 28.474 74.7718C28.1543 74.7761 27.8352 74.7817 27.5154 74.7842C27.2264 74.7867 26.938 74.801 26.6533 74.8538C26.343 74.7786 26.0301 74.8221 25.7179 74.8314C25.2132 74.8047 24.7185 74.9979 24.2107 74.8985C24.0452 74.8656 23.879 74.8718 23.7129 74.8948C23.6615 74.8998 23.6107 74.9072 23.5593 74.9085C22.9712 74.9252 22.3825 74.9513 21.7937 74.9153C21.5423 74.9998 21.2696 74.865 21.0219 74.9905C20.9342 75.0793 20.8414 75.052 20.7442 75.0054C20.5969 74.9352 20.4006 74.9203 20.294 74.9843C19.9837 75.1707 19.6884 75.0582 19.3849 75.0185C19.2194 74.993 19.0533 74.993 18.8878 75.0185C18.6608 75.0247 18.4338 75.0303 18.2062 75.0365C17.9774 75.1085 17.7392 75.0296 17.5091 75.0806C16.8652 75.1552 16.2206 75.2235 15.5705 75.1589C15.4507 75.2291 15.3122 75.1545 15.1899 75.208C14.9611 75.2583 14.7398 75.3987 14.4965 75.2639C14.3517 75.244 14.2075 75.2421 14.0633 75.2651C13.9705 75.2701 13.8952 75.3062 13.8445 75.3857C13.593 75.1639 13.2927 75.3416 13.0213 75.2875C12.8927 75.3478 12.7466 75.2751 12.6194 75.3403L12.6175 75.3416C12.4708 75.3366 12.425 75.4975 12.3021 75.5317C12.2633 75.5106 12.225 75.4895 12.1868 75.4683C12.1197 75.7138 12.1535 75.9623 12.1673 76.2102C12.2288 76.3768 12.1811 76.5439 12.1717 76.7105C12.1391 76.9578 12.141 77.2051 12.1711 77.4524C12.2382 77.5984 12.336 77.7444 12.1711 77.8904C12.1404 78.1794 12.1404 78.4677 12.1711 78.7566C12.3341 78.8629 12.0727 78.9654 12.1686 79.0704C12.1422 79.255 12.1448 79.4401 12.1667 79.6253C12.2137 79.7459 12.1673 79.8857 12.2457 80C12.2877 80 12.3291 80 12.3711 80C13.1071 79.78 13.8495 79.58 14.5956 79.3998C15.3228 79.2239 16.0576 79.058 16.8006 78.9673C17.321 78.9039 17.6928 78.7367 17.8012 78.1918C17.8338 78.0849 17.9191 78.0352 18.01 77.9774C18.3812 77.7413 18.6169 77.3281 19.0715 77.2138C19.1041 77.3126 19.1436 77.4418 19.1611 77.5742C19.195 77.8283 19.1097 77.8873 18.8508 77.7991C18.899 77.6798 19.0997 77.5481 18.9066 77.4387C18.7285 77.3374 18.6031 77.4959 18.5266 77.6556C18.4859 77.7394 18.4652 77.8302 18.4439 77.9209C18.4238 78.0097 18.4244 78.1067 18.3479 78.1788C18.2439 78.1775 18.2094 78.0595 18.1166 78.0421C17.9887 78.0178 17.8551 77.988 17.8671 78.1918C18.0539 78.5938 18.2733 78.7355 18.5768 78.6112C18.7116 78.5559 18.8288 78.5547 18.9655 78.564C19.3273 78.5882 19.4752 78.4932 19.5348 78.2285C19.6012 77.9302 19.6012 77.9302 19.9887 78.0576C19.7737 78.0651 19.6069 78.0986 19.6646 78.3061C19.7197 78.5031 19.8896 78.4422 20.032 78.4211C20.0733 78.4149 20.0213 78.4205 20.0627 78.4143C20.4771 78.354 20.8859 78.2726 21.3053 78.2334C22.321 78.139 23.3417 78.0806 24.3492 77.906C24.5223 77.8761 24.6815 77.7687 24.8665 77.8084C25.1474 77.8693 25.4239 77.8208 25.7047 77.8047C26.143 77.7792 26.5725 77.6947 27.0057 77.6574C27.6433 77.6027 28.2878 77.617 28.9286 77.5996C29.7994 77.576 30.669 77.5151 31.5405 77.545C31.8208 77.5543 32.0784 77.394 32.3355 77.4194C32.7844 77.4642 33.2195 77.4207 33.664 77.4027C34.6515 77.3635 35.6409 77.2274 36.6271 77.2921C37.3857 77.3418 38.1249 77.105 38.8835 77.2237C39.212 77.2747 39.545 77.1585 39.881 77.1653C40.6296 77.1802 41.3801 77.0659 42.1274 77.1715C42.8058 77.2672 43.4785 77.0037 44.1563 77.1578C44.2152 77.1715 44.2811 77.1498 44.3425 77.138C44.518 77.1038 44.7017 77.0777 44.8723 77.1125C45.6867 77.2796 46.5074 76.9317 47.3193 77.1516C47.3488 77.1597 47.3814 77.1479 47.4127 77.146C48.3187 77.1056 49.2203 77.0205 50.1325 77.092C50.9419 77.1554 51.7595 77.1137 52.5727 77.0901C53.3839 77.0665 54.194 77.0771 55.0034 77.1249C55.1394 77.133 55.273 77.1305 55.409 77.123C56.1996 77.0808 56.9921 77.1175 57.7821 77.0839C58.2216 77.0653 58.6423 77.1821 59.0862 77.1554C59.8755 77.1075 60.6686 77.0938 61.4592 77.0516C61.7815 77.0342 62.0749 77.1479 62.3865 77.1703C63.5727 77.256 64.7608 77.2082 65.9477 77.2299C66.0624 77.2318 66.1778 77.1926 66.2906 77.2187C66.7809 77.3325 67.2819 77.3374 67.779 77.3498C68.6524 77.3716 69.5264 77.3001 70.3997 77.4114C71.0913 77.499 71.7891 77.4679 72.4857 77.4729C73.0192 77.4766 73.5622 77.5406 74.097 77.5885C74.9264 77.6624 75.7584 77.6232 76.5854 77.7102C76.9791 77.7519 77.3841 77.6599 77.7722 77.7189C78.6312 77.8488 79.4983 77.814 80.3591 77.901C81.6763 78.034 82.9936 78.1682 84.3115 78.2999C85.0632 78.3751 85.8149 78.3801 86.5698 78.5118C87.5585 78.6839 88.5585 78.8244 89.561 78.9294C90.0149 78.9772 90.4513 79.1375 90.9059 79.2015C91.3441 79.2631 91.8281 79.1288 92.1993 79.4917C92.225 79.5172 92.2789 79.511 92.3203 79.5178C92.6614 79.5731 92.9993 79.6185 93.3391 79.4892C93.5316 79.4159 93.6695 79.447 93.7153 79.6999C93.756 79.9236 93.9222 79.9938 94.1379 79.8745C94.1441 79.6806 94.2865 79.7564 94.3874 79.7502C94.4394 79.6881 94.5661 79.7645 94.5836 79.6614C94.5962 79.5868 94.4902 79.6104 94.4545 79.5663C94.3554 79.4731 94.3642 79.3637 94.4538 79.2867C94.5849 79.1742 94.5692 79.3761 94.6457 79.3929C94.7843 79.3743 94.7247 79.273 94.7291 79.1984C94.7153 78.9884 94.7021 78.7778 94.6883 78.5677C94.7655 78.5174 94.7354 78.4391 94.736 78.372C94.7366 77.9029 94.7423 77.4344 94.7341 76.9652C94.704 76.9397 94.704 76.9143 94.7341 76.8888C94.7567 76.6353 94.7053 76.3786 94.7636 76.1264C94.756 75.9306 94.7491 75.7349 94.7548 75.5398Z" fill="white"/>
<path d="M12.2648 3.87096C12.4259 3.8809 12.5864 3.94428 12.5463 4.16177C12.5294 4.25373 12.4259 4.38111 12.5595 4.41529C12.6962 4.45071 12.8855 4.49793 12.9789 4.29971C13.0817 4.24192 13.2015 4.30095 13.3062 4.25373C13.4341 4.1512 13.3137 4.14002 13.2523 4.09776C13.1607 4.035 13.1513 3.93993 13.2153 3.8604C13.2811 3.77837 13.3651 3.78459 13.4529 3.85605C13.6353 4.00331 13.7068 4.16301 13.5463 4.36868C13.5864 4.54205 13.7526 4.40908 13.8328 4.48488C14.0165 4.44636 14.1965 4.64333 14.3821 4.49358C14.4009 4.47929 14.4209 4.46748 14.4435 4.45816C14.5181 4.46189 14.4548 4.53708 14.4968 4.55758C14.5777 4.60232 14.6617 4.58679 14.7463 4.57063C15.0611 4.59114 15.3758 4.61226 15.6905 4.63277C15.8366 4.67626 15.9927 4.60853 16.1363 4.67564C16.3432 4.66073 16.5501 4.62283 16.7545 4.69056C16.9006 4.71479 17.046 4.72784 17.1909 4.68372C17.3388 4.68807 17.4862 4.69304 17.6341 4.69739C17.7996 4.71231 17.9652 4.72349 18.1301 4.69056C18.4235 4.64769 18.7169 4.65949 19.0103 4.69056C19.1576 4.74276 19.3169 4.6713 19.463 4.73592C19.6047 4.74213 19.7464 4.74772 19.8881 4.75394C20.053 4.80551 20.2304 4.72846 20.3934 4.80116C20.5595 4.80738 20.7257 4.81297 20.8912 4.81918C21.058 4.83347 21.2254 4.85957 21.3896 4.80178C21.5658 4.66073 21.7257 4.85087 21.8962 4.82478C22.0404 4.82229 22.1884 4.87138 22.3282 4.79557C22.574 4.8167 22.8204 4.83845 23.0661 4.85957C23.2047 4.81483 23.3433 4.82167 23.4818 4.85833C23.5577 4.86454 23.6335 4.87138 23.71 4.87759C24.1727 4.93414 24.6398 4.84901 25.1025 4.92171C25.8079 4.92109 26.5138 4.89499 27.2192 4.93973C27.3213 4.9708 27.4267 4.95589 27.5301 4.95589C28.3032 4.95713 29.0756 4.95775 29.8486 4.95589C29.9853 4.95526 30.1251 4.93787 30.1784 5.10875C30.4568 4.99752 30.7414 4.93787 31.0411 5.00187C31.4831 5.06028 31.9151 4.92109 32.3546 4.93227C32.7289 4.99938 33.1076 5.18083 33.4668 4.87325C33.5089 4.83721 33.6342 4.84839 33.6073 4.96148C33.5847 5.05717 33.6656 5.04909 33.6788 5.0348C33.8737 4.82043 34.06 5.06587 34.2474 5.03915C34.6104 4.98696 34.9615 4.96769 35.3371 5.02672C36.0462 5.13795 36.7703 4.96086 37.4876 5.04971C37.6167 5.00311 37.7459 5.00249 37.875 5.04971C37.9365 5.05469 37.9979 5.05966 38.0594 5.06463C38.4387 5.10253 38.8186 5.07146 39.1986 5.08203C39.3076 5.08513 39.4305 5.05034 39.502 5.17461C39.8249 5.0609 40.1622 5.02486 40.5001 4.99628C40.5898 5.10688 40.6957 5.10875 40.8124 5.04226C40.8443 4.95527 40.7522 4.70112 40.9396 4.82353C41.1885 4.98633 41.4525 4.91798 41.6945 5.0056C41.8638 5.04971 42.0418 4.98198 42.2086 5.04661C42.3001 5.04599 42.3911 5.04536 42.4826 5.04536C42.6531 4.98633 42.8324 5.03232 43.0055 5.00435C43.171 4.97764 43.3152 5.1976 43.4907 5.04474C43.5541 5.01864 43.5578 4.98012 43.5165 4.93103C43.5723 4.96086 43.5785 5.023 43.608 5.0696C43.6187 5.087 43.6324 5.10067 43.6525 5.10812C43.7277 5.08886 43.8036 5.0696 43.8788 5.05034C43.9923 4.99628 44.1071 5.01492 44.2218 5.04599C44.3177 5.05282 44.3961 5.1044 44.5058 5.10191C44.9252 5.09135 45.3459 5.11682 45.766 5.12925C45.9321 5.15473 46.0977 5.15473 46.2632 5.12925C46.3033 5.12366 46.3428 5.11744 46.3829 5.11185C46.492 5.06773 46.6005 5.06463 46.7096 5.1131C46.8218 5.09259 46.7829 5.30199 46.8268 5.24048C46.9911 5.0087 47.2939 5.20319 47.4557 5.00994C47.5685 5.08265 47.6707 5.20319 47.8256 5.09135C48.1378 4.96645 48.4594 5.13236 48.7735 5.06276C48.9817 5.12304 49.2011 5.04039 49.4087 5.11185C49.6118 4.91612 49.9873 5.25601 50.161 4.81235C50.0701 5.17399 50.2833 5.11185 50.4413 5.11434C50.6181 5.11744 50.7961 5.12677 50.9711 5.10999C51.0507 5.10191 51.2557 5.22805 51.1836 4.95837C51.1648 4.88754 51.3021 4.93041 51.3629 4.93352C51.4369 4.93725 51.5316 4.87884 51.5855 4.97764C51.6839 5.15721 51.6852 5.1597 51.8269 4.99317C51.8519 4.96334 51.8814 4.91053 51.8921 4.96894C51.9441 5.25166 52.1717 5.12366 52.2783 5.09383C52.4657 5.04102 52.6451 5.04909 52.8294 5.04847C52.9535 4.98633 53.0933 5.05282 53.2193 5.00249C53.4921 4.95589 53.7648 4.98882 54.0369 5.0056C54.225 5.05468 54.4225 4.98012 54.6087 5.04971C54.773 5.05531 54.9372 5.0609 55.1021 5.06587C55.2708 5.1162 55.4501 5.04412 55.6175 5.10999C55.9009 5.10253 56.1899 5.01119 56.4507 5.00932C56.7341 5.00746 57.0394 5.00622 57.3341 5.04536C57.6307 5.08451 57.9347 5.06338 58.2357 5.06898C58.5479 5.08886 58.8601 5.09943 59.1717 5.06276C59.4833 5.00063 59.8081 5.03045 60.1147 5.03045C60.3065 5.03045 60.5498 4.86703 60.741 5.05841C60.8432 5.10067 60.9473 5.08575 61.0514 5.06898C61.1385 5.05344 61.2263 5.0261 61.3109 5.07954C61.4533 5.05903 61.6075 5.14292 61.7385 5.03107C61.8106 4.95899 61.8226 5.07395 61.8715 5.07333C62.1611 5.09135 62.4508 5.08637 62.7404 5.07581C62.763 5.07084 62.7862 5.06649 62.8088 5.06152C63.6483 5.09135 64.4871 5.11123 65.326 5.04723C65.5774 4.95527 65.8232 5.02983 66.0696 5.0727C66.7781 5.08575 67.4865 5.09632 68.1944 5.06711C69.6759 5.0056 71.158 5.07333 72.6396 5.05096C72.7599 4.98012 72.9004 5.05655 73.0233 5.00063L73.0308 4.99503C73.165 4.91177 73.3186 4.9795 73.4584 4.93973C73.6088 4.9534 73.7599 4.96459 73.9104 4.98074C74.486 5.04288 75.0628 4.83285 75.6377 4.98633C76.1211 4.91736 76.6082 4.99379 77.0916 4.9447C77.2803 4.86641 77.4697 4.83658 77.6597 4.9416C77.9092 4.97018 78.1587 4.97204 78.4089 4.94097C79.0152 4.91798 79.6239 4.9447 80.2283 4.87759C80.5199 4.91239 80.8114 4.9068 81.103 4.8807C81.2904 4.87324 81.4779 4.87324 81.6641 4.85584C81.8127 4.84155 81.9349 4.80924 81.8747 4.59549C81.7932 4.30406 81.8773 4.2208 82.2208 4.20091C82.1343 4.33327 82.0697 4.47121 82.0315 4.62096C81.9669 4.8838 82.1362 4.84342 82.2929 4.81856C82.6885 4.81359 83.0842 4.80862 83.4798 4.80365C83.7694 4.72349 84.0697 4.81794 84.36 4.75208C84.4654 4.7527 84.5713 4.75269 84.6766 4.75332C84.9882 4.7906 85.3005 4.7788 85.6127 4.76015C86.281 4.69429 86.9488 4.61972 87.6215 4.69367C87.7249 4.72163 87.8284 4.72163 87.9318 4.69367C88.1751 4.68745 88.4177 4.68186 88.661 4.67564C88.8949 4.6104 89.1375 4.6831 89.372 4.63401C90.0146 4.55448 90.6585 4.49296 91.3074 4.55386C91.429 4.48861 91.5657 4.55323 91.6899 4.51098C91.925 4.52527 92.14 4.35005 92.3833 4.44201C92.5275 4.47991 92.673 4.46748 92.8184 4.44947C92.9469 4.45257 93.0002 4.37552 93.0598 4.27113C93.1463 4.11827 93.3024 4.14002 93.3883 4.29971C93.5256 4.48737 93.715 4.37801 93.8842 4.38546C94.1125 4.40037 94.3212 4.27237 94.5557 4.30096C94.6435 4.31152 94.7281 4.24503 94.7507 4.13939C94.7789 4.00642 94.6661 3.99275 94.5883 3.95423C94.5451 3.93248 94.483 3.94988 94.4504 3.88401C94.535 3.81939 94.7482 3.92626 94.7275 3.779C94.6943 3.54225 94.7256 3.31048 94.7112 3.07746C94.698 2.86868 94.409 2.65803 94.7131 2.44863C94.7651 2.41259 94.6974 2.38152 94.6974 2.34921C94.6999 2.00123 94.6473 1.7328 94.3005 1.48922C93.9582 1.24813 93.7864 0.802599 93.4504 0.502474C93.2466 0.32041 93.0635 0.303013 92.915 0.417968C92.7425 0.550942 92.5902 0.52422 92.4065 0.547211C91.8704 0.613699 91.3432 0.751645 90.8115 0.854794C90.6077 0.893941 90.4742 0.977827 90.508 1.27112C90.3814 0.838639 90.0993 0.999576 89.8616 1.03064C89.6203 1.06234 89.3275 1.05301 89.4046 1.50476C89.3513 1.12323 89.1149 1.20712 88.9137 1.21395C88.8616 1.21582 88.8096 1.21084 88.7576 1.20898C88.6572 1.27174 88.5387 1.20836 88.4359 1.25621C88.2134 1.29287 87.9876 1.31524 87.7952 1.4538C87.7657 1.47493 87.7155 1.55198 87.6717 1.48612C87.5582 1.31462 87.424 1.42584 87.2905 1.43702C87.1274 1.45132 86.9814 1.55757 86.8102 1.51781C86.5832 1.59486 86.345 1.50911 86.1168 1.56627C85.7249 1.63338 85.335 1.71416 84.9343 1.70546C84.834 1.76822 84.7155 1.70484 84.6127 1.75269C84.5318 1.75766 84.4509 1.76263 84.3701 1.7676C84.2484 1.83408 84.1099 1.76449 83.9864 1.8142C83.5845 1.86143 83.1832 1.91735 82.7801 1.95339C82.4296 1.98446 82.091 2.21934 81.7249 2.02236C81.7174 2.01801 81.7042 2.02112 81.6942 2.0236C81.3393 2.11184 80.9751 2.10935 80.6145 2.11246C80.3531 2.11495 80.113 2.25724 79.8484 2.20194C79.6365 2.16652 79.4227 2.10936 79.2227 2.24544C78.8076 2.2821 78.3964 2.20505 77.9832 2.20381C77.8597 2.26719 77.7199 2.19821 77.5951 2.25103C77.4195 2.25476 77.2434 2.26719 77.0678 2.25911C76.8039 2.24668 76.5368 2.43682 76.2759 2.24793C76.1963 2.21189 76.138 2.24854 76.086 2.30447C75.6107 2.23985 75.1412 2.24544 74.6759 2.38276C74.4684 2.44428 74.2747 2.58533 74.0383 2.51449C73.8496 2.58036 73.6502 2.50828 73.4596 2.55675C73.3336 2.67792 73.17 2.56358 73.064 2.59776C72.7073 2.71395 72.3505 2.59217 72.0044 2.64995C71.2395 2.77734 70.474 2.71893 69.7085 2.69904C69.3016 2.70712 68.9016 2.78541 68.4978 2.82456C68.3411 2.75 68.1837 2.7705 68.017 2.79474C67.7687 2.83078 67.5191 2.93144 67.2646 2.82332C67.1643 2.88608 67.0452 2.82145 66.943 2.87116C66.6909 2.8227 66.4408 3.02465 66.1887 2.87614C66.0439 2.83948 65.8966 2.94387 65.753 2.86806C65.5216 3.02216 65.2909 2.9333 65.0602 2.86744C64.7893 2.84569 64.5191 2.83326 64.2489 2.87427C64.1818 2.92585 64.1072 2.87054 64.0407 2.88608C63.7348 2.95629 63.3925 2.75062 63.1066 3.03272C63.0119 3.12593 62.9316 3.01222 62.9291 2.89043C62.7874 2.81586 62.6407 2.85314 62.4947 2.87054C62.4025 2.95629 62.2884 2.94759 62.1749 2.94324C61.6276 2.92336 61.0802 2.90099 60.5329 2.88421C60.4326 2.88111 60.3185 2.84817 60.2382 2.93765C60.1279 3.06069 59.9906 3.03334 59.8627 3.00227C59.5523 2.92647 59.2376 2.88608 58.9191 2.86557C58.8156 2.84444 58.7128 2.84258 58.61 2.86744C58.3579 2.8867 58.1059 2.90658 57.8532 2.92585C57.7498 2.90969 57.647 2.90099 57.5448 2.93268C57.3141 3.08927 57.0827 3.08243 56.852 2.93268C56.6664 2.89726 56.4796 2.91155 56.2934 2.92398C55.783 2.93082 55.2676 2.98239 54.7642 2.92647C54.4714 2.89416 54.2545 3.11723 53.9128 2.9942C53.5466 2.86246 53.0852 3.01222 52.667 2.99358C52.4852 2.9855 52.3002 2.94014 52.1134 2.94324C51.6206 2.95132 51.1253 2.99047 50.635 2.96002C50.062 2.9246 49.4933 3.0495 48.9228 2.95132C48.9516 3.03583 48.9698 3.1048 48.998 3.17005C49.0262 3.23653 48.9855 3.27195 48.9397 3.28811C48.919 3.29557 48.8588 3.25891 48.8532 3.23405C48.7817 2.92585 48.5027 2.96624 48.3096 2.96499C47.5723 2.96064 46.8343 3.01657 46.097 3.00538C45.8789 3.00227 45.6632 3.18682 45.4456 3.01781C45.3484 2.90969 45.3202 3.04329 45.2613 3.06938C45.0318 3.1135 44.8538 2.92833 44.6337 2.9302C44.5321 2.88421 44.4143 2.94884 44.3158 2.88297C43.9867 2.87738 43.6581 2.95132 43.329 2.88421C43.0312 2.9302 42.7334 2.9333 42.4356 2.88297C42.3434 2.88981 42.2506 2.89602 42.1697 2.90161C42.1766 3.02775 42.2625 3.1309 42.1967 3.2937C42.0914 2.8519 41.7722 2.85874 41.445 2.88297C41.218 2.95878 40.9804 2.87613 40.7515 2.92833C40.6895 2.93392 40.6274 2.93889 40.5653 2.94449C40.3616 2.85563 40.1566 2.78169 39.939 2.90223C39.996 2.99358 40.0531 3.0843 40.1183 3.18807C40.008 3.19614 39.9083 3.24275 39.8493 3.10853C39.7371 2.85315 39.512 2.8258 39.2669 2.82767C39.0506 2.82953 38.8343 2.81214 38.6174 2.80281C38.3885 2.78169 38.1603 2.77547 37.9321 2.80592C37.6387 2.84693 37.3452 2.83761 37.0518 2.80592C36.9465 2.76305 36.8274 2.81835 36.7239 2.76242C36.6242 2.75559 36.5246 2.74937 36.4249 2.74254C36.3189 2.70277 36.201 2.75559 36.097 2.70029C35.9553 2.69345 35.8142 2.68599 35.6725 2.67916C35.4612 2.6338 35.2418 2.70339 35.0317 2.63815C34.554 2.64995 34.0712 2.73446 33.6048 2.55488C33.4587 2.51076 33.302 2.57912 33.1584 2.51201C32.8656 2.63442 32.5778 2.54991 32.2888 2.49274C32.1866 2.45298 32.0706 2.51325 31.9715 2.44863C31.216 2.55613 30.4712 2.38152 29.7201 2.37033C29.6173 2.34486 29.5138 2.3461 29.411 2.36909C29.3107 2.37779 29.2355 2.46416 29.1226 2.44366C28.8424 2.3927 28.5602 2.35231 28.2793 2.30757C28.1734 2.26781 28.0555 2.32062 27.9514 2.26532C27.6643 2.35666 27.3715 2.23425 27.0831 2.28458C26.9533 2.15223 26.774 2.28645 26.6354 2.20318C26.0712 2.21064 25.5176 2.10066 24.9583 2.05902C24.7439 2.01118 24.522 2.08077 24.3082 2.01801C24.0793 2.04473 23.8649 1.95463 23.6423 1.9335C23.5389 1.89498 23.4223 1.95153 23.3213 1.89063C23.2197 1.88442 23.1176 1.87882 23.016 1.87261C22.9125 1.83098 22.7953 1.88939 22.6944 1.8285C22.6135 1.82352 22.5332 1.81855 22.4523 1.81358C22.347 1.76822 22.2279 1.82539 22.1244 1.76822C21.305 1.94718 20.5432 1.6253 19.7583 1.50289C19.6567 1.47058 19.5539 1.48425 19.4511 1.49233C19.3746 1.54639 19.2881 1.5265 19.2091 1.51221C18.7645 1.42833 18.3213 1.33822 17.878 1.24999C17.6674 1.20401 17.4492 1.27547 17.2404 1.20898C17.0435 1.0555 16.7996 1.17791 16.5846 1.09278C16.2441 0.957944 15.8811 0.90637 15.5131 0.898913C15.4021 0.936817 15.2918 0.947381 15.1814 0.895807C14.9858 0.827455 14.831 0.673354 14.6209 0.636072C14.5156 0.586983 14.3952 0.645392 14.2912 0.589468C14.2404 0.584497 14.1789 0.59568 14.1394 0.572068C13.6328 0.268214 13.0316 0.243979 12.498 0.0227686C12.3751 -0.0281844 12.2009 0.0115854 12.2309 0.0905004C12.3068 0.289341 12.1388 0.401809 12.1344 0.551561C12.1237 0.915067 12.1463 1.27982 12.1557 1.64457C12.1726 1.79618 12.0585 1.98757 12.2886 2.07456C12.1601 2.25041 12.4103 2.43682 12.2987 2.58719C12.0278 2.95194 12.1708 3.36143 12.1288 3.75103C12.1175 3.85977 12.1588 3.86413 12.2648 3.87096Z" fill="white"/>
<path d="M68.0457 29.3374C67.6657 29.4027 67.3065 29.5039 67.1184 29.8873C67.1742 30.0514 67.314 29.9725 67.4118 29.9731C68.8313 29.9787 70.2513 29.97 71.6708 29.9836C71.9391 29.9861 71.9937 29.9016 71.993 29.6525C71.9843 27.3142 71.9874 24.9766 71.9893 22.6384C71.9893 22.5265 71.9611 22.4103 72.0181 22.3028C72.0206 21.7082 72.5034 21.0992 73.0821 21.0004C73.8432 20.8699 74.6194 20.8998 75.378 20.9613C76.3855 21.0433 76.8351 21.6734 76.8445 22.4594C76.8746 24.9499 76.852 27.441 76.8501 29.9321C76.8959 29.9923 76.9623 29.9762 77.0225 29.9762C78.1366 29.9768 79.2514 29.9768 80.3655 29.9762C80.4257 29.9762 80.4927 29.9923 80.5379 29.9321C80.5354 29.1678 80.531 28.4035 80.5316 27.6398C80.5335 25.3681 80.5373 23.0957 80.5404 20.824C80.4677 20.6835 80.5448 20.5276 80.4927 20.3853C80.2858 19.4532 79.8808 18.6411 79.0902 18.0508C78.551 17.6481 77.936 17.4437 77.2827 17.3275C77.1705 17.2952 77.0557 17.3113 76.9416 17.3113C75.5184 17.3101 74.0952 17.3082 72.672 17.3119C72.2883 17.3126 71.904 17.2902 71.5209 17.3275C69.7629 17.5412 68.5134 18.7809 68.309 20.5095C68.2789 20.6214 68.294 20.7357 68.294 20.8488C68.2927 23.5561 68.294 26.2628 68.2915 28.9702C68.2915 29.0808 68.3241 29.1976 68.2601 29.3032C68.188 29.3144 68.1165 29.325 68.0457 29.3374Z" fill="white"/>
<path d="M30.1667 29.7189C30.3034 28.8217 30.4651 27.9275 30.6212 27.0327C30.8206 25.8869 31.0275 24.7423 31.2269 23.5959C31.361 22.8223 31.482 22.0462 31.6237 21.2732C31.6363 21.2054 31.6118 21.0476 31.7404 21.0576C31.8701 21.0675 31.8469 21.2011 31.8645 21.303C31.9592 21.8436 32.082 22.3805 32.1629 22.9229C32.24 23.4381 32.3404 23.9476 32.4338 24.4596C32.5316 24.9983 32.598 25.542 32.694 26.0808C32.8306 26.8482 32.9836 27.6118 33.1247 28.3786C33.2294 28.9472 33.3391 29.5157 33.4194 30.0886C33.4419 30.2508 33.5002 30.2589 33.6275 30.2589C34.7241 30.2558 35.82 30.2514 36.9166 30.262C37.1222 30.2639 37.1404 30.1738 37.1128 30.0209C36.9109 28.8968 36.7053 27.7728 36.5065 26.6481C36.331 25.6539 36.1611 24.6591 35.9899 23.6642C35.8156 22.6483 35.647 21.6305 35.4695 20.6151C35.2921 19.6011 35.099 18.5895 34.9322 17.5735C34.904 17.402 34.8639 17.3486 34.6908 17.3492C32.7278 17.3542 30.7654 17.3542 28.8024 17.3492C28.6544 17.3486 28.6237 17.3921 28.5993 17.5344C28.5165 18.0178 28.4294 18.5 28.3472 18.9834C28.1754 19.9956 27.9654 21.0023 27.788 22.0139C27.6306 22.9086 27.5021 23.809 27.3497 24.7044C27.2124 25.5128 27.0613 26.3188 26.914 27.1253C26.7673 27.9287 26.603 28.7291 26.4801 29.5362C26.45 29.732 26.361 29.704 26.2425 29.7127C25.7873 29.7469 25.3328 29.7854 25.0325 30.2583C26.5704 30.2583 28.0732 30.2583 29.5767 30.2583C30.1052 30.2577 30.0852 30.2545 30.1667 29.7189Z" fill="white"/>
<path d="M20.9194 29.8644C20.9201 28.8416 20.9125 27.8188 20.9251 26.796C20.9282 26.5648 20.8655 26.499 20.6298 26.5008C19.379 26.5127 18.1282 26.5064 16.8774 26.5064C16.5345 26.5064 16.5338 26.5058 16.5338 26.1784C16.5338 24.5771 16.5332 22.9758 16.5351 21.3745C16.5351 21.2732 16.5081 21.1676 16.5652 21.0713C16.673 21.0122 16.7903 21.0414 16.9025 21.0414C19.0392 21.0396 21.1752 21.0408 23.3119 21.0377C23.4223 21.0377 23.5414 21.0787 23.6436 20.9986C23.6411 19.9242 23.6242 18.8499 23.6442 17.7761C23.6499 17.4636 23.5521 17.4045 23.2611 17.412C22.4486 17.4325 21.6354 17.4195 20.8223 17.4188C18.1752 17.4163 15.5275 17.4132 12.8805 17.4108C12.7996 17.512 12.841 17.6307 12.8404 17.7401C12.8379 21.5479 12.8385 25.3557 12.8366 29.1634C12.8366 29.2747 12.8686 29.3909 12.8053 29.4971C12.7068 29.5245 12.6097 29.5711 12.5106 29.5754C12.1551 29.5928 11.9175 29.7898 11.6592 30.0762C14.7771 30.0762 17.836 30.0762 20.8944 30.0762C20.9314 30.0091 20.9194 29.9358 20.9194 29.8644Z" fill="white"/>
<path d="M40.8327 29.4468C40.4848 29.4717 40.2409 29.6587 39.9819 29.9476C41.6346 29.9476 43.2327 29.9476 44.8302 29.9476C44.8766 29.8376 44.8534 29.7227 44.8541 29.6102C44.8553 27.2832 44.8547 24.9561 44.8566 22.6297C44.8566 22.5178 44.8309 22.4022 44.8823 22.2935C44.8121 21.651 45.6252 20.8451 46.2604 20.9401C46.9356 20.8879 47.6108 20.8954 48.2861 20.937C48.513 20.9389 48.7218 20.9979 48.9162 21.116C49.4923 21.4658 49.7619 21.9766 49.7193 22.6408C49.7049 22.8658 49.7613 22.9397 50.0046 22.936C51.0573 22.9211 52.1105 22.9242 53.1638 22.9341C53.3645 22.936 53.4052 22.8714 53.4021 22.6868C53.3933 22.0673 53.4027 21.4472 53.4052 20.8271C53.3363 20.6848 53.4096 20.5282 53.3588 20.3846C53.2754 20.059 53.214 19.7272 53.0692 19.4184C52.5218 18.2527 51.587 17.5884 50.3369 17.3268C50.2353 17.2809 50.1174 17.3455 50.0196 17.2796C48.945 17.2827 47.8704 17.2765 46.7964 17.2914C45.9337 17.3032 45.0685 17.2255 44.2083 17.3417C43.3732 17.4542 42.644 17.8041 42.0885 18.4298C41.5669 19.0176 41.217 19.703 41.1744 20.5089C41.1475 20.6214 41.1606 20.7357 41.1606 20.8488C41.16 23.5773 41.1606 26.3057 41.1581 29.0336C41.1581 29.1448 41.1907 29.261 41.1268 29.3673C41.0296 29.3952 40.9324 29.44 40.8327 29.4468Z" fill="white"/>
<path d="M38.4447 38.5462C38.5475 38.5474 38.6052 38.5077 38.572 38.3946C38.4265 37.7893 38.3425 37.1729 38.2353 36.5609C37.9074 34.6856 37.5694 32.8115 37.2378 30.9368C37.2008 30.7274 37.1412 30.6212 36.8741 30.6218C33.0973 30.6348 29.3205 30.6305 25.5436 30.6305C25.4477 30.6305 25.3512 30.6305 25.1938 30.6305C25.3349 30.7218 25.4176 30.7628 25.486 30.8212C25.8853 31.163 26.217 31.5153 26.049 32.1218C25.9167 32.5996 25.8628 33.0998 25.78 33.5907C25.6446 34.3979 25.5167 35.2063 25.3812 36.0135C25.2408 36.8492 25.0596 37.6781 24.9612 38.5207C24.98 38.5288 24.9994 38.5431 25.0189 38.5437C26.18 38.5518 27.3411 38.5437 28.5023 38.5505C28.6346 38.5512 28.6879 38.4927 28.7173 38.3834C28.7518 37.6887 28.9349 37.0164 29.039 36.3322C29.1493 35.6089 29.2985 34.8906 29.4308 34.1705C29.4578 34.1562 29.4828 34.1388 29.5167 34.1388C30.9738 34.1357 32.4308 34.1388 33.8885 34.1375C33.9732 34.1375 34.0578 34.1344 34.0986 34.2307C34.1506 34.5762 34.1964 34.9236 34.2566 35.2678C34.3732 35.9339 34.4967 36.5982 34.6202 37.263C34.6979 37.6812 34.7807 38.0988 34.8609 38.517C36.0559 38.5853 37.2509 38.5288 38.4447 38.5462Z" fill="white"/>
<path d="M58.3044 29.4554C57.9602 29.4641 57.6768 29.6164 57.4618 29.8873C57.5107 30.0321 57.6348 29.9736 57.727 29.9736C59.1527 29.9774 60.579 29.9768 62.0047 29.9749C62.0837 29.9749 62.1734 30.0066 62.2399 29.9314C62.2374 27.0054 62.2373 24.0793 62.2292 21.1533C62.2286 20.9656 62.2994 20.9383 62.4637 20.9389C63.559 20.9445 64.6543 20.9414 65.7502 20.9414C65.7998 20.8774 65.7828 20.8028 65.7835 20.732C65.7847 19.6775 65.7766 18.6236 65.7897 17.5692C65.7929 17.3312 65.6963 17.3063 65.4957 17.3063C62.0963 17.3113 58.6963 17.3126 55.2968 17.3045C55.0586 17.3039 55.0003 17.3697 55.0028 17.6002C55.0153 18.6025 55.0072 19.6054 55.0097 20.6077C55.0097 20.7189 54.9777 20.8351 55.0417 20.9414C56.1276 20.9414 57.2135 20.9463 58.2994 20.9383C58.4931 20.937 58.5646 20.9737 58.564 21.1874C58.5558 23.8469 58.5577 26.5058 58.5615 29.1652C58.5615 29.3516 58.5201 29.4505 58.3044 29.4554Z" fill="white"/>
<path d="M80.4926 35.4722C80.534 35.3436 80.4788 35.2051 80.534 35.0777C80.5352 33.6199 80.5365 32.1616 80.5377 30.7038C80.4895 30.6485 80.4236 30.6628 80.3628 30.6628C79.2493 30.6622 78.1352 30.6622 77.0217 30.6628C76.9609 30.6628 76.8951 30.6485 76.8468 30.7038C76.8493 31.7173 76.8524 32.7307 76.8549 33.7442C76.8562 34.3128 76.3427 34.8894 75.8474 34.9174C75.0223 34.9696 74.1973 34.9609 73.3722 34.9217C72.7515 34.9932 71.9358 34.1823 72.0154 33.5584C71.9634 33.4609 71.9885 33.3552 71.9878 33.2533C71.9853 32.4772 71.9809 31.7011 71.9903 30.925C71.9928 30.7305 71.9508 30.6547 71.7327 30.6566C70.4587 30.6671 69.1853 30.6609 67.9113 30.664C67.8279 30.664 67.7138 30.6149 67.6787 30.7523C67.969 30.9959 68.1565 31.3034 68.2662 31.6613C68.3132 31.7707 68.29 31.8863 68.2913 31.9987C68.3019 33.1147 68.2743 34.2314 68.3063 35.3474C68.3207 35.9134 68.5163 36.436 68.8104 36.8983C69.3922 37.8124 70.2305 38.3815 71.3314 38.5282C71.4361 38.5742 71.5559 38.5158 71.6587 38.5735C73.4204 38.5754 75.1828 38.5742 76.9446 38.5798C77.5101 38.5816 78.0556 38.4567 78.539 38.1945C79.6224 37.6073 80.2869 36.6939 80.4926 35.4722Z" fill="white"/>
<path d="M12.3882 55.1282C13.4716 55.1276 14.5543 55.1288 15.6377 55.1257C15.7368 55.1251 15.8465 55.168 15.9349 55.0828C15.933 53.0988 15.923 51.1147 15.9324 49.1313C15.9362 48.321 16.434 47.8625 17.2578 47.8606C17.7268 47.8594 18.1964 47.8494 18.6653 47.8637C19.3412 47.8836 19.8208 48.3881 19.8277 49.0648C19.8816 49.1729 19.8553 49.2885 19.8553 49.4004C19.8572 51.2092 19.8616 53.0174 19.8509 54.8262C19.8497 55.0729 19.9186 55.1394 20.1644 55.1344C20.9356 55.1189 21.708 55.1176 22.4792 55.135C22.74 55.1406 22.8064 55.0654 22.8058 54.8088C22.7958 52.4942 22.8002 50.1789 22.7995 47.8637C22.7995 47.7711 22.8115 47.6773 22.7839 47.5866C22.708 47.0565 22.5299 46.5675 22.2108 46.1294C21.7268 45.4652 21.0447 45.1334 20.2616 44.9637C18.6967 44.9333 17.1312 44.9389 15.5663 44.9606C14.0816 45.1576 13.1217 46.1761 12.9832 47.4617C12.9481 47.5729 12.965 47.6879 12.965 47.8003C12.9637 49.9397 12.9644 52.0797 12.9631 54.2191C12.9631 54.331 12.9888 54.4465 12.9374 54.5553C12.7719 54.5944 12.6001 54.6187 12.4421 54.6771C12.2239 54.7579 12.0202 54.8691 12.0151 55.1481C12.138 55.1158 12.2634 55.1282 12.3882 55.1282Z" fill="white"/>
<path d="M47.2534 38.5449C48.2396 38.5449 49.2258 38.5673 50.2121 38.5313C51.1067 38.4107 51.8597 38.0137 52.4647 37.3562C52.9557 36.8225 53.2177 36.1738 53.3582 35.4729C53.4102 35.3268 53.3387 35.169 53.4039 35.0242C53.4039 34.3302 53.4046 33.6367 53.4046 32.9426C53.3588 32.8823 53.2923 32.8985 53.2321 32.8985C52.118 32.8979 51.0039 32.8979 49.8892 32.8985C49.829 32.8985 49.7619 32.8823 49.7168 32.9426C49.7186 33.2104 49.728 33.4789 49.7218 33.7467C49.7055 34.4395 49.0766 34.9229 48.5531 34.9223C47.7625 34.9217 46.97 34.9441 46.1813 34.9074C45.4139 34.8714 44.8139 34.0946 44.8854 33.5541C44.8264 33.4366 44.859 33.3111 44.8565 33.1893C44.8384 32.3362 44.8873 31.4818 44.8302 30.6292C43.3086 30.6292 41.7869 30.6292 40.2415 30.6292C40.8371 31.117 40.8371 31.117 41.128 31.7483C41.1894 31.854 41.1574 31.9695 41.1587 32.0808C41.1712 33.17 41.1393 34.2593 41.1763 35.348C41.3361 37.1127 42.8252 38.476 44.513 38.53C45.4264 38.5692 46.3399 38.5443 47.2534 38.5449Z" fill="white"/>
<path d="M42.3117 50.4747C43.1318 50.4629 43.9525 50.471 44.7732 50.4685C44.8528 50.4685 44.9406 50.4971 45.0102 50.4281C45.0102 49.5228 45.0108 48.6181 45.0108 47.7127C44.94 47.594 45.0146 47.4567 44.9619 47.3362C44.9419 47.2896 44.9149 47.2448 44.903 47.1964C44.5776 45.9157 43.7193 45.2117 42.4422 44.9606C42.0804 44.9252 41.718 44.9445 41.3563 44.947C40.4873 44.9532 39.6177 44.9203 38.7487 44.9644C38.6584 44.9861 38.5688 45.0128 38.4772 45.0284C37.2578 45.2334 36.3857 46.2419 36.2252 47.3995C36.1819 47.5213 36.2496 47.6562 36.1807 47.7755C36.1819 49.0077 36.1838 50.2399 36.1851 51.472C36.2415 51.5994 36.1838 51.7386 36.2283 51.8672C36.2885 52.5377 36.6183 53.0876 37.1242 53.4921C37.9299 54.1371 38.9192 54.3577 39.9186 54.5286C40.3613 54.6038 40.8108 54.6547 41.2359 54.7939C41.1462 54.9257 40.9381 54.8977 40.9468 55.0953C41.0008 55.1382 41.0647 55.1276 41.1262 55.1276C42.3412 55.1282 43.5556 55.1282 44.7707 55.1276C44.8321 55.1276 44.8961 55.1382 44.95 55.0947C44.9168 54.8728 44.9011 54.6473 44.8472 54.4304C44.5394 53.1821 43.6328 52.5352 42.4704 52.1848C41.5958 51.9213 40.6879 51.8026 39.7838 51.6715C39.5807 51.6423 39.3236 51.6616 39.1851 51.4354C39.1155 51.193 39.1537 50.9451 39.1569 50.7009C39.1656 50.0752 39.1123 49.4482 39.1844 48.8231C39.2515 48.3117 39.7086 47.9109 40.2453 47.8917C40.5832 47.8426 40.9211 47.8426 41.2591 47.8917C41.6171 47.9992 41.8998 48.1881 42.0089 48.5671C42.0722 49.1102 42.0328 49.6545 42.0321 50.1982C42.0315 50.4138 42.0936 50.4778 42.3117 50.4747Z" fill="white"/>
<path d="M29.0384 55.086C29.0465 55.0922 29.0547 55.1034 29.0635 55.104C29.9983 55.1568 30.9337 55.1145 31.8691 55.127C31.9732 55.1282 32.0284 55.0853 31.9939 54.9735C31.8014 54.2782 31.6039 53.5841 31.4171 52.8875C30.8992 50.9538 30.3826 49.0201 29.8716 47.0845C29.6873 46.3867 29.5205 45.6845 29.3462 44.9849C29.2534 44.9122 29.145 44.9476 29.044 44.9476C27.8346 44.9451 26.6252 44.9457 25.4151 44.9457C25.0578 44.9457 25.0571 44.9463 25.0571 45.2906C25.0571 48.267 25.0572 51.2434 25.0559 54.2191C25.0559 54.331 25.0816 54.4466 25.0302 54.5553C24.9286 54.6479 24.7951 54.5944 24.6785 54.6305C24.4189 54.7113 24.1738 54.797 24.0935 55.0947C24.1374 55.1301 24.1894 55.1282 24.2415 55.1282C25.4465 55.1282 26.6515 55.1282 27.8559 55.1276C27.9161 55.1276 27.9826 55.1437 28.0277 55.0835C28.0277 53.8538 28.0277 52.6247 28.0277 51.395C28.0428 51.3937 28.0578 51.3931 28.0728 51.3919C28.3945 52.6228 28.7161 53.8544 29.0384 55.086Z" fill="white"/>
<path d="M100.02 55.0927C100.275 55.0958 100.349 55.0393 100.348 54.7752C100.336 52.8626 100.341 50.95 100.342 49.0368C100.342 48.4559 100.714 47.9811 101.287 47.8879C101.931 47.7829 102.578 47.8047 103.225 47.8898C103.729 47.9563 104.231 48.4484 104.228 48.9436C104.287 49.0611 104.254 49.1872 104.257 49.3084C104.259 49.4221 104.295 49.4768 104.418 49.4768C105.292 49.4749 106.164 49.4749 107.038 49.4768C107.157 49.4768 107.205 49.4308 107.203 49.3121C107.19 48.6951 107.224 48.0768 107.184 47.4598C107.147 47.3013 107.12 47.1392 107.07 46.9851C106.674 45.7554 105.589 44.9457 104.295 44.9277C102.949 44.9091 101.603 44.919 100.257 44.9277C100.032 44.9289 99.8064 44.9755 99.5844 45.019C98.4045 45.2514 97.4615 46.2711 97.3819 47.5847C97.3518 47.6965 97.3668 47.8109 97.3668 47.924C97.3656 50.0534 97.3668 52.1835 97.3643 54.3129C97.3643 54.4241 97.3963 54.5403 97.333 54.6466C97.0114 54.6932 96.6797 54.7205 96.4998 55.0859C97.6879 55.0865 98.854 55.0784 100.02 55.0927Z" fill="white"/>
<path d="M0.221335 55.0841C1.28529 55.0878 2.34925 55.089 3.41321 55.0859C3.89911 55.0847 3.83327 55.1493 3.8339 54.6839C3.83641 52.813 3.83327 50.942 3.83578 49.0704C3.83641 48.459 4.11666 48.0433 4.7104 47.8979C5.32796 47.7463 5.96683 47.8246 6.59505 47.8668C6.6985 47.8736 6.8195 47.8712 6.94239 47.9339C7.49224 48.2135 7.80384 48.6485 7.7355 49.4321C7.8239 49.5166 7.93362 49.4743 8.03205 49.4749C8.64522 49.4793 9.25839 49.4818 9.87156 49.4749C10.1393 49.4718 10.4095 49.5135 10.6747 49.4439C10.6427 48.7442 10.7224 48.0445 10.6202 47.343C10.417 45.948 9.15244 44.924 7.70979 44.9246C6.38439 44.9246 5.05899 44.914 3.73359 44.9277C2.269 44.942 1.06397 45.9816 0.884663 47.4002C0.857704 47.5126 0.87087 47.6263 0.87087 47.7394C0.870243 49.9285 0.87087 52.1183 0.868362 54.308C0.868362 54.4186 0.900964 54.5354 0.837014 54.641C0.597514 54.7069 0.317261 54.6584 0.137949 54.9002C0.103466 54.9468 -0.0212998 54.9499 0.00315183 55.0337C0.035127 55.1375 0.147354 55.0835 0.221335 55.0841Z" fill="white"/>
<path d="M75.4799 47.8631C76.231 47.86 76.9827 47.8563 77.7338 47.865C77.9269 47.8674 78.011 47.8308 78.0072 47.6121C77.994 46.8055 77.9972 45.999 78.0053 45.1924C78.0072 45.0097 77.9646 44.9401 77.7639 44.9408C75.0404 44.947 72.3175 44.947 69.594 44.9408C69.394 44.9401 69.3507 45.0097 69.3526 45.1924C69.3607 45.999 69.3645 46.8055 69.3507 47.6121C69.3469 47.8308 69.431 47.8668 69.6241 47.865C70.3752 47.8563 71.1263 47.86 71.878 47.8631C71.9796 47.8637 72.0868 47.8333 72.1833 47.8942C72.1909 47.965 72.2053 48.0358 72.2053 48.1067C72.2065 49.1587 72.2065 50.21 72.2065 51.262C72.2065 52.3034 72.1965 53.3449 72.2141 54.3863C72.2178 54.6137 72.1401 54.7001 71.9382 54.7113C71.678 54.7255 71.4899 54.8654 71.3156 55.0369C71.3589 55.1878 71.4855 55.1238 71.5745 55.1245C72.6962 55.1288 73.8178 55.1276 74.9395 55.127C75.0103 55.127 75.0862 55.1437 75.1501 55.094C75.1501 52.8067 75.1501 50.5195 75.152 48.2322C75.152 48.1197 75.1664 48.0073 75.1739 47.8942C75.2711 47.8333 75.3783 47.8637 75.4799 47.8631Z" fill="white"/>
<path d="M107.199 55.8018C107.199 55.7657 107.176 55.7465 107.159 55.7216C106.206 55.7216 105.253 55.7216 104.3 55.7216C104.218 55.8229 104.263 55.941 104.26 56.0503C104.239 56.814 104.294 57.5789 104.231 58.342C104.187 58.7626 103.92 58.995 103.547 59.1373C102.804 59.1864 102.061 59.1808 101.319 59.1404C100.811 59.141 100.333 58.5004 100.339 58.0493C100.348 57.367 100.333 56.6841 100.347 56.0019C100.351 55.79 100.3 55.7216 100.075 55.7241C98.9892 55.7365 97.904 55.7285 96.8193 55.7322C96.7604 55.7322 96.677 55.6825 96.6262 55.7912C97.0356 55.9254 97.188 56.2746 97.3422 56.6226C97.3861 56.7432 97.3635 56.8687 97.3654 56.9917C97.3773 57.8088 97.3453 58.6259 97.3823 59.4424C97.4087 60.042 97.6174 60.5739 97.9999 61.0369C98.5573 61.7104 99.2783 62.0845 100.155 62.0975C101.592 62.1187 103.03 62.1081 104.467 62.1112C104.567 62.0491 104.686 62.1106 104.789 62.0659C104.88 62.0199 104.984 62.0335 105.083 61.9994C106.26 61.5905 106.957 60.7796 107.184 59.5673C107.222 58.3121 107.193 57.057 107.199 55.8018Z" fill="white"/>
<path d="M22.5423 55.7502C21.8238 55.7521 21.1053 55.7508 20.3874 55.7508C19.857 55.7508 19.8645 55.7508 19.8551 56.2641C19.8432 56.9327 19.8965 57.6025 19.8269 58.2705C19.8194 58.8043 19.4783 59.1815 18.9504 59.1982C18.3673 59.2163 17.7836 59.2144 17.2005 59.2051C16.4501 59.1926 15.9516 58.7098 15.9353 57.9598C15.919 57.2378 15.9353 56.5145 15.9372 55.7925C15.9065 55.7614 15.8689 55.7508 15.825 55.7508C14.7654 55.7502 13.7052 55.7508 12.6456 55.7515C12.5735 55.7515 12.4945 55.7409 12.4751 55.8409C12.6851 56.0472 12.8782 56.2641 12.9391 56.5642C12.9861 56.6736 12.9622 56.7892 12.9641 56.9016C12.976 57.7902 12.9447 58.6794 12.9811 59.5673C13.0011 59.6972 13.0099 59.8296 13.0425 59.9563C13.2118 60.6094 13.5786 61.1419 14.1033 61.5595C14.5008 61.8751 14.9754 62.0895 15.4776 62.1007C16.9686 62.133 18.4601 62.1137 19.9516 62.1168C20.22 62.1175 20.4821 62.0845 20.7347 61.9957C21.951 61.5663 22.6119 60.697 22.7868 59.4437C22.8194 58.278 22.788 57.1123 22.8043 55.9472C22.8062 55.7334 22.6827 55.7496 22.5423 55.7502Z" fill="white"/>
<path d="M57.0002 55.7502C56.2291 55.7508 55.4579 55.7502 54.6867 55.7508C54.3187 55.7508 54.3243 55.7514 54.3174 56.1162C54.3036 56.8376 54.3538 57.5597 54.2917 58.2805C54.2723 58.7589 53.8516 59.1939 53.3707 59.2026C52.767 59.2138 52.1619 59.1833 51.5588 59.2069C50.9688 59.2299 50.3751 58.5582 50.3952 58.0058C50.4228 57.2633 50.4027 56.5195 50.4027 55.7763C50.3833 55.7688 50.3638 55.7552 50.3444 55.7552C49.2654 55.7477 48.1864 55.7527 47.1074 55.7521C47.0359 55.7521 46.9556 55.7396 46.9387 55.8416C47.1393 56.0379 47.3243 56.2448 47.3945 56.5269C47.456 56.6326 47.424 56.7481 47.4252 56.8587C47.439 57.7616 47.4039 58.6651 47.4441 59.5679C47.508 59.6904 47.4491 59.8227 47.4948 59.9569C47.6942 60.5385 47.9814 61.0524 48.4547 61.4644C48.8804 61.8354 49.387 62.0802 49.9237 62.0963C51.4529 62.1429 52.9845 62.1168 54.5149 62.1137C55.0303 62.1125 55.4899 61.9286 55.9149 61.6502C56.6949 61.1394 57.1087 60.4062 57.2479 59.5052C57.2805 58.3177 57.2491 57.1303 57.2654 55.9435C57.2679 55.7266 57.1375 55.7502 57.0002 55.7502Z" fill="white"/>
<path d="M10.6748 57.5851C10.6309 57.551 10.5789 57.5516 10.5269 57.5516C9.65351 57.5516 8.78078 57.5516 7.90742 57.5522C7.84723 57.5522 7.78077 57.5361 7.73563 57.5963C7.73751 57.7921 7.74378 57.9878 7.74127 58.1829C7.735 58.6614 7.4886 58.9702 7.04471 59.1349C6.2886 59.1889 5.53248 59.1821 4.77636 59.1373C4.27165 59.0578 3.8566 58.6179 3.84532 58.109C3.82902 57.3956 3.8309 56.6823 3.83968 55.9689C3.84218 55.7769 3.78576 55.7229 3.59265 55.7247C2.67478 55.7341 1.75627 55.7291 0.8384 55.7291C0.605796 55.7291 0.373192 55.7291 0.0866699 55.7291C0.455952 56.0131 0.751252 56.2753 0.845296 56.6873C0.892318 56.7966 0.868494 56.9122 0.870375 57.0247C0.882287 57.8927 0.850939 58.7608 0.887303 59.6282C0.912381 60.0203 1.0685 60.3683 1.26473 60.6995C1.77195 61.5539 2.54249 62.0578 3.52494 62.0957C4.94125 62.1504 6.36132 62.1063 7.78014 62.1026C8.36008 62.1013 8.90868 61.9447 9.37389 61.6191C10.261 60.9984 10.7024 60.1309 10.678 59.041C10.6667 58.557 10.6755 58.0711 10.6748 57.5851Z" fill="white"/>
<path d="M45.01 55.7925C44.9843 55.7763 44.9649 55.7527 44.9292 55.7527C43.7266 55.7477 42.5241 55.7521 41.3216 55.7521C41.2652 55.7521 41.1874 55.7378 41.2018 55.8397C41.5498 56.0286 41.8702 56.2442 42.01 56.6394C42.0564 57.1657 42.0545 57.692 42.0106 58.2183C41.9059 58.6073 41.6815 58.9056 41.3109 59.0771C40.82 59.3045 40.2959 59.2517 39.7981 59.1479C39.4739 59.0802 39.2163 58.841 39.1824 58.4613C39.1191 57.9182 39.1586 57.3733 39.1592 56.8296C39.1592 56.6133 39.0965 56.5506 38.8789 56.5537C38.0583 56.5655 37.2376 56.5574 36.4169 56.5599C36.3379 56.5599 36.2488 56.5276 36.1824 56.6034C36.183 57.5013 36.1836 58.3992 36.1843 59.2971C36.2407 59.4244 36.183 59.5636 36.2275 59.6923C36.2883 59.8016 36.2601 59.9259 36.2965 60.0452C36.4758 60.6312 36.7912 61.104 37.2789 61.4899C37.7241 61.8422 38.2031 62.0895 38.7686 62.1007C39.9047 62.1225 41.042 62.1225 42.178 62.1113C42.6075 62.1069 43.0251 62.0181 43.4132 61.8056C44.2652 61.3389 44.7693 60.6287 44.9661 59.6923C45.0031 59.5872 44.9511 59.471 45.0075 59.3691C45.0082 58.1761 45.0088 56.9843 45.01 55.7925Z" fill="white"/>
<path d="M59.8827 62.1212C62.6558 62.1119 65.4295 62.1156 68.2025 62.1162C68.2552 61.1606 68.2182 60.2049 68.2207 59.2492C68.2207 59.2324 68.1975 59.2163 68.185 59.2001C66.3486 59.2026 64.5128 59.2057 62.6765 59.2063C62.637 59.2063 62.5975 59.1871 62.558 59.1771C62.4965 59.0814 62.5266 58.9752 62.5266 58.8745C62.5241 57.9238 62.5241 56.9725 62.526 56.0218C62.526 55.8708 62.5429 55.7446 62.3103 55.7465C61.2156 55.7577 60.1203 55.7502 59.025 55.7539C58.9686 55.7539 58.862 55.7049 58.8746 55.8391C59.3241 56.0976 59.5586 56.4859 59.5598 56.9998C59.5636 58.6017 59.568 60.203 59.5548 61.8049C59.5523 62.0684 59.6288 62.1218 59.8827 62.1212Z" fill="white"/>
<path d="M95.025 55.7521C93.2124 55.7502 91.3999 55.7508 89.5873 55.7515C89.5158 55.7515 89.4406 55.7366 89.3748 55.7807C89.3904 55.8689 89.4005 55.959 89.4237 56.0448C89.655 56.8967 89.8926 57.7473 90.1215 58.6005C90.4174 59.7022 90.7171 60.8033 90.9904 61.9106C91.0368 62.1001 91.1039 62.1187 91.2644 62.1181C92.4958 62.1131 93.7271 62.1069 94.9585 62.1218C95.2156 62.1249 95.2613 62.0441 95.2607 61.8105C95.2544 59.8047 95.2607 57.7983 95.2638 55.7925C95.193 55.7235 95.1046 55.7521 95.025 55.7521Z" fill="white"/>
<path d="M30.682 61.8347C30.7328 62.0304 30.8181 62.1261 31.0582 62.123C32.2676 62.1062 33.4771 62.1087 34.6865 62.1211C34.9266 62.1236 34.9956 62.0683 34.9937 61.821C34.983 59.8059 34.988 57.7908 34.988 55.7757C34.9304 55.7434 34.8664 55.7508 34.805 55.7508C32.9717 55.7502 31.1378 55.7502 29.3046 55.7514C29.235 55.7514 29.1566 55.7266 29.1008 55.7956C29.2689 56.4256 29.4394 57.0551 29.6037 57.6858C29.9654 59.0683 30.324 60.4515 30.682 61.8347Z" fill="white"/>
<path d="M46.7296 55.1257C47.8939 55.1282 49.0575 55.1276 50.2218 55.127C50.2832 55.127 50.3472 55.1375 50.4011 55.0941C50.4017 51.7194 50.4023 48.3447 50.403 44.97C50.3033 44.9246 50.1973 44.9464 50.0945 44.9464C49.3233 44.9445 48.5522 44.9451 47.781 44.9451C47.4274 44.9451 47.4274 44.9457 47.4268 45.2937C47.4268 48.2788 47.4274 51.2639 47.4249 54.249C47.4249 54.3602 47.4569 54.4764 47.3935 54.5827C47.0393 54.633 46.6776 54.6678 46.4907 55.0419C46.5346 55.1668 46.6437 55.1257 46.7296 55.1257Z" fill="white"/>
<path d="M80.3631 44.9451C80.0101 44.9451 80.0095 44.9457 80.0095 45.2937C80.0095 48.2788 80.0101 51.2639 80.0076 54.249C80.0076 54.3602 80.0395 54.4764 79.9762 54.5827C79.6276 54.638 79.2678 54.6709 79.0815 55.0394C79.1173 55.1761 79.2314 55.1258 79.3135 55.1264C80.4772 55.1295 81.6402 55.1289 82.8038 55.1282C82.8653 55.1282 82.9292 55.1388 82.9831 55.0953C82.9838 51.7206 82.9844 48.3459 82.9844 44.9712C82.8847 44.9258 82.7788 44.9476 82.6759 44.9476C81.9054 44.9439 81.1342 44.9451 80.3631 44.9451Z" fill="white"/>
<path d="M94.9932 44.9464C94.1901 44.9432 93.3863 44.9532 92.5838 44.9395C92.3524 44.9352 92.2847 44.993 92.2847 45.2303C92.2835 48.4348 92.311 51.6398 92.2728 54.8443C92.2728 54.8716 92.2734 54.8965 92.2753 54.9188C92.2596 54.8809 92.2377 54.8362 92.2082 54.7846C92.0157 54.0899 91.8183 53.3965 91.632 52.6999C91.1142 50.7674 90.5894 48.8362 90.0922 46.8981C89.9311 46.2693 89.7129 45.6529 89.6207 45.0066C89.5737 44.8985 89.4765 44.947 89.4032 44.947C88.106 44.9439 86.8082 44.9445 85.511 44.9457C85.4408 44.9457 85.3637 44.924 85.3053 44.9861C85.3079 45.482 85.3129 45.9772 85.3135 46.4731C85.3141 49.0555 85.3116 51.638 85.3173 54.221C85.3179 54.4547 85.3072 54.6106 85.0019 54.6249C84.7285 54.6373 84.506 54.7989 84.3542 55.0363C84.3919 55.1966 84.5229 55.1233 84.6088 55.1239C85.7329 55.1295 86.8571 55.1183 87.9806 55.1338C88.2471 55.1376 88.2841 55.0369 88.2822 54.8113C88.2728 53.7798 88.2753 52.7484 88.2822 51.7169C88.2828 51.6243 88.2025 51.4907 88.3618 51.4348C88.4734 51.8747 88.5825 52.3159 88.6972 52.7552C88.901 53.535 89.1085 54.3136 89.3142 55.0922C89.3411 55.1065 89.3649 55.1251 89.3994 55.1258C90.296 55.1295 91.1919 55.1295 92.0885 55.1245C92.2327 55.1239 92.2998 55.0953 92.2998 55.0189C92.3393 55.1065 92.427 55.1369 92.5844 55.1332C93.3875 55.1164 94.1907 55.1282 94.9938 55.1251C95.0829 55.1245 95.1832 55.1624 95.2609 55.0823C95.2584 54.1844 95.254 53.2859 95.2546 52.388C95.2559 49.9205 95.2597 47.4536 95.2622 44.9861C95.1825 44.9134 95.0835 44.947 94.9932 44.9464Z" fill="white"/>
<path d="M32.2491 55.1257C32.8936 55.1295 33.5388 55.1319 34.1833 55.1251C34.451 55.122 34.7213 55.1636 34.9865 55.094C34.9871 51.7193 34.9877 48.3447 34.9883 44.97C34.868 44.9215 34.7419 44.9445 34.6191 44.9464C33.7601 44.9594 32.8999 44.9122 32.0416 44.97C32.0416 48.2222 32.0422 51.4745 32.0416 54.7268C32.0416 54.8088 32.0328 54.8908 32.0278 54.9735C31.9946 55.1754 32.1482 55.1251 32.2491 55.1257Z" fill="white"/>
<path d="M58.8414 38.5853C59.832 38.5704 60.8232 38.5791 61.8144 38.5791C62.2333 38.5791 62.2333 38.5791 62.2333 38.1783C62.2358 35.6866 62.2389 33.1949 62.2414 30.7038C62.2157 30.6876 62.1963 30.664 62.1605 30.664C60.7285 30.6591 59.2965 30.6634 57.8645 30.6634C57.8087 30.6634 57.7298 30.6479 57.7454 30.7504C58.331 31.1338 58.5743 31.6657 58.5668 32.3672C58.5442 34.3419 58.563 36.3167 58.5536 38.2914C58.5523 38.5176 58.6 38.589 58.8414 38.5853Z" fill="white"/>
<path d="M58.8897 55.1245C60.0158 55.1289 61.1418 55.1214 62.2678 55.1326C62.4804 55.1345 62.5293 55.0674 62.5286 54.8685C62.523 51.6448 62.523 48.4211 62.5293 45.1974C62.5299 44.988 62.4628 44.9383 62.2609 44.9408C61.4271 44.9513 60.5932 44.9445 59.7587 44.9464C59.6885 44.9464 59.6107 44.9246 59.5518 44.9868C59.5543 48.1477 59.5575 51.3086 59.56 54.4696C59.56 54.4801 59.5593 54.4901 59.56 54.5007C59.57 54.6063 59.5468 54.6728 59.4164 54.6821C59.1223 54.7038 58.8766 54.8374 58.6653 55.0363C58.6929 55.1817 58.8114 55.1245 58.8897 55.1245Z" fill="white"/>
<path d="M90.6183 38.3598C90.6716 38.5431 90.745 38.5816 90.9105 38.581C91.9858 38.5772 93.061 38.5741 94.1362 38.5835C94.3344 38.5853 94.3582 38.53 94.3049 38.3591C93.8547 36.9219 93.4077 35.4834 92.9644 34.0437C92.6209 32.9258 92.2842 31.8061 91.945 30.687C91.9256 30.6796 91.9061 30.6659 91.8867 30.6659C90.745 30.6584 89.6033 30.6634 88.4616 30.6628C88.392 30.6628 88.3092 30.6473 88.2942 30.7523C88.407 31.1543 88.5092 31.5588 88.634 31.9571C88.8942 32.7867 89.1738 33.6106 89.4315 34.4414C89.8365 35.7444 90.2365 37.0499 90.6183 38.3598Z" fill="white"/>
<path d="M12.8126 31.7856C12.8596 31.895 12.837 32.0106 12.837 32.123C12.8383 34.1618 12.842 36.1999 12.8333 38.2386C12.832 38.4754 12.884 38.5574 13.1411 38.553C14.1643 38.5375 15.1875 38.5381 16.2107 38.5524C16.4684 38.5561 16.5411 38.4878 16.5399 38.2287C16.5298 35.7867 16.5342 33.3447 16.5324 30.9026C16.5324 30.8119 16.5581 30.7156 16.4998 30.6311C14.9812 30.6311 13.4627 30.6311 11.9436 30.6311C12.4082 30.8995 12.6552 31.3084 12.8126 31.7856Z" fill="white"/>
<path d="M86.7459 30.6578C85.3597 30.6665 83.9735 30.6616 82.5866 30.6653C82.5327 30.6653 82.4224 30.6106 82.438 30.7492C82.8757 30.976 83.0644 31.3867 83.2349 31.8105C83.2957 31.9168 83.2656 32.033 83.2656 32.1442C83.2675 34.1773 83.2669 36.2105 83.2681 38.2436C83.2681 38.3555 83.2449 38.471 83.292 38.5804C84.5039 38.5798 85.7164 38.5791 86.9283 38.5785C86.9923 38.4729 86.9603 38.3561 86.9603 38.2448C86.9628 37.1083 86.9622 35.9719 86.9622 34.8354C86.9622 33.5336 86.9609 32.2318 86.9635 30.93C86.9641 30.7759 86.9735 30.656 86.7459 30.6578Z" fill="white"/>
<path d="M27.9482 55.7527C26.8774 55.7477 25.8071 55.7521 24.7363 55.7508C24.6635 55.7508 24.5858 55.7434 24.5632 55.8397C24.809 56.0298 24.9281 56.2983 25.0278 56.5779C25.0824 56.686 25.0548 56.8016 25.0554 56.9134C25.0573 58.5352 25.056 60.157 25.0579 61.7787C25.0579 61.8912 25.0347 62.0062 25.0817 62.1155C25.9563 62.1155 26.8316 62.1043 27.7062 62.1211C27.9683 62.1261 28.0291 62.054 28.0278 61.798C28.0191 59.796 28.0266 57.7939 28.0297 55.7912C28.004 55.7763 27.9846 55.7527 27.9482 55.7527Z" fill="white"/>
<path d="M72.4703 62.1212C73.2628 62.1056 74.0559 62.1069 74.8483 62.1205C75.0835 62.1249 75.1606 62.0764 75.1593 61.8235C75.1474 59.8078 75.153 57.792 75.1537 55.7757C73.9763 55.7197 72.7982 55.7645 71.6208 55.7527C71.5656 55.7521 71.5155 55.7632 71.5324 55.8384C71.9813 56.0864 72.2014 56.4809 72.2045 56.9749C72.2145 58.598 72.2126 60.221 72.2032 61.844C72.2013 62.0541 72.2421 62.1255 72.4703 62.1212Z" fill="white"/>
<path d="M80.043 62.1143C80.9308 62.1143 81.8179 62.1044 82.705 62.1218C82.9489 62.1268 82.9909 62.0528 82.9897 61.8291C82.9809 59.8115 82.9847 57.7933 82.9853 55.7757C82.9659 55.7682 82.9464 55.7546 82.927 55.7546C81.8486 55.7471 80.7703 55.7521 79.6913 55.7515C79.6217 55.7515 79.5383 55.7341 79.5264 55.8416C79.7822 55.9957 79.8261 56.2914 79.9815 56.5126C80.0336 56.6214 80.0072 56.737 80.0072 56.8488C80.0091 58.493 80.0079 60.1365 80.0104 61.7807C80.0116 61.8919 79.979 62.0081 80.043 62.1143Z" fill="white"/>
<path d="M88.0619 55.7465C87.0311 55.7577 85.9998 55.7502 84.9684 55.7545C84.9183 55.7545 84.8048 55.6949 84.8255 55.8366C85.1452 56.1454 85.3214 56.5039 85.3177 56.9631C85.3058 58.5849 85.3177 60.2067 85.3076 61.8285C85.3064 62.0535 85.3528 62.1268 85.5948 62.1224C86.4807 62.1069 87.3666 62.1168 88.2525 62.1168C88.3051 61.9031 88.275 61.6856 88.2757 61.4706C88.2788 59.6643 88.2776 57.8579 88.2769 56.0509C88.2776 55.9006 88.3233 55.7434 88.0619 55.7465Z" fill="white"/>
<path d="M101.839 52.2401C101.786 53.1746 101.824 54.1098 101.821 55.0449C101.821 55.0617 101.844 55.0779 101.857 55.0947C103.624 55.0947 105.392 55.0947 107.16 55.0947C107.24 54.1433 107.207 53.192 107.176 52.2401C105.398 52.2401 103.618 52.2401 101.839 52.2401Z" fill="white"/>
<path d="M95.4652 20.4468C95.4408 20.348 95.4126 20.2498 95.3912 20.1504C95.2339 19.3997 94.8533 18.7815 94.2891 18.2595C93.7116 17.7251 93.0157 17.4635 92.2564 17.3293C92.1549 17.2958 92.0495 17.3113 91.9461 17.3113C89.1718 17.3101 86.3975 17.3107 83.6231 17.3107C83.2683 17.3107 83.2677 17.3113 83.2677 17.6586C83.2677 21.4522 83.2677 25.2463 83.2658 29.0398C83.2658 29.151 83.2971 29.2672 83.2351 29.3741C83.1924 29.3989 83.1498 29.4468 83.1078 29.4462C82.7191 29.4412 82.4219 29.622 82.1636 29.8861C82.2256 30.0663 82.378 29.9718 82.4808 29.9725C85.5203 29.9787 88.5605 29.9774 91.6 29.9774C91.6934 29.9774 91.7875 29.9886 91.8796 29.9632C92.9185 29.9246 93.8025 29.5363 94.5166 28.7881C95.0546 28.2245 95.3242 27.5298 95.4665 26.7792C95.4978 26.6785 95.4828 26.5748 95.4834 26.4723C95.4847 24.5665 95.4847 22.6607 95.4834 20.755C95.4834 20.6512 95.4991 20.5474 95.4652 20.4468ZM91.8326 25.186C91.8056 25.9112 91.2489 26.407 90.5229 26.4145C89.4075 26.4263 88.2915 26.4126 87.1761 26.4225C86.9749 26.4244 86.936 26.3561 86.9379 26.1728C86.9473 25.3358 86.9417 24.4988 86.9417 23.6618C86.9417 22.8353 86.9473 22.0083 86.9373 21.1819C86.9348 20.9936 86.9812 20.9358 87.178 20.9377C88.2834 20.947 89.3887 20.9358 90.4934 20.9445C91.2376 20.9501 91.8044 21.4422 91.8326 22.181C91.8715 23.1814 91.8696 24.1856 91.8326 25.186Z" fill="white"/>
<path d="M56.995 44.9451C56.2126 44.9538 55.4301 44.9594 54.6476 44.9426C54.3937 44.937 54.3128 44.9954 54.3147 45.2614C54.3279 46.854 54.321 48.4466 54.321 50.0385C54.321 51.641 54.3241 53.2442 54.3172 54.8467C54.3166 55.0406 54.3561 55.1145 54.5712 55.1108C55.385 55.0978 56.1988 55.1015 57.0126 55.1089C57.1825 55.1108 57.2445 55.0723 57.2439 54.8896C57.2383 51.6529 57.2383 48.4161 57.2445 45.18C57.2452 44.9812 57.1781 44.9426 56.995 44.9451Z" fill="white"/>
</svg>
