<svg width="23" height="22" viewBox="0 0 23 22" fill="none" xmlns="http://www.w3.org/2000/svg">
<path d="M10.1988 5.24003L6.81576 1.33503C6.42576 0.88503 5.71076 0.88703 5.25776 1.34103L2.47576 4.12803C1.64776 4.95703 1.41076 6.18803 1.88976 7.17503C4.75138 13.1 9.52981 17.8851 15.4508 20.755C16.4368 21.234 17.6668 20.997 18.4948 20.168L21.3028 17.355C21.7578 16.9 21.7588 16.181 21.3048 15.791L17.3848 12.426C16.9748 12.074 16.3378 12.12 15.9268 12.532L14.5628 13.898C14.4929 13.9712 14.401 14.0195 14.3011 14.0354C14.2012 14.0513 14.0989 14.0339 14.0098 13.986C11.7802 12.7021 9.93076 10.8503 8.64976 8.61903C8.60179 8.52978 8.58442 8.42726 8.60032 8.32719C8.61621 8.22711 8.6645 8.13502 8.73776 8.06503L10.0978 6.70403C10.5098 6.29003 10.5548 5.65003 10.1988 5.23903V5.24003Z" stroke="#F8F6E9" stroke-width="2" stroke-linecap="round" stroke-linejoin="round"/>
</svg>
