<svg width="163" height="188" viewBox="0 0 163 188" fill="none" xmlns="http://www.w3.org/2000/svg"><g clip-path="url(#a)" fill="#F8F6E9"><path d="M143.75 181.234c.01-.352-.177-.421-.466-.327-.089.03-.142.037-.192-.043-.2-.167-.46.014-.667-.114-.698.026-1.399.085-2.084-.115a2.023 2.023 0 0 0-.756.003c-.331.078-.643-.015-.955-.102-.288-.074-.59.036-.878-.064-.652.057-1.316-.119-1.962.089-.398-.207-.821-.16-1.243-.115-.445.065-.89.037-1.336 0-.219-.082-.461.033-.678-.072l-.462-.026c-.16-.065-.34.019-.497-.066-.152-.01-.303-.019-.454-.03-.321-.072-.654.035-.973-.064-.236-.006-.458.139-.666.134-.434-.008-.873-.319-1.29.069-.02.019-.107.003-.13-.024-.256-.304-.6-.178-.906-.166a4.27 4.27 0 0 1-.883-.045c-.448-.073-.906.042-1.353-.062-.499-.01-.998-.019-1.498-.027a2.083 2.083 0 0 0-.755.004c-.096.022-.181.166-.291.025-.184-.099-.375-.06-.565-.028-.255.081-.511.015-.766.001-.425-.06-.853-.016-1.279-.027-.98-.025-1.96.047-2.939-.04-.116.006-.235.036-.342-.038a.617.617 0 0 0-.57.006h-.478c-.218-.073-.456.039-.671-.068-.302-.051-.595.037-.872.109-.637.165-1.249-.146-1.875-.046-.177-.15-.365-.167-.564-.045-.076.092-.126.231-.292.154-.079-.085-.069-.311-.286-.175-.126.146-.253.138-.381.003-.218-.09-.44-.052-.662-.021-.382-.07-.769.311-1.149-.013a25.468 25.468 0 0 0-2.176.007c-.225.079-.449.229-.674.002a1.357 1.357 0 0 0-.564.002c-.156.008-.315.04-.468.021-1.082-.135-2.17-.046-3.254-.096a1.005 1.005 0 0 0-.546.099c-.14.085-.235.03-.308-.095-.278-.017-.541 0-.792.161a.692.692 0 0 1-.532.099c-.376-.08-.759-.129-1.14-.19-.191-.065-.401.026-.592-.064l-.927-.026a3.066 3.066 0 0 0-.85-.006c-.447.143-.893.207-1.338 0-.917-.03-1.834-.047-2.75.009-.288.08-.575.023-.861-.006-.239-.001-.522-.154-.663.186a.086.086 0 0 1-.09.015c-.052-.034-.112-.051-.168-.075a3.91 3.91 0 0 0-.302-.057.163.163 0 0 0-.112.038c-.221.063-.441.022-.66-.011-.155-.07-.334.028-.483-.072l-.469-.025c-.158-.032-.315-.046-.47.01-.594-.019-1.183.014-1.782-.04-1-.091-2.038-.142-3.02.024-.885.15-1.743.125-2.617.102-.315-.082-.645.041-.957-.072l-.754-.022c-.256-.077-.529.032-.783-.066-.388.01-.783.136-1.141.141-.56.008-1.135.01-1.702-.048-.404-.042-.814-.019-1.222-.025-.378-.05-.755-.033-1.134-.011-.219.25-.457 0-.69.018-.849.067-1.703.138-2.553-.016-.226-.008-.463-.095-.66.091-.09.052-.161.049-.19-.068-.441-.08-.884-.046-1.327-.02l-.101.012c-.917-.063-1.835-.047-2.753-.008-.384.053-.775-.015-1.158.111-.472.154-.934-.093-1.406-.092l-2.841.006a1.37 1.37 0 0 1-.775-.006h-.098c-.226.101-.465.043-.698.047-1.73.023-3.462-.035-5.192.031-.51-.012-1.005.256-1.526.089a9.463 9.463 0 0 0-1.515.002c-.55.153-1.105.055-1.66.036-.773-.026-1.546-.009-2.32-.01-.57.111-1.151-.015-1.723.068-.485.007-.97.016-1.454.019a7.537 7.537 0 0 0-1.308.106c-.471-.114-.946-.048-1.42-.034-.765-.041-1.515.253-2.286.102a2.253 2.253 0 0 0-.755-.006c-.078.008-.155.019-.233.021-.892.025-1.785.065-2.679.01-.381.128-.795-.076-1.17.114-.134.135-.274.094-.422.023-.223-.107-.521-.129-.683-.032-.47.283-.919.112-1.379.052a2.446 2.446 0 0 0-.754 0l-1.034.027c-.347.109-.709-.01-1.058.067-.977.113-1.954.217-2.94.119-.182.106-.393-.007-.578.074-.347.077-.683.29-1.052.085a2.227 2.227 0 0 0-.657.002.391.391 0 0 0-.332.183c-.382-.337-.837-.067-1.25-.149-.194.091-.416-.019-.609.08l-.003.002c-.222-.008-.292.236-.478.288a27.612 27.612 0 0 1-.175-.096c-.102.373-.05.75-.03 1.126.094.252.021.506.007.759-.05.375-.047.75 0 1.125.1.222.25.443 0 .665a6.193 6.193 0 0 0 0 1.314c.246.161-.15.317-.005.476-.04.28-.036.561-.003.842.072.183.001.395.12.568h.19a65.822 65.822 0 0 1 3.375-.911c1.104-.266 2.218-.518 3.345-.656.79-.096 1.354-.349 1.519-1.176.049-.162.178-.238.316-.325.563-.359.92-.985 1.61-1.159.05.15.11.346.137.547.05.385-.078.475-.471.341.073-.181.377-.381.084-.547-.27-.153-.46.087-.576.329-.062.128-.093.265-.126.403-.03.135-.03.282-.145.391-.158-.002-.21-.181-.351-.207-.194-.037-.397-.082-.379.227.284.61.617.825 1.077.636.205-.084.382-.086.59-.071.549.036.773-.108.863-.509.101-.453.101-.453.689-.26-.326.012-.58.063-.492.377.084.299.342.207.558.175.062-.01-.017-.001.046-.011.629-.091 1.25-.215 1.886-.274 1.54-.143 3.089-.232 4.617-.497.263-.045.504-.208.785-.148.426.093.846.019 1.272-.005.665-.039 1.316-.167 1.973-.224.968-.083 1.945-.061 2.918-.087 1.32-.036 2.64-.129 3.962-.083.425.014.816-.229 1.206-.191.681.068 1.341.002 2.016-.025 1.498-.06 2.999-.266 4.495-.168 1.15.075 2.272-.284 3.423-.104.498.078 1.004-.099 1.513-.088 1.136.022 2.274-.151 3.408.009 1.03.145 2.05-.254 3.078-.021.09.021.19-.012.283-.03.266-.052.545-.091.803-.039 1.236.254 2.481-.274 3.713.06.044.012.094-.006.141-.009 1.375-.061 2.743-.19 4.127-.082 1.228.097 2.468.033 3.701-.002a41.99 41.99 0 0 1 3.688.052c.207.013.41.009.616-.002 1.199-.065 2.401-.009 3.6-.06.666-.028 1.305.149 1.978.109 1.198-.073 2.4-.094 3.6-.158.49-.026.934.146 1.407.18 1.8.13 3.602.058 5.403.091.174.002.349-.057.52-.017.744.172 1.504.18 2.258.199 1.325.033 2.651-.076 3.976.093 1.049.133 2.107.086 3.164.093.81.006 1.633.103 2.445.176 1.258.112 2.52.052 3.775.184.597.064 1.212-.076 1.8.014 1.303.197 2.619.144 3.925.276 1.998.201 3.997.405 5.996.605 1.14.114 2.281.122 3.426.321 1.5.262 3.017.475 4.538.634.689.072 1.351.316 2.04.413.665.093 1.399-.111 1.962.44.039.039.121.029.184.04.517.083 1.03.152 1.546-.044.292-.111.501-.064.57.32.062.339.314.446.641.265.01-.294.226-.179.379-.189.079-.094.271.022.298-.135.019-.113-.142-.077-.196-.144-.151-.141-.137-.307-.001-.424.199-.171.175.136.291.161.21-.028.12-.182.126-.295l-.062-.957c.117-.076.072-.195.073-.297.001-.711.009-1.422-.003-2.134-.046-.039-.046-.077 0-.116.034-.384-.044-.774.045-1.157a13.18 13.18 0 0 1-.014-.889zM18.606 72.506c.244.015.488.111.427.441-.026.14-.183.333.02.385.207.053.494.125.636-.176.156-.087.338.002.497-.07.194-.155.01-.172-.082-.236-.14-.095-.153-.24-.056-.36.1-.125.227-.115.36-.007.277.224.385.466.142.778.06.263.313.061.434.176.28-.058.552.24.834.013a.409.409 0 0 1 .093-.053c.113.005.017.12.08.15.123.068.25.045.38.02l1.432.095c.221.066.458-.037.676.065.314-.023.628-.08.938.022.221.037.442.057.662-.01l.672.02c.251.023.502.04.753-.01.445-.065.89-.047 1.335 0 .224.08.465-.029.687.07l.645.026c.25.079.519-.038.766.072l.756.027c.253.022.506.062.756-.026.267-.214.51.075.768.035.219-.004.444.07.656-.044l1.12.097c.21-.068.42-.058.63-.002l.346.029c.702.086 1.41-.043 2.112.067 1.07-.001 2.141-.04 3.212.027.155.047.314.025.471.025 1.173.002 2.345.003 3.518 0 .207-.001.42-.028.5.232.422-.17.854-.26 1.309-.162.67.088 1.326-.123 1.992-.106.568.102 1.143.377 1.688-.09.064-.054.254-.037.213.134-.034.145.088.133.108.112.296-.326.579.047.863.006.55-.08 1.083-.108 1.653-.019 1.076.169 2.175-.1 3.263.035a.836.836 0 0 1 .587 0l.28.023c.575.057 1.152.01 1.728.026.166.005.352-.048.46.14.49-.172 1.002-.227 1.515-.27.136.168.297.17.474.07.048-.132-.092-.518.193-.332.377.247.778.143 1.145.276.257.067.527-.036.78.062l.415-.002c.26-.089.531-.02.794-.062.25-.04.47.294.736.062.096-.04.102-.099.039-.173.085.045.094.14.139.21a.132.132 0 0 0 .067.059l.344-.088c.172-.082.346-.054.52-.007.145.01.264.09.43.085.637-.016 1.275.023 1.913.042.252.038.503.038.754 0l.182-.027a.609.609 0 0 1 .495.002c.17-.03.111.287.178.194.25-.352.709-.057.954-.35.171.11.326.293.561.123.474-.19.962.063 1.438-.043.316.091.649-.034.964.074.308-.297.878.22 1.141-.454-.138.549.186.454.425.458.269.005.539.019.804-.006.12-.013.432.179.323-.23-.029-.108.18-.043.272-.038.112.006.255-.083.337.067.15.272.151.276.367.023.037-.045.082-.125.098-.036.08.428.425.234.586.19.285-.081.557-.069.836-.07.189-.094.4.007.592-.07.414-.07.828-.02 1.24.005.286.075.585-.038.868.067l.748.025c.256.076.528-.033.782.067.43-.012.869-.15 1.264-.153.43-.003.893-.005 1.34.054.45.06.912.028 1.368.036.474.03.948.047 1.42-.01.473-.093.966-.048 1.43-.048.292 0 .66-.248.951.042.155.064.313.042.47.016.133-.023.266-.065.395.016.215-.03.45.097.648-.073.11-.11.128.065.202.064.44.027.879.02 1.318.004l.104-.022c1.273.045 2.546.075 3.819-.022.381-.14.754-.026 1.128.039 1.075.02 2.15.036 3.223-.008 2.248-.094 4.496.009 6.744-.025.183-.108.396.008.582-.076l.012-.009c.203-.126.436-.023.648-.084.229.021.458.038.686.063.873.094 1.748-.225 2.62.008.734-.105 1.473.011 2.206-.063.286-.119.574-.164.862-.005.379.044.757.046 1.137 0 .919-.036 1.843.005 2.76-.097a6.37 6.37 0 0 0 1.327.005c.284-.012.568-.012.851-.038.225-.022.411-.07.32-.395-.124-.442.003-.568.525-.599-.132.201-.23.41-.288.638-.098.398.159.337.397.3l1.801-.023c.439-.122.895.021 1.335-.078l.48.001c.473.057.947.04 1.42.01 1.014-.1 2.027-.212 3.048-.1a.888.888 0 0 0 .471 0l1.106-.027c.355-.1.723.01 1.078-.064.975-.12 1.952-.213 2.937-.121.184-.1.392-.001.58-.065.357.022.683-.244 1.052-.105.219.058.439.039.66.011.195.005.276-.112.366-.27.131-.232.368-.199.499.043.208.285.495.12.752.13.346.023.663-.171 1.019-.128.133.016.261-.085.295-.245.043-.202-.128-.222-.246-.28-.066-.034-.16-.007-.209-.107.128-.098.452.064.42-.16-.05-.359-.003-.71-.024-1.064-.02-.317-.459-.636.002-.954.079-.055-.023-.102-.023-.15.003-.529-.076-.936-.602-1.305-.52-.366-.78-1.042-1.29-1.497-.309-.277-.587-.303-.813-.129-.261.202-.492.162-.771.197-.813.1-1.613.31-2.42.466-.309.06-.511.187-.46.632-.192-.656-.62-.412-.981-.365-.366.048-.81.034-.693.72-.081-.58-.439-.452-.745-.442-.079.003-.158-.005-.237-.008-.152.096-.332 0-.488.072-.337.056-.68.09-.972.3-.044.032-.12.149-.187.049-.172-.26-.376-.092-.578-.075-.248.022-.469.183-.729.123-.344.117-.706-.013-1.052.073-.594.102-1.186.225-1.794.212-.152.095-.332-.001-.488.071l-.368.023c-.184.1-.395-.005-.582.07-.61.072-1.218.157-1.83.212-.532.047-1.045.403-1.601.104-.011-.006-.031-.001-.046.002-.539.134-1.091.13-1.638.135-.397.004-.761.22-1.163.136-.321-.054-.645-.14-.949.066-.629.055-1.253-.062-1.88-.063-.188.096-.4-.009-.589.071-.266.006-.534.025-.8.013-.4-.02-.806.27-1.201-.017-.121-.055-.21 0-.288.085-.721-.098-1.434-.09-2.14.12-.314.093-.608.306-.967.199-.286.1-.589-.01-.878.064-.191.184-.439.01-.6.062-.541.177-1.082-.008-1.607.08-1.161.193-2.322.104-3.484.074-.617.012-1.224.131-1.836.19-.238-.113-.477-.082-.73-.045-.376.055-.755.207-1.141.043-.152.096-.333-.002-.488.073-.383-.073-.762.233-1.144.008-.22-.056-.444.102-.662-.013-.35.234-.7.1-1.05 0-.411-.034-.821-.052-1.231.01-.102.078-.215-.006-.316.018-.464.106-.984-.206-1.417.222-.144.142-.266-.03-.27-.216-.214-.113-.437-.056-.659-.03-.14.13-.313.117-.485.11-.83-.03-1.66-.064-2.49-.09-.153-.004-.326-.054-.448.082-.167.187-.376.145-.57.098a8.239 8.239 0 0 0-1.431-.207 1.063 1.063 0 0 0-.469.002l-1.148.089a1.02 1.02 0 0 0-.468.01c-.35.238-.701.228-1.051 0-.282-.053-.565-.032-.848-.013-.774.01-1.556.089-2.32.004-.444-.049-.773.29-1.291.103-.555-.2-1.255.027-1.89-.001-.276-.013-.556-.081-.84-.077-.747.013-1.499.072-2.243.026-.869-.054-1.732.136-2.597-.013.044.128.071.233.114.331.043.101-.02.155-.089.18-.031.01-.122-.045-.13-.082-.11-.468-.532-.407-.826-.409-1.118-.006-2.238.079-3.356.062-.331-.005-.658.275-.988.019-.148-.165-.19.038-.28.078-.348.067-.618-.214-.952-.211-.154-.07-.333.028-.482-.072-.5-.008-.998.104-1.498.002-.451.07-.903.074-1.355-.002l-.403.028c.01.192.14.348.04.595-.16-.67-.643-.66-1.14-.623-.344.115-.705-.01-1.052.069l-.282.024c-.31-.134-.62-.247-.95-.064l.272.434c-.168.012-.319.083-.408-.12-.17-.388-.512-.43-.884-.427-.328.003-.656-.023-.985-.038a4.616 4.616 0 0 0-1.04.005 5.41 5.41 0 0 1-1.335 0c-.16-.065-.341.019-.498-.066l-.454-.03c-.16-.06-.34.02-.497-.064l-.644-.032c-.32-.069-.653.037-.972-.062-.725.017-1.457.146-2.165-.127-.221-.067-.46.037-.677-.065-.444.186-.88.058-1.32-.029-.154-.06-.33.031-.48-.067-1.147.163-2.277-.102-3.416-.119a1.01 1.01 0 0 0-.47-.002c-.151.014-.265.145-.437.114-.425-.078-.853-.14-1.279-.207-.16-.06-.34.02-.498-.064-.435.139-.88-.047-1.317.03-.197-.202-.469.002-.679-.124-.856.011-1.696-.156-2.544-.219-.326-.073-.662.033-.987-.062-.347.04-.672-.096-1.01-.128-.157-.059-.334.027-.487-.066-.154-.009-.309-.017-.463-.027-.157-.063-.335.026-.488-.067l-.367-.022c-.16-.07-.34.018-.498-.07-1.243.272-2.398-.216-3.59-.402-.153-.049-.31-.028-.465-.016-.116.082-.247.052-.367.03-.675-.127-1.347-.264-2.02-.397-.32-.07-.65.038-.967-.063-.299-.232-.669-.047-.995-.176-.516-.204-1.067-.283-1.625-.294-.169.058-.336.074-.504-.005-.296-.103-.531-.337-.85-.394-.16-.074-.342.014-.5-.07-.077-.008-.17.009-.23-.027-.769-.46-1.681-.498-2.49-.833-.187-.078-.451-.017-.406.103.115.301-.14.472-.146.7-.016.55.018 1.104.032 1.657.026.23-.147.52.202.653-.195.266.184.55.015.777-.41.554-.194 1.175-.258 1.766-.017.165.046.172.207.182zM53.738 26.756c6.154.008 12.308.008 18.461.005.152 0 .318.056.456-.06-.004-2.334-.017-4.667-.003-7 .002-.357-.096-.444-.446-.435-.948.026-1.896.012-2.844.009l-5.922-.023c-.075-.097-.049-.21-.049-.317V8.029c0-.108-.026-.22.049-.318.173-.008.347-.023.52-.023 4.656 0 9.312-.004 13.969.008.345 0 .448-.068.445-.43-.019-2.4-.01-4.803-.011-7.204-.13-.088-.277-.049-.416-.049C70.618.01 63.29.01 55.96.013c-.135 0-.287-.056-.405.065.003.062.01.126.01.188 0 8.318 0 16.635-.003 24.953 0 .123-.03.244-.044.367-.167.116-.366-.002-.539.076-.691.121-1.278.425-1.734.964.103.265.332.13.492.13zM81.73 26.759c3.081.006 6.163.005 9.245.002.136 0 .286.05.408-.06.001-5.314.004-10.627.002-15.941 0-1.42 1.118-2.781 2.546-2.986.156-.086.335-.003.495-.065h4.189c.16.06.338-.021.494.065.79.215 1.434.622 1.927 1.293.637.865.664 1.839.623 2.838.025.02.049.058.074.058 2.469.02 4.938.004 7.407.012.219.001.264-.103.261-.29-.021-1.645.035-3.292-.03-4.937-.046-.258-.081-.52-.142-.774-.842-3.431-3.613-5.714-7.197-5.935-.17-.053-.345-.027-.517-.027-3.456-.002-6.911-.002-10.367 0-.173 0-.347-.022-.518.022-.248.04-.496.078-.743.119-1.938.316-3.527 1.255-4.725 2.771-1.115 1.413-1.588 3.053-1.58 4.862.026 5.762.01 11.525.008 17.288 0 .17-.022.342-.033.512-.166.114-.362.003-.533.072-.704.11-1.302.408-1.75.972.097.229.3.129.456.129zM109.362 32.464c-2.419 0-4.84.01-7.26-.008-.359-.003-.465.09-.44.442.032.453.026.91.004 1.363-.068 1.32-1.06 2.37-2.213 2.423-1.672.077-3.35.01-5.028.004-.158-.069-.34.018-.497-.069-1.335-.16-2.496-1.503-2.528-2.73-.054-2.066-.02-4.137-.021-6.205-.044-.05-.1-.068-.167-.068-3.095 0-6.19 0-9.284.002-.098 0-.239-.043-.239.138 1.222.663 1.878 1.686 1.896 3.063.026 1.944.004 3.887.009 5.832 0 .51.016 1.017.102 1.526a7.28 7.28 0 0 0 2.085 4.013c1.147 1.142 2.547 1.86 4.182 2.073.185.075.394-.034.576.072l.187.03c.094.024.189.019.284.019h11.071c.111 0 .223.014.329-.028.213-.036.426-.077.64-.11 1.993-.308 3.551-1.326 4.787-2.875.873-1.095 1.308-2.367 1.535-3.724.059-.902.024-1.805.022-2.708-.001-.828.048-1.652-.032-2.475zM103.23 111.141c-.577.099-1.122.252-1.407.834.085.249.297.129.445.13 2.154.008 4.308-.005 6.461.016.407.004.49-.124.489-.502-.013-3.548-.008-7.094-.006-10.641 0-.17-.042-.346.044-.509.004-.903.736-1.826 1.614-1.976 1.155-.198 2.333-.153 3.483-.06 1.529.125 2.211 1.08 2.225 2.273.046 3.778.012 7.558.009 11.337.069.091.17.067.261.067h5.072c.091 0 .193.024.261-.067-.003-1.16-.01-2.319-.009-3.478.003-3.446.008-6.894.013-10.34-.11-.213.007-.45-.072-.666-.314-1.414-.928-2.646-2.128-3.541-.818-.611-1.751-.921-2.742-1.097-.17-.05-.344-.025-.517-.025-2.159-.002-4.319-.005-6.478 0-.582.002-1.165-.032-1.746.025-2.667.324-4.563 2.204-4.873 4.827-.045.17-.023.343-.023.515-.001 4.107 0 8.213-.003 12.32 0 .168.049.345-.048.506-.109.017-.218.033-.325.052zM45.765 111.72c.207-1.362.452-2.718.69-4.076.302-1.738.616-3.474.918-5.214.204-1.173.387-2.351.602-3.523.02-.103-.018-.343.177-.328.197.016.162.218.188.373.144.82.33 1.634.453 2.457.117.782.27 1.555.411 2.332.148.817.25 1.642.395 2.459.207 1.164.44 2.323.653 3.486.159.863.325 1.725.447 2.594.034.246.123.259.316.259 1.663-.005 3.326-.012 4.99.004.312.003.34-.133.297-.365-.306-1.706-.618-3.411-.92-5.117-.266-1.508-.523-3.018-.783-4.527-.264-1.541-.52-3.085-.79-4.626-.269-1.538-.562-3.073-.815-4.614-.042-.26-.103-.341-.366-.34-2.978.007-5.955.007-8.933 0-.225-.001-.271.065-.308.28-.126.734-.258 1.466-.383 2.199-.26 1.535-.579 3.063-.848 4.597-.239 1.358-.434 2.724-.665 4.082-.208 1.227-.438 2.449-.661 3.673-.223 1.219-.472 2.433-.658 3.657-.046.297-.18.255-.36.268-.691.052-1.38.11-1.836.828h6.894c.801-.001.77-.006.895-.818zM31.735 111.94c.001-1.552-.01-3.103.009-4.655.005-.351-.09-.451-.448-.448-1.898.018-3.795.009-5.693.009-.52 0-.521-.001-.521-.498 0-2.429 0-4.859.002-7.288 0-.153-.041-.314.046-.46.163-.09.341-.045.511-.045 3.242-.003 6.482-.001 9.724-.006.167 0 .348.063.503-.06-.004-1.629-.03-3.259.001-4.888.009-.474-.14-.564-.581-.552-1.233.03-2.466.011-3.7.01l-12.048-.012c-.123.154-.06.334-.061.5-.004 5.776-.003 11.553-.006 17.33 0 .168.049.345-.047.506-.15.041-.297.112-.448.119-.539.026-.9.325-1.291.759h14.01c.056-.101.038-.213.038-.321zM61.946 111.307c-.528.037-.898.321-1.29.759h7.355c.07-.166.035-.341.036-.511.002-3.531 0-7.061.004-10.591 0-.169-.04-.345.038-.51-.106-.974 1.128-2.197 2.091-2.053a22.133 22.133 0 0 1 3.073-.004c.345.002.661.092.956.271.874.53 1.283 1.306 1.219 2.313-.022.342.063.454.433.448 1.596-.022 3.194-.018 4.792-.003.305.003.366-.095.362-.375-.014-.94 0-1.88.004-2.821-.104-.216.007-.454-.07-.672-.126-.493-.22-.997-.44-1.465-.83-1.769-2.248-2.776-4.144-3.173-.154-.07-.333.028-.482-.072-1.63.005-3.26-.005-4.89.018-1.308.018-2.621-.1-3.926.076-1.267.17-2.373.702-3.216 1.65-.791.893-1.322 1.932-1.387 3.155-.04.17-.02.344-.02.516-.002 4.139 0 8.278-.004 12.417 0 .168.05.345-.048.506-.147.042-.295.11-.446.121zM58.323 125.111c.156.002.243-.058.193-.23-.22-.918-.348-1.853-.51-2.782-.498-2.845-1.011-5.688-1.514-8.532-.056-.317-.147-.479-.552-.478-5.73.02-11.46.014-17.19.014h-.53c.214.138.34.2.443.289.606.518 1.11 1.053.854 1.973-.2.725-.282 1.484-.408 2.228-.205 1.225-.4 2.451-.605 3.676-.213 1.268-.487 2.525-.637 3.804.029.012.058.034.088.035 1.761.012 3.523 0 5.284.01.201.001.282-.088.327-.254.052-1.054.33-2.074.487-3.111.168-1.098.394-2.187.595-3.28.04-.022.079-.048.13-.048 2.21-.005 4.421 0 6.633-.002.128 0 .256-.005.318.141.08.525.149 1.052.24 1.574.177 1.01.364 2.018.552 3.027.118.634.243 1.268.365 1.902 1.813.104 3.626.018 5.437.044zM88.452 111.32c-.523.013-.953.244-1.279.655.074.22.263.131.403.131 2.163.006 4.326.005 6.49.002.12 0 .255.048.356-.066-.004-4.439-.004-8.878-.016-13.317-.001-.285.106-.326.356-.326 1.661.009 3.323.004 4.986.004.075-.097.049-.21.05-.318.002-1.6-.01-3.198.01-4.798.004-.36-.142-.398-.447-.398-5.157.007-10.315.009-15.472-.003-.361-.001-.45.099-.446.449.019 1.52.007 3.041.01 4.562 0 .169-.048.345.049.506 1.647 0 3.295.008 4.942-.005.294-.001.402.054.401.379-.012 4.034-.01 8.068-.003 12.102 0 .283-.063.433-.39.441zM122.113 120.448c.063-.196-.021-.406.063-.599l.006-6.636c-.074-.083-.174-.062-.266-.062a4282.46 4282.46 0 0 0-5.069 0c-.092 0-.192-.021-.265.062.004 1.538.009 3.075.012 4.613.002.862-.777 1.737-1.528 1.78a33.84 33.84 0 0 1-3.755.006c-.942.109-2.179-1.121-2.059-2.068-.078-.148-.04-.308-.041-.463-.004-1.177-.011-2.355.003-3.532.004-.295-.059-.41-.39-.407-1.933.016-3.865.006-5.798.011-.126 0-.299-.074-.353.134.441.369.725.836.892 1.379.071.166.036.341.038.512.016 1.693-.026 3.387.022 5.08.022.859.319 1.652.765 2.353.883 1.387 2.155 2.25 3.825 2.473.159.069.34-.019.496.068 2.673.003 5.347.001 8.019.01a5.004 5.004 0 0 0 2.419-.585c1.644-.89 2.652-2.276 2.964-4.129zM18.793 150.267c1.644-.001 3.287.001 4.93-.003.15-.001.317.064.45-.066-.002-3.009-.017-6.019-.003-9.028.006-1.23.761-1.925 2.01-1.928.712-.002 1.425-.017 2.136.004 1.026.031 1.753.796 1.764 1.823.081.164.042.339.042.509.002 2.744.009 5.487-.007 8.231-.002.374.103.475.475.468a80.611 80.611 0 0 1 3.512.001c.396.008.497-.106.496-.495-.016-3.512-.009-7.024-.01-10.537 0-.14.018-.282-.024-.42-.115-.804-.385-1.546-.869-2.211-.734-1.007-1.77-1.511-2.957-1.768-2.374-.046-4.75-.038-7.123-.005-2.253.299-3.709 1.844-3.92 3.795-.052.168-.027.343-.027.513-.002 3.246 0 6.493-.003 9.738 0 .17.04.345-.039.51-.25.06-.511.096-.751.185-.331.122-.64.291-.648.714.187-.049.377-.03.566-.03zM71.686 125.109c1.496 0 2.993.034 4.489-.02a5.528 5.528 0 0 0 3.417-1.783c.745-.81 1.143-1.794 1.356-2.857.079-.222-.03-.461.07-.681v-3.158c-.07-.091-.17-.067-.261-.067h-5.072c-.091 0-.193-.024-.262.067.003.406.017.814.008 1.22-.025 1.051-.979 1.784-1.773 1.784-1.2-.001-2.402.033-3.598-.023-1.164-.055-2.075-1.233-1.966-2.053-.09-.178-.04-.369-.044-.554-.028-1.294.047-2.59-.04-3.883H61.05c.903.74.903.74 1.345 1.697.093.161.044.336.046.505.02 1.652-.03 3.305.027 4.956.242 2.677 2.501 4.746 5.062 4.828 1.386.059 2.772.021 4.157.022zM64.19 143.208c1.243-.018 2.489-.006 3.734-.01.12 0 .253.044.36-.061v-4.119c-.108-.18.006-.389-.074-.572-.03-.07-.072-.138-.09-.212-.493-1.943-1.795-3.011-3.733-3.391-.549-.054-1.099-.025-1.647-.021-1.319.009-2.638-.041-3.956.026-.137.033-.273.074-.412.097-1.85.311-3.173 1.841-3.416 3.598-.066.184.037.389-.068.57l.007 5.608c.085.193-.002.404.065.599.091 1.018.592 1.852 1.36 2.466 1.222.978 2.723 1.313 4.239 1.572.671.114 1.353.191 1.998.402-.136.2-.452.158-.438.458.081.065.178.049.272.049h5.529c.093 0 .19.016.272-.05-.05-.337-.074-.679-.156-1.008-.467-1.894-1.843-2.875-3.606-3.407-1.327-.4-2.704-.58-4.076-.778-.308-.045-.698-.016-.908-.359-.106-.367-.048-.743-.043-1.114.013-.949-.067-1.9.042-2.849.102-.776.795-1.384 1.61-1.413a5.355 5.355 0 0 1 1.537 0c.543.163.972.45 1.138 1.025.096.824.036 1.65.035 2.474 0 .328.093.425.424.42zM63.069 27.61c-3.058.009-6.114.004-9.17.009-.089 0-.246-.069-.23.13.447.232.876.48 1.158.923.323.506.73.997.731 1.617.013 4.677.001 9.354-.003 14.03.14.117.305.06.457.06 2.28.004 4.562.004 6.843.004.536 0 .537-.001.537-.53v-13.28c0-.864-.006-1.728.004-2.591 0-.238-.028-.373-.327-.373zM44.053 150.203c.012.01.025.027.038.028 1.418.08 2.837.016 4.256.035.158.002.242-.064.19-.233-.292-1.055-.592-2.108-.876-3.165-.785-2.933-1.569-5.867-2.344-8.803-.28-1.059-.533-2.124-.797-3.186-.141-.11-.306-.056-.459-.056-1.834-.004-3.67-.003-5.505-.003-.542 0-.543.001-.543.523 0 4.515 0 9.031-.002 13.545 0 .17.039.345-.039.51-.154.141-.357.06-.534.114-.393.123-.765.253-.887.705.067.053.146.051.224.051l5.484-.001c.091 0 .192.024.26-.067v-5.596l.069-.005 1.465 5.604zM151.737 150.214c.387.004.5-.081.498-.482-.019-2.902-.01-5.803-.009-8.706 0-.881.564-1.601 1.434-1.743.976-.159 1.957-.126 2.94.003.765.101 1.526.848 1.522 1.599.089.178.039.369.043.553.003.173.058.256.245.256 1.325-.003 2.649-.003 3.974 0 .181 0 .253-.07.25-.25-.019-.936.032-1.874-.027-2.81-.057-.241-.098-.487-.174-.72-.602-1.866-2.247-3.094-4.209-3.122-2.042-.028-4.086-.013-6.128 0-.34.002-.683.073-1.019.139-1.79.353-3.221 1.899-3.342 3.892-.045.17-.023.343-.023.515-.001 3.231 0 6.462-.003 9.693 0 .168.048.345-.048.506-.488.07-.991.112-1.264.666 1.802.001 3.572-.011 5.34.011zM.335 150.2c1.614.006 3.228.008 4.842.003.737-.002.637.096.638-.61.004-2.838 0-5.676.003-8.516.001-.927.426-1.558 1.327-1.779.937-.23 1.906-.111 2.86-.047.156.011.34.007.526.102.834.424 1.307 1.084 1.203 2.273.134.128.301.064.45.065.93.006 1.86.01 2.791 0 .406-.005.816.058 1.218-.047-.048-1.062.073-2.123-.082-3.187-.309-2.117-2.227-3.67-4.416-3.669-2.01 0-4.021-.016-6.032.004-2.222.022-4.05 1.599-4.322 3.751-.04.171-.02.343-.02.515-.002 3.321 0 6.643-.005 9.965 0 .168.05.345-.047.505-.363.1-.789.027-1.06.393-.053.071-.242.076-.205.203.048.157.219.075.33.076zM114.508 139.246c1.14-.005 2.28-.01 3.42.003.293.004.42-.052.414-.384a140.384 140.384 0 0 1-.002-3.671c.002-.277-.062-.382-.367-.381-4.131.009-8.262.009-12.394 0-.303-.001-.369.104-.366.381a136.13 136.13 0 0 1-.003 3.671c-.006.332.122.387.415.384 1.139-.013 2.279-.008 3.419-.003.154.001.317-.045.463.047.012.108.034.215.034.322l.001 4.787c0 1.58-.015 3.16.012 4.74.006.345-.112.476-.419.493-.394.022-.68.234-.944.494.065.229.258.132.393.133 1.701.007 3.403.005 5.104.004.108 0 .223.025.32-.05 0-3.47 0-6.94.003-10.41 0-.171.022-.341.033-.513.148-.092.31-.046.464-.047zM162.629 151.289c0-.054-.036-.084-.061-.121h-4.337c-.125.153-.056.332-.061.498-.032 1.159.051 2.319-.044 3.477-.067.638-.471.991-1.038 1.207a28.027 28.027 0 0 1-3.38.004c-.77.001-1.496-.971-1.486-1.655.014-1.035-.009-2.071.011-3.106.007-.322-.07-.425-.413-.422-1.646.019-3.293.007-4.938.013-.09 0-.216-.076-.293.089.621.204.852.734 1.086 1.262.067.182.032.373.035.56.018 1.239-.03 2.479.026 3.717.04.91.357 1.717.937 2.419.845 1.022 1.939 1.59 3.27 1.609 2.18.033 4.361.017 6.541.021.152-.094.332-.001.488-.069.139-.069.296-.049.446-.1 1.786-.621 2.843-1.851 3.188-3.69.057-1.904.014-3.809.023-5.713zM34.197 151.211c-1.09.003-2.18.001-3.269.001-.804 0-.793 0-.807.779-.018 1.014.063 2.03-.043 3.044-.011.809-.529 1.382-1.33 1.407-.884.027-1.77.025-2.654.011-1.139-.019-1.895-.752-1.92-1.89-.024-1.095 0-2.192.003-3.288a.225.225 0 0 0-.17-.063c-1.608-.001-3.216 0-4.824.001-.109 0-.229-.016-.258.136.318.313.611.642.704 1.097.071.166.035.341.038.512.018 1.348-.03 2.697.025 4.044.03.197.044.398.094.59.256.991.813 1.799 1.609 2.432.603.479 1.323.804 2.085.821 2.262.049 4.524.02 6.787.025.407.001.805-.049 1.188-.184 1.846-.651 2.848-1.97 3.114-3.872.049-1.768.001-3.536.026-5.304.003-.324-.184-.3-.398-.299zM86.473 151.211l-3.51.001c-.558 0-.55.001-.56.554-.02 1.095.055 2.19-.039 3.284-.03.726-.668 1.385-1.397 1.399-.916.017-1.834-.03-2.749.006-.895.035-1.796-.984-1.765-1.822.041-1.126.011-2.255.011-3.382-.03-.012-.059-.032-.088-.032-1.637-.012-3.274-.004-4.911-.005-.109 0-.23-.019-.256.136.304.298.585.611.691 1.039.094.161.045.336.047.504.021 1.37-.032 2.74.029 4.11.097.186.007.386.077.59.302.882.738 1.662 1.456 2.287.646.563 1.414.934 2.228.959 2.32.07 4.644.031 6.966.026.782-.002 1.479-.281 2.124-.703 1.183-.775 1.81-1.887 2.022-3.254.05-1.802.002-3.603.026-5.404.004-.329-.194-.293-.402-.293zM16.194 153.995c-.067-.052-.146-.051-.225-.051l-3.974.001c-.091 0-.192-.025-.26.067.002.297.012.594.008.89-.01.726-.383 1.194-1.057 1.444a26.345 26.345 0 0 1-3.441.004c-.766-.121-1.395-.788-1.412-1.561a92.312 92.312 0 0 1-.009-3.246c.004-.291-.082-.373-.375-.371-1.392.015-2.786.007-4.178.007H.13c.56.431 1.008.829 1.15 1.454.072.166.035.341.038.512.018 1.316-.03 2.633.026 3.949.038.595.275 1.123.573 1.626.77 1.296 1.938 2.06 3.429 2.118 2.148.083 4.303.016 6.455.01.88-.002 1.712-.239 2.418-.733 1.346-.942 2.015-2.258 1.978-3.911-.017-.735-.004-1.472-.005-2.209zM68.283 151.275c-.04-.024-.069-.06-.123-.06-1.824-.008-3.648-.001-5.473-.001-.085 0-.203-.022-.181.133.527.287 1.014.614 1.226 1.213.07.799.067 1.597 0 2.396-.158.59-.499 1.042-1.06 1.302-.746.345-1.54.265-2.296.108-.492-.103-.883-.466-.934-1.042-.096-.824-.036-1.65-.035-2.475 0-.328-.095-.424-.425-.419-1.245.018-2.49.006-3.736.01-.12 0-.255-.049-.355.066l.003 4.086c.085.193-.002.405.065.6.092.166.05.354.105.535.272.889.75 1.606 1.49 2.192.675.534 1.402.91 2.26.926 1.724.033 3.449.033 5.172.016.652-.006 1.286-.141 1.874-.463 1.293-.708 2.058-1.786 2.356-3.206.056-.16-.022-.336.063-.491l.004-5.426zM90.846 160.877c4.207-.015 8.415-.009 12.622-.008.08-1.45.024-2.9.027-4.35 0-.025-.035-.049-.054-.074-2.786.004-5.57.008-8.357.009-.06 0-.12-.029-.18-.044-.093-.145-.047-.306-.047-.459a946.008 946.008 0 0 1-.001-4.328c0-.229.026-.42-.327-.417-1.66.017-3.323.005-4.984.011-.086 0-.248-.075-.228.129.682.392 1.037.981 1.04 1.761.005 2.43.011 4.859-.008 7.29-.004.399.112.48.497.48zM144.159 151.214a5670.33 5670.33 0 0 0-8.249-.001c-.108 0-.222-.023-.322.044.023.134.039.271.074.401.351 1.292.711 2.583 1.058 3.877.449 1.672.904 3.342 1.319 5.022.07.287.172.316.415.315 1.869-.008 3.737-.017 5.605.005.39.005.459-.117.458-.472-.009-3.043 0-6.087.005-9.13-.108-.104-.242-.061-.363-.061zM46.546 160.442c.077.297.206.442.57.437 1.836-.025 3.67-.021 5.505-.002.364.003.469-.081.466-.456-.016-3.057-.008-6.114-.008-9.171-.088-.049-.185-.038-.278-.038-2.781-.001-5.564-.001-8.345.001-.105 0-.224-.038-.309.067.255.956.514 1.911.763 2.868.549 2.097 1.093 4.196 1.636 6.294zM70.892 150.264c1.767.004 3.532.003 5.298.002.093 0 .19.016.272-.05l.003-15.359c-.151-.069-.312-.036-.468-.036-1.17-.003-2.34-.002-3.51-.002-.536 0-.536.001-.537.529 0 4.528 0 9.057-.003 13.586 0 .168.049.345-.048.506-.537.076-1.086.129-1.37.697.067.189.233.127.363.127zM121.916 134.819c-.535 0-.536.001-.536.528 0 4.529.001 9.058-.003 13.586 0 .169.049.345-.048.507-.528.083-1.074.133-1.357.692.054.208.228.131.352.132 1.765.005 3.53.004 5.295.003.093 0 .19.016.272-.05l.002-15.359c-.151-.069-.312-.036-.468-.036-1.169-.005-2.339-.003-3.509-.003zM144.111 134.821c-1.218-.005-2.437.01-3.655-.011-.351-.006-.454.081-.454.441-.002 4.862.04 9.724-.018 14.586 0 .041.001.079.004.113a1.75 1.75 0 0 0-.102-.204c-.292-1.054-.591-2.106-.874-3.163-.785-2.931-1.582-5.861-2.336-8.801-.244-.954-.575-1.89-.715-2.87-.071-.164-.219-.09-.33-.09-1.968-.005-3.937-.004-5.905-.002-.106 0-.223-.033-.312.061.004.752.011 1.504.012 2.256.001 3.918-.002 7.835.006 11.754.001.355-.015.591-.478.613-.415.019-.753.264-.983.624.057.243.256.132.386.133 1.706.008 3.411-.009 5.116.015.404.006.46-.147.457-.489-.014-1.565-.01-3.13 0-4.695.001-.14-.121-.343.121-.428.169.668.335 1.337.509 2.003.309 1.183.624 2.365.936 3.546.041.021.077.05.129.051 1.36.005 2.719.005 4.08-.002.218-.001.32-.045.32-.161.06.133.193.18.432.174 1.218-.026 2.437-.008 3.655-.012.135-.001.288.056.405-.065-.003-1.363-.01-2.726-.009-4.088.002-3.743.008-7.486.011-11.229-.12-.11-.271-.059-.408-.06zM48.924 150.264c.978.005 1.956.009 2.934-.001.406-.005.816.058 1.219-.047l.002-15.359c-.182-.074-.373-.039-.56-.036-1.303.02-2.608-.052-3.91.036v14.802c0 .124-.013.248-.02.374-.051.306.182.23.335.231zM89.266 125.171c1.503-.023 3.006-.01 4.51-.01.636 0 .636 0 .636-.608.003-3.78.008-7.56.012-11.339-.04-.025-.069-.06-.123-.06-2.172-.008-4.345-.001-6.517-.001-.085 0-.205-.024-.18.132.888.581 1.257 1.388 1.245 2.452-.034 2.996-.005 5.992-.02 8.988-.002.343.07.451.437.446zM89.34 150.262c1.708.006 3.416-.005 5.124.012.323.003.397-.099.396-.401-.008-4.89-.008-9.781.001-14.672 0-.317-.1-.393-.407-.389-1.265.016-2.53.006-3.796.009-.107 0-.225-.033-.314.061l.012 14.386v.047c.016.161-.02.261-.218.276-.446.033-.818.235-1.139.537.042.22.222.134.34.134zM137.475 124.828c.081.279.192.337.443.336 1.631-.006 3.263-.01 4.894.004.3.003.337-.081.256-.341a1458.8 1458.8 0 0 1-2.034-6.546c-.521-1.696-1.032-3.395-1.546-5.093-.03-.011-.059-.032-.089-.032-1.732-.011-3.464-.004-5.196-.005-.106 0-.231-.023-.254.136.171.61.326 1.224.515 1.828.395 1.259.819 2.509 1.21 3.769a344.243 344.243 0 0 1 1.801 5.944zM19.437 114.855c.071.166.037.341.037.512.002 3.093.008 6.185-.006 9.278-.002.359.077.483.467.477 1.553-.024 3.105-.023 4.657-.001.391.005.502-.098.5-.491-.016-3.705-.009-7.41-.012-11.115 0-.137.04-.283-.05-.411H18.12c.704.407 1.08 1.027 1.318 1.751zM131.6 113.144c-2.103.013-4.206.006-6.31.011-.082 0-.249-.083-.225.128.663.344.95.967 1.208 1.61.093.161.047.337.047.506.003 3.084.002 6.169.004 9.253 0 .17-.035.345.036.511l5.517-.003c.097-.16.048-.337.048-.506.004-1.724.003-3.448.003-5.172 0-1.975-.002-3.95.002-5.925.001-.234.015-.416-.33-.413zM42.399 151.215c-1.625-.008-3.248-.001-4.873-.003-.11 0-.228-.011-.263.135.373.288.554.695.705 1.12.083.164.041.339.042.509.003 2.46.001 4.92.004 7.381 0 .17-.035.345.036.511 1.327 0 2.655-.017 3.982.008.397.008.49-.102.488-.49-.014-3.037-.002-6.075.002-9.113-.039-.023-.068-.058-.123-.058zM109.942 160.876a98.627 98.627 0 0 1 3.608 0c.356.006.473-.067.472-.451-.018-3.058-.01-6.116-.009-9.175-1.786-.085-3.573-.017-5.36-.035-.083-.001-.159.016-.134.13.681.376 1.015.975 1.02 1.724.015 2.462.012 4.925-.002 7.387-.003.319.059.427.405.42zM121.43 160.866c1.347 0 2.693-.015 4.039.011.37.008.434-.104.432-.444-.013-3.061-.008-6.122-.007-9.183-.029-.012-.059-.032-.088-.032-1.636-.012-3.272-.004-4.909-.005-.106 0-.232-.026-.25.137.388.233.454.682.69 1.018.079.165.039.34.039.51.003 2.494.001 4.988.005 7.482.002.169-.048.345.049.506zM133.596 151.205c-1.563.017-3.128.006-4.693.013-.076 0-.248-.091-.217.124.485.469.753 1.013.747 1.709-.018 2.461 0 4.921-.015 7.381-.002.342.068.453.435.446 1.344-.023 2.688-.008 4.032-.008.08-.324.035-.654.036-.981.004-2.74.002-5.48.002-8.222 0-.228.07-.466-.327-.462z"/><path d="M154.498 145.886c-.081 1.418-.023 2.836-.028 4.255 0 .025.035.05.054.075h8.045c.122-1.443.072-2.886.026-4.33h-8.097zM144.827 97.653c-.037-.15-.08-.299-.112-.45-.239-1.139-.816-2.077-1.672-2.868-.876-.811-1.932-1.208-3.084-1.412-.154-.05-.314-.027-.47-.027-4.209-.002-8.418 0-12.627 0-.538 0-.539 0-.539.527 0 5.755 0 11.511-.003 17.266 0 .169.047.345-.047.507-.064.038-.129.111-.193.11-.59-.008-1.04.266-1.432.667.094.273.325.13.481.131 4.611.01 9.223.008 13.835.008.141 0 .284.017.424-.022 1.576-.058 2.917-.648 4-1.783.816-.855 1.225-1.909 1.441-3.047.048-.153.025-.31.026-.466.002-2.891.002-5.782 0-8.674 0-.157.024-.315-.028-.467zm-5.511 7.19c-.041 1.1-.885 1.852-1.987 1.863-1.692.018-3.385-.003-5.077.013-.305.002-.364-.101-.361-.379.014-1.27.005-2.54.005-3.81 0-1.254.009-2.508-.006-3.762-.004-.286.066-.373.365-.37 1.677.014 3.354-.003 5.03.01 1.129.008 1.989.755 2.031 1.876a59.747 59.747 0 0 1 0 4.559zM86.465 134.819c-1.187.013-2.374.021-3.561-.004-.385-.008-.508.08-.505.484.02 2.416.01 4.832.01 7.247 0 2.431.004 4.863-.006 7.294-.001.294.059.407.385.401 1.235-.02 2.47-.014 3.704-.003.258.003.352-.055.35-.333-.008-4.91-.008-9.82.002-14.73 0-.302-.101-.36-.379-.356z"/></g><defs><clipPath id="a"><path fill="#fff" d="M0 0h162.645v188H0z"/></clipPath></defs></svg>