<svg width="108" height="80" viewBox="0 0 108 80" fill="none" xmlns="http://www.w3.org/2000/svg"><path d="M94.755 75.54c.006-.232-.117-.277-.307-.215-.06.019-.094.024-.127-.029-.132-.11-.303.01-.44-.075-.46.017-.922.056-1.373-.076a1.33 1.33 0 0 0-.499.002c-.218.052-.424-.01-.63-.067-.19-.049-.389.024-.578-.042-.43.038-.868-.079-1.293.059-.263-.137-.541-.106-.82-.077-.293.043-.587.025-.88 0-.145-.053-.304.022-.447-.047l-.305-.017c-.105-.043-.224.013-.328-.043l-.299-.02c-.21-.048-.43.023-.641-.042-.156-.005-.302.091-.439.088-.286-.006-.576-.21-.85.045-.013.013-.07.002-.086-.015-.169-.201-.396-.118-.597-.11-.197.008-.39.003-.582-.03-.296-.048-.597.028-.892-.04l-.987-.019a1.383 1.383 0 0 0-.498.004c-.063.014-.12.109-.192.016-.121-.066-.247-.04-.372-.019-.168.054-.337.01-.505.001-.28-.04-.563-.01-.843-.018-.646-.016-1.292.031-1.938-.026-.076.004-.154.024-.225-.025a.408.408 0 0 0-.376.004h-.315c-.144-.048-.3.026-.442-.045-.2-.034-.392.025-.575.072-.42.109-.823-.096-1.236-.03-.117-.1-.24-.11-.372-.03-.05.06-.082.152-.192.101-.052-.055-.045-.205-.188-.115-.084.096-.167.091-.252.002-.143-.06-.29-.034-.436-.014-.252-.046-.507.205-.757-.009a16.737 16.737 0 0 0-1.435.005c-.148.053-.296.151-.444.002a.903.903 0 0 0-.372 0c-.103.007-.208.027-.308.014-.714-.088-1.43-.03-2.146-.063a.665.665 0 0 0-.36.066c-.092.056-.154.02-.202-.063-.184-.01-.357 0-.522.107a.46.46 0 0 1-.35.065c-.249-.053-.501-.085-.752-.126-.126-.043-.265.018-.39-.042l-.612-.017a2.016 2.016 0 0 0-.56-.004c-.294.094-.588.137-.882 0a19.17 19.17 0 0 0-1.813.006c-.19.053-.379.015-.567-.004-.158 0-.344-.101-.437.123a.058.058 0 0 1-.06.01c-.034-.023-.073-.035-.11-.05a2.425 2.425 0 0 0-.199-.038.106.106 0 0 0-.074.026c-.146.041-.29.014-.436-.008-.101-.046-.22.019-.318-.047l-.309-.017a.562.562 0 0 0-.31.007c-.391-.012-.78.01-1.174-.027-.66-.06-1.343-.093-1.99.016-.584.1-1.15.082-1.726.067-.207-.054-.425.028-.63-.047l-.498-.015c-.168-.05-.348.022-.516-.043-.255.007-.516.09-.752.093a9.715 9.715 0 0 1-1.122-.032c-.266-.027-.536-.012-.805-.016a3.904 3.904 0 0 0-.748-.007c-.144.164-.301 0-.454.012-.56.044-1.123.09-1.684-.011-.148-.006-.304-.063-.435.06-.06.034-.106.032-.124-.045-.291-.052-.584-.03-.875-.013l-.067.008a16.366 16.366 0 0 0-1.815-.006c-.253.036-.51-.009-.763.074-.311.101-.616-.061-.927-.06l-1.873.003a.902.902 0 0 1-.51-.004h-.065c-.149.067-.306.028-.46.03-1.14.016-2.282-.022-3.422.021-.337-.007-.663.17-1.006.06a6.157 6.157 0 0 0-.999 0c-.363.101-.728.037-1.094.024-.51-.017-1.02-.006-1.529-.007-.376.074-.76-.009-1.136.046-.32.004-.639.01-.959.012a4.949 4.949 0 0 0-.862.07c-.31-.075-.623-.032-.935-.023-.505-.026-1 .167-1.507.067a1.488 1.488 0 0 0-.498-.003c-.052.005-.102.012-.154.014-.588.016-1.177.042-1.765.006-.252.085-.524-.05-.772.075-.088.09-.18.062-.278.015-.147-.07-.343-.085-.45-.02-.31.186-.606.073-.91.034a1.625 1.625 0 0 0-.496 0l-.682.017c-.229.073-.467-.006-.697.045-.644.074-1.288.142-1.939.078-.12.07-.258-.005-.38.049-.229.05-.45.19-.694.056a1.466 1.466 0 0 0-.433.001.26.26 0 0 0-.219.12c-.251-.221-.551-.043-.823-.098-.128.06-.274-.012-.402.053l-.002.002c-.146-.005-.192.156-.315.19a15.32 15.32 0 0 1-.115-.064c-.067.246-.034.494-.02.742.062.167.014.334.005.5-.033.248-.031.495 0 .742.066.146.164.292 0 .438-.032.29-.032.578 0 .867.162.106-.1.208-.003.313-.027.185-.024.37-.002.555.047.12 0 .26.079.375h.125c.736-.22 1.479-.42 2.225-.6.727-.176 1.462-.342 2.205-.433.52-.063.892-.23 1-.775.033-.107.118-.157.209-.215.371-.236.607-.649 1.061-.763.033.099.073.228.09.36.034.254-.051.313-.31.225.048-.12.249-.25.056-.36-.178-.102-.304.057-.38.217-.041.083-.062.174-.083.265-.02.089-.02.186-.096.258-.104-.002-.139-.12-.231-.137-.128-.024-.262-.054-.25.15.187.402.406.544.71.42a.806.806 0 0 1 .388-.048c.362.024.51-.07.57-.335.066-.299.066-.299.454-.171-.215.007-.382.04-.324.248.055.197.225.136.367.115.041-.006-.01 0 .03-.007.415-.06.824-.141 1.243-.18 1.016-.095 2.037-.153 3.044-.328.173-.03.332-.137.517-.098.281.061.558.013.839-.003.438-.026.868-.11 1.3-.148.638-.054 1.283-.04 1.924-.057.87-.024 1.74-.085 2.612-.055.28.01.537-.151.795-.126.448.045.883.002 1.328-.016.987-.04 1.977-.176 2.963-.11.759.049 1.498-.188 2.256-.07.329.052.662-.064.998-.058.749.015 1.5-.1 2.246.006.679.096 1.351-.167 2.03-.013.058.013.124-.008.186-.02.175-.034.359-.06.53-.026.814.168 1.634-.18 2.446.04.03.008.062-.004.094-.006.906-.04 1.807-.126 2.72-.054.809.063 1.627.022 2.44-.002a27.595 27.595 0 0 1 2.43.035c.136.008.27.005.406-.002.79-.042 1.583-.005 2.373-.04.44-.018.86.1 1.304.072.79-.047 1.583-.061 2.373-.103.322-.018.616.096.927.118 1.187.086 2.375.038 3.562.06.114.002.23-.037.343-.011.49.114.99.118 1.488.13.873.023 1.747-.049 2.62.062.692.088 1.39.057 2.087.062.533.004 1.076.068 1.611.115.83.074 1.661.035 2.488.122.394.042.8-.05 1.187.009.86.13 1.726.095 2.587.182 1.317.133 2.635.267 3.953.399.751.075 1.503.08 2.258.212.989.172 1.989.312 2.991.417.454.048.89.209 1.345.272.438.062.922-.072 1.293.29.026.026.08.02.121.027.341.055.68.1 1.02-.029.192-.073.33-.042.375.21.041.225.207.295.423.175.006-.193.148-.118.25-.124.051-.062.178.014.196-.089.012-.074-.094-.05-.13-.095-.099-.093-.09-.202 0-.28.13-.112.115.09.192.107.138-.019.079-.12.083-.195l-.04-.63c.077-.05.046-.129.047-.196 0-.47.006-.938-.002-1.407-.03-.025-.03-.05 0-.076.023-.254-.029-.51.03-.763a8.636 8.636 0 0 1-.01-.586zM12.265 3.871c.16.01.321.073.281.29-.017.093-.12.22.014.254.136.036.325.083.419-.115.103-.058.223.001.327-.046.128-.103.008-.114-.054-.156-.091-.063-.1-.158-.037-.238.066-.082.15-.075.238-.004.182.147.254.307.093.513.04.173.207.04.287.116.184-.039.364.158.55.009a.271.271 0 0 1 .06-.036c.075.004.012.08.054.1.08.044.165.029.25.013l.944.062c.146.043.302-.024.445.043.207-.015.414-.053.619.015a.942.942 0 0 0 .436-.007l.443.013c.166.015.331.026.496-.006.294-.043.587-.032.88 0 .148.052.307-.02.453.045l.425.018c.165.052.342-.026.505.047l.498.018c.167.014.334.04.499-.017.176-.141.336.049.506.023.144-.003.292.046.432-.03l.738.065a.723.723 0 0 1 .416-.002l.228.02c.463.056.93-.029 1.392.044.706 0 1.412-.027 2.117.018.102.03.208.016.311.016.773.001 1.546.002 2.319 0 .136 0 .276-.018.33.153.278-.111.562-.171.862-.107.442.058.874-.08 1.314-.07.374.067.753.249 1.112-.059.042-.036.167-.025.14.088-.022.096.059.088.072.074.195-.215.381.03.568.004a3.576 3.576 0 0 1 1.09-.012c.71.11 1.433-.066 2.15.023a.55.55 0 0 1 .388 0l.184.015c.38.038.76.006 1.14.017.109.003.232-.032.303.093.323-.114.66-.15.998-.179.09.11.196.113.312.046.032-.087-.06-.34.128-.218.248.162.513.094.755.182.169.044.347-.024.514.04h.274c.17-.06.35-.014.523-.042.165-.026.31.194.485.04.063-.025.067-.064.026-.113.055.03.061.092.091.139.01.017.024.03.045.038l.226-.058c.113-.054.228-.035.343-.004.096.007.174.058.284.056.42-.01.84.015 1.26.027.166.026.332.026.497 0l.12-.017a.402.402 0 0 1 .327.001c.112-.02.073.189.117.127.164-.231.467-.037.629-.23.112.073.215.193.37.081.312-.125.633.041.947-.028.209.06.428-.023.636.049.203-.196.578.144.752-.3-.09.362.122.3.28.302.177.003.355.013.53-.004.08-.008.285.118.213-.152-.02-.07.118-.028.179-.024.074.003.169-.055.223.044.098.18.1.182.24.015.026-.03.055-.082.066-.024.052.283.28.155.386.125.188-.053.367-.045.551-.046.124-.062.264.005.39-.046.273-.046.546-.013.818.004.188.049.386-.026.572.044l.493.016c.169.05.348-.022.516.044.283-.007.572-.099.833-.1a6.44 6.44 0 0 1 .883.035c.297.04.6.018.902.024.312.02.624.03.936-.006.311-.062.636-.033.943-.033.191 0 .435-.163.626.028.102.043.206.028.31.011.087-.016.175-.043.26.01.142-.02.297.064.428-.048.072-.072.084.043.133.042.29.018.579.013.868.003l.069-.014c.84.03 1.678.05 2.517-.015.251-.092.497-.017.744.026.708.013 1.417.023 2.124-.006 1.482-.061 2.964.006 4.446-.016.12-.07.26.006.383-.05l.008-.006c.134-.083.288-.016.427-.055.15.013.302.025.452.04.576.063 1.153-.147 1.728.006.483-.069.97.008 1.454-.041.188-.079.378-.108.568-.003.25.028.499.03.749-.001.606-.023 1.215.004 1.82-.063a4.2 4.2 0 0 0 .874.003c.187-.008.375-.008.561-.025.149-.014.27-.047.21-.26-.08-.292.003-.375.347-.395-.087.132-.151.27-.19.42-.064.263.105.222.262.198l1.187-.015c.29-.08.59.014.88-.052l.317.001c.311.038.623.026.936.007.668-.066 1.336-.14 2.008-.066a.584.584 0 0 0 .31 0l.73-.018c.234-.066.477.007.711-.042.643-.08 1.287-.141 1.935-.08.122-.065.259 0 .383-.043.235.014.45-.16.693-.069.145.038.29.025.435.007.129.004.182-.073.242-.178.086-.153.242-.131.328.029.138.187.327.078.496.085.228.015.437-.113.672-.084.088.01.172-.056.195-.162.028-.133-.085-.146-.163-.185-.043-.022-.105-.004-.138-.07.085-.065.298.042.278-.105-.034-.237-.002-.469-.017-.702-.013-.208-.302-.419.002-.628.052-.036-.016-.067-.016-.1.003-.348-.05-.616-.397-.86-.342-.24-.514-.686-.85-.987-.203-.182-.386-.199-.535-.084-.172.133-.325.106-.509.13-.536.066-1.063.204-1.595.307-.203.039-.337.123-.303.416-.127-.432-.409-.271-.646-.24-.242.031-.534.022-.457.474-.054-.382-.29-.298-.491-.291-.052.002-.104-.003-.156-.005-.1.063-.22 0-.322.047-.223.037-.448.06-.64.198-.03.02-.08.098-.124.032-.114-.171-.248-.06-.382-.049-.163.014-.309.12-.48.08-.227.078-.465-.008-.693.05-.392.066-.782.147-1.183.138-.1.063-.218 0-.321.048l-.243.015c-.122.066-.26-.004-.384.046-.401.047-.803.103-1.206.14-.35.03-.689.265-1.055.068-.008-.004-.02 0-.03.002-.356.088-.72.085-1.08.088-.262.003-.502.145-.767.09-.212-.035-.425-.093-.625.043-.415.037-.827-.04-1.24-.041-.123.063-.263-.006-.388.047-.175.004-.352.016-.527.008-.264-.012-.531.178-.792-.011-.08-.036-.138 0-.19.056-.475-.064-.945-.059-1.41.079-.208.061-.401.202-.638.131-.188.066-.388-.006-.578.043-.126.12-.29.007-.396.04-.357.117-.713-.005-1.06.053-.764.127-1.53.069-2.296.049-.406.008-.806.086-1.21.126-.157-.075-.314-.054-.481-.03-.248.036-.498.136-.752.028-.1.063-.22-.002-.322.048-.252-.048-.502.154-.754.005-.145-.037-.292.068-.436-.008-.231.154-.462.065-.693 0a3.508 3.508 0 0 0-.811.006c-.067.052-.142-.003-.208.012-.306.07-.648-.135-.934.147-.095.093-.175-.02-.178-.143-.142-.074-.288-.037-.434-.02-.092.086-.207.078-.32.073-.547-.02-1.095-.042-1.642-.059-.1-.003-.215-.036-.295.054-.11.123-.247.095-.375.064a5.433 5.433 0 0 0-.944-.136.701.701 0 0 0-.309.001l-.757.059a.672.672 0 0 0-.308.007c-.23.156-.462.15-.693 0-.186-.036-.372-.021-.559-.009-.51.007-1.025.058-1.529.002-.293-.032-.51.191-.851.068-.366-.132-.828.018-1.246 0-.182-.009-.367-.054-.554-.05-.492.007-.988.046-1.478.016-.573-.035-1.142.09-1.712-.009.029.085.047.154.075.219.028.067-.012.102-.058.118-.021.008-.081-.03-.087-.054-.071-.308-.35-.268-.543-.269-.738-.004-1.476.052-2.213.04-.218-.003-.434.182-.651.013-.098-.108-.126.025-.185.051-.23.045-.407-.14-.627-.139-.102-.046-.22.019-.318-.047-.33-.006-.658.068-.987.001a2.78 2.78 0 0 1-.893-.001l-.266.019c.007.126.093.229.027.392-.106-.442-.425-.435-.752-.411-.227.076-.465-.007-.694.045l-.186.016c-.203-.088-.408-.162-.626-.042l.18.286c-.111.008-.21.055-.27-.08-.112-.255-.337-.282-.582-.28-.216.002-.433-.016-.65-.025a3.045 3.045 0 0 0-.685.003 3.567 3.567 0 0 1-.88 0c-.105-.043-.225.012-.328-.044l-.3-.02c-.105-.04-.223.014-.327-.042l-.425-.02c-.21-.046-.43.023-.64-.042-.478.012-.96.096-1.427-.083-.146-.044-.303.024-.447-.043-.292.122-.58.038-.87-.02-.101-.039-.217.021-.316-.043-.756.107-1.5-.067-2.252-.079a.666.666 0 0 0-.309 0c-.1.008-.176.094-.288.074-.28-.051-.563-.092-.844-.136-.106-.04-.224.013-.328-.043-.287.092-.58-.03-.868.02-.13-.133-.309.001-.448-.082-.564.008-1.117-.102-1.677-.144-.214-.048-.436.022-.65-.041-.229.027-.443-.063-.666-.084-.103-.039-.22.018-.32-.043l-.306-.018c-.103-.042-.22.016-.322-.044l-.242-.015c-.105-.046-.224.011-.328-.046-.819.18-1.58-.143-2.366-.265-.101-.032-.204-.019-.307-.01-.076.053-.163.033-.242.02-.444-.085-.888-.175-1.331-.263-.21-.046-.429.025-.638-.041-.196-.153-.44-.031-.655-.116a3.059 3.059 0 0 0-1.072-.194.427.427 0 0 1-.332-.003c-.195-.069-.35-.223-.56-.26-.105-.049-.226.01-.33-.047-.05-.005-.112.007-.152-.017-.506-.304-1.107-.328-1.641-.55-.123-.05-.297-.01-.267.069.076.198-.092.31-.097.46-.01.364.012.729.022 1.094.017.151-.098.343.133.43-.129.175.121.362.01.512-.271.365-.128.774-.17 1.164-.011.109.03.113.136.12zM68.046 29.337c-.38.066-.74.167-.928.55.056.164.196.085.294.086 1.42.006 2.84-.003 4.259.01.268.003.323-.081.322-.33-.009-2.339-.006-4.676-.004-7.015 0-.112-.028-.228.03-.335.002-.595.484-1.204 1.063-1.303.761-.13 1.537-.1 2.296-.039 1.007.082 1.457.712 1.466 1.498.03 2.49.008 4.982.006 7.473.046.06.112.044.172.044h3.343c.06 0 .128.016.173-.044-.003-.764-.007-1.528-.006-2.292l.008-6.816c-.072-.14.005-.296-.047-.439-.207-.932-.612-1.744-1.403-2.334-.539-.403-1.154-.607-1.807-.723-.112-.033-.227-.017-.341-.017-1.424 0-2.847-.003-4.27 0-.384.002-.768-.02-1.151.017-1.758.213-3.008 1.453-3.212 3.181-.03.112-.015.227-.015.34-.001 2.707 0 5.414-.002 8.121 0 .11.032.228-.032.333l-.214.034zM30.167 29.719c.136-.897.298-1.792.454-2.686.2-1.146.407-2.29.606-3.437.134-.774.255-1.55.397-2.323.012-.068-.012-.225.116-.215.13.01.107.143.125.245.094.54.217 1.078.298 1.62.077.515.177 1.025.27 1.537.099.538.165 1.082.261 1.62.137.768.29 1.532.43 2.299.105.568.215 1.137.295 1.71.023.162.081.17.209.17 1.096-.003 2.192-.008 3.289.003.205.002.223-.088.196-.241-.202-1.124-.408-2.248-.606-3.373-.176-.994-.346-1.989-.517-2.984-.174-1.016-.343-2.034-.52-3.049-.178-1.014-.371-2.025-.538-3.041-.028-.172-.068-.225-.241-.225-1.963.005-3.926.005-5.889 0-.148 0-.178.043-.203.185-.082.484-.17.966-.252 1.45-.172 1.012-.382 2.018-.559 3.03-.157.895-.286 1.795-.438 2.69-.138.809-.289 1.615-.436 2.421-.147.804-.311 1.604-.434 2.411-.03.196-.119.168-.238.177-.455.034-.91.072-1.21.545h4.545c.528 0 .508-.003.59-.54zM20.92 29.864c0-1.022-.008-2.045.005-3.068.003-.231-.06-.297-.295-.295-1.251.012-2.502.005-3.753.005-.342 0-.343 0-.343-.328l.001-4.803c0-.102-.027-.207.03-.304.108-.059.225-.03.337-.03 2.137-.001 4.273 0 6.41-.003.11 0 .23.04.332-.04-.003-1.074-.02-2.148 0-3.222.006-.312-.092-.372-.383-.364-.812.02-1.626.008-2.439.007l-7.941-.008c-.081.101-.04.22-.04.33-.003 3.807-.002 7.615-.004 11.422 0 .112.032.228-.032.334-.098.027-.195.074-.294.078-.356.018-.593.215-.852.501h9.235c.037-.067.025-.14.025-.212zM40.833 29.447c-.348.025-.592.212-.851.5h4.848c.047-.11.023-.224.024-.337.001-2.327 0-4.654.003-6.98 0-.112-.026-.228.025-.336-.07-.643.743-1.449 1.378-1.354a14.6 14.6 0 0 1 2.026-.003c.227.002.436.06.63.179.576.35.846.86.803 1.525-.014.225.042.299.286.295a134.15 134.15 0 0 1 3.159-.002c.2.002.241-.063.238-.247-.009-.62 0-1.24.003-1.86-.069-.142.005-.299-.046-.442-.084-.326-.145-.658-.29-.967-.547-1.165-1.482-1.83-2.732-2.091-.102-.046-.22.018-.317-.047-1.075.003-2.15-.004-3.224.011-.862.012-1.727-.066-2.588.05-.835.113-1.564.463-2.12 1.089-.521.588-.871 1.273-.914 2.079-.026.112-.013.227-.013.34-.001 2.728 0 5.457-.003 8.185 0 .11.033.227-.031.333-.097.028-.195.073-.294.08zM38.445 38.546c.102.001.16-.038.127-.151-.146-.606-.23-1.222-.337-1.834-.328-1.875-.666-3.75-.997-5.624-.037-.21-.097-.316-.364-.315-3.777.013-7.554.009-11.33.009h-.35c.14.09.224.132.292.19.4.342.731.694.563 1.3-.132.479-.186.979-.269 1.47-.135.807-.263 1.615-.399 2.422-.14.836-.321 1.665-.42 2.508.019.008.038.022.058.023 1.161.008 2.322 0 3.483.007.133 0 .186-.058.215-.168.035-.694.218-1.367.322-2.05.11-.724.26-1.442.392-2.163.027-.014.052-.031.086-.031 1.457-.003 2.914 0 4.372-.002.084 0 .169-.003.21.094.052.345.097.693.158 1.037.116.666.24 1.33.363 1.995.078.418.16.836.24 1.254 1.196.068 2.39.012 3.585.03zM58.304 29.455a1.077 1.077 0 0 0-.842.432c.049.145.173.087.265.087 1.426.003 2.852.003 4.278 0 .079 0 .168.033.235-.043-.003-2.926-.003-5.852-.01-8.778-.001-.187.07-.215.234-.214 1.095.006 2.19.002 3.286.002.05-.064.033-.138.034-.209 0-1.055-.007-2.108.006-3.163.003-.238-.094-.263-.294-.263-3.4.005-6.8.007-10.2-.002-.237 0-.296.066-.293.296.012 1.002.004 2.005.007 3.008 0 .11-.032.227.032.333 1.086 0 2.172.005 3.257-.003.194-.001.266.036.265.25-.008 2.659-.006 5.318-.002 7.977 0 .187-.042.286-.258.29zM80.493 35.472c.041-.128-.014-.267.041-.394l.004-4.374c-.048-.056-.114-.041-.175-.041h-3.341c-.061 0-.127-.015-.175.04l.008 3.041c.001.569-.512 1.145-1.008 1.173a22.36 22.36 0 0 1-2.475.005c-.62.071-1.436-.74-1.357-1.364-.052-.097-.026-.203-.027-.305-.003-.776-.007-1.552.002-2.328.003-.195-.04-.27-.257-.268-1.274.01-2.548.004-3.822.007-.083 0-.197-.05-.232.088.29.244.477.551.587.91.047.109.024.224.025.337.01 1.116-.017 2.232.015 3.348.015.566.21 1.089.504 1.551.582.914 1.42 1.483 2.521 1.63.105.046.225-.012.328.046 1.761.001 3.524 0 5.286.006a3.302 3.302 0 0 0 1.594-.386c1.083-.587 1.748-1.5 1.954-2.722zM12.388 55.128c1.084 0 2.166 0 3.25-.002.099 0 .209.042.297-.043-.002-1.984-.012-3.968-.003-5.952.004-.81.502-1.269 1.326-1.27.469-.002.938-.012 1.407.003.676.02 1.156.524 1.163 1.2.054.109.027.224.027.336.002 1.81.007 3.617-.004 5.426-.001.247.068.313.313.308a54.295 54.295 0 0 1 2.315.001c.261.006.327-.07.327-.326-.01-2.315-.006-4.63-.007-6.945 0-.093.012-.187-.015-.277a3.192 3.192 0 0 0-.573-1.458c-.484-.664-1.166-.996-1.95-1.165-1.564-.03-3.13-.025-4.695-.003-1.484.197-2.444 1.215-2.583 2.5-.035.112-.018.227-.018.34-.001 2.139 0 4.279-.002 6.418 0 .112.026.227-.026.336-.165.04-.337.064-.495.122-.218.08-.422.192-.427.471.123-.032.248-.02.373-.02zM47.253 38.545c.987 0 1.973.022 2.96-.014a3.642 3.642 0 0 0 2.252-1.175c.49-.534.753-1.182.893-1.883.052-.146-.02-.304.046-.449v-2.081c-.045-.06-.112-.044-.172-.044H49.89c-.06 0-.127-.017-.172.044.002.267.011.536.005.804-.017.693-.645 1.176-1.169 1.175-.79 0-1.583.022-2.372-.015-.767-.036-1.367-.812-1.296-1.353-.059-.117-.026-.243-.029-.365-.018-.853.031-1.707-.026-2.56h-4.588c.595.488.595.488.886 1.12.061.105.03.22.03.332.013 1.089-.019 2.178.018 3.267.16 1.765 1.65 3.128 3.337 3.182.913.04 1.827.014 2.74.015zM42.312 50.475c.82-.012 1.64-.004 2.461-.007.08 0 .168.03.237-.04v-2.715c-.07-.119.005-.256-.048-.377-.02-.046-.047-.091-.059-.14-.325-1.28-1.184-1.984-2.46-2.235-.363-.036-.725-.017-1.087-.014-.869.006-1.738-.027-2.607.017-.09.022-.18.049-.272.064-1.22.205-2.091 1.214-2.252 2.372-.043.121.025.256-.044.376 0 1.232.003 2.464.004 3.696.056.127-.001.267.043.395.06.67.39 1.22.896 1.625.806.645 1.795.866 2.795 1.037.442.075.892.126 1.317.265-.09.132-.298.104-.29.301.055.043.119.033.18.033h3.645c.061 0 .125.01.179-.033-.033-.222-.049-.448-.103-.665-.308-1.248-1.214-1.895-2.377-2.245-.874-.264-1.782-.382-2.686-.514-.203-.029-.46-.01-.599-.236-.07-.242-.031-.49-.028-.734.009-.626-.045-1.253.027-1.878.068-.511.525-.912 1.061-.931.338-.05.676-.05 1.014 0 .358.107.64.296.75.675.063.543.024 1.087.023 1.631 0 .216.062.28.28.277zM29.038 55.086c.009.006.017.017.026.018.934.053 1.87.01 2.805.023.104.001.16-.042.125-.154-.193-.695-.39-1.389-.577-2.085-.518-1.934-1.034-3.868-1.545-5.803-.185-.698-.352-1.4-.526-2.1-.093-.073-.201-.037-.302-.037-1.21-.003-2.419-.002-3.629-.002-.357 0-.358 0-.358.345l-.001 8.928c0 .112.026.228-.026.336-.101.093-.235.04-.352.075-.26.081-.504.167-.585.465.044.035.096.033.148.033h3.615c.06 0 .127.016.172-.044v-3.689l.045-.003.965 3.694zM100.02 55.093c.255.003.329-.054.328-.318-.012-1.912-.007-3.825-.006-5.738 0-.581.372-1.056.945-1.15.644-.104 1.291-.082 1.938.003.504.066 1.006.558 1.003 1.054.059.117.026.243.029.364.002.114.038.169.161.169.874-.002 1.746-.002 2.62 0 .119 0 .167-.046.165-.165-.013-.617.021-1.235-.019-1.852-.037-.159-.064-.32-.114-.475a2.92 2.92 0 0 0-2.775-2.057c-1.346-.019-2.692-.009-4.038 0-.225 0-.45.047-.673.091-1.18.232-2.123 1.252-2.202 2.566-.03.111-.015.226-.015.339-.001 2.13 0 4.26-.003 6.389 0 .111.032.227-.031.334-.322.046-.653.074-.833.439 1.188 0 2.354-.008 3.52.007zM.221 55.084c1.064.004 2.128.005 3.192.002.486-.001.42.063.42-.402.003-1.871 0-3.742.003-5.614 0-.611.28-1.027.874-1.172.618-.152 1.257-.073 1.885-.031.104.007.224.004.347.067.55.28.862.715.793 1.498.089.085.199.042.297.043a99.82 99.82 0 0 0 1.84 0c.267-.003.537.038.803-.031-.032-.7.047-1.4-.055-2.101-.203-1.395-1.468-2.419-2.91-2.418-1.326 0-2.651-.011-3.976.003-1.465.014-2.67 1.054-2.85 2.472-.026.113-.013.226-.013.34 0 2.188 0 4.378-.003 6.568 0 .11.033.227-.031.333-.24.066-.52.017-.7.26-.034.046-.158.049-.134.133.032.104.144.05.218.05zM75.48 47.863c.751-.003 1.503-.007 2.254.002.193.002.277-.034.273-.253a91.63 91.63 0 0 1-.002-2.42c.002-.182-.04-.252-.241-.251-2.724.006-5.447.006-8.17 0-.2 0-.243.069-.241.251a89.12 89.12 0 0 1-.002 2.42c-.004.219.08.255.273.253.751-.009 1.502-.005 2.254-.002.102 0 .209-.03.305.031.008.071.022.142.022.213.002 1.052.002 2.103.002 3.155 0 1.041-.01 2.083.007 3.124.004.228-.074.314-.276.325-.26.014-.448.154-.622.326.043.15.17.087.258.087 1.122.005 2.244.004 3.365.003.071 0 .147.017.211-.033 0-2.287 0-4.575.002-6.862 0-.112.014-.225.022-.338.097-.06.204-.03.306-.03zM107.199 55.802c0-.036-.023-.056-.04-.08H104.3c-.082.1-.037.219-.04.328-.021.764.034 1.529-.029 2.292-.044.42-.311.653-.684.795-.743.05-1.486.044-2.228.003-.508.001-.986-.64-.98-1.09.009-.683-.006-1.366.008-2.048.004-.212-.047-.28-.272-.278-1.086.013-2.171.005-3.256.008-.059 0-.142-.05-.193.06.41.133.562.483.716.83.044.121.022.247.023.37.012.817-.02 1.634.017 2.45.027.6.235 1.132.618 1.595.557.673 1.278 1.047 2.155 1.06 1.437.022 2.875.011 4.312.014.1-.062.219 0 .322-.045.091-.046.195-.033.294-.067 1.177-.409 1.874-1.22 2.101-2.432.038-1.255.009-2.51.015-3.765zM22.542 55.75c-.718.002-1.437 0-2.155 0-.53 0-.523 0-.532.514-.012.669.041 1.338-.028 2.006-.008.534-.349.911-.877.928-.583.018-1.166.016-1.75.007-.75-.012-1.248-.495-1.265-1.245-.016-.722 0-1.446.002-2.168a.148.148 0 0 0-.112-.041h-3.18c-.072 0-.15-.01-.17.09.21.206.403.423.464.723.047.11.023.225.025.338.012.888-.02 1.777.017 2.665.02.13.029.263.062.39a2.97 2.97 0 0 0 1.06 1.602c.398.316.872.53 1.375.542 1.49.032 2.982.013 4.474.016.268 0 .53-.032.783-.121 1.216-.43 1.877-1.299 2.052-2.552.032-1.166.001-2.332.017-3.497.002-.214-.121-.197-.262-.197zM57 55.75h-2.313c-.368 0-.363.001-.37.366-.013.722.037 1.444-.025 2.165-.02.478-.44.913-.921.922-.604.01-1.21-.02-1.812.004-.59.023-1.184-.649-1.164-1.201.028-.743.008-1.486.008-2.23-.02-.007-.04-.02-.059-.02-1.079-.008-2.158-.003-3.237-.004-.071 0-.151-.012-.168.09.2.196.385.403.456.685.061.106.029.221.03.332.014.903-.021 1.806.02 2.709.063.122.004.255.05.389.2.581.486 1.095.96 1.507.425.371.932.616 1.469.632 1.529.047 3.06.02 4.59.018.516-.002.976-.185 1.4-.464.78-.51 1.195-1.244 1.334-2.145.033-1.187.001-2.375.017-3.562.003-.216-.127-.193-.265-.193zM10.675 57.585c-.044-.034-.096-.033-.148-.033h-2.62c-.06 0-.126-.016-.171.044.002.196.008.392.005.587-.006.478-.252.787-.696.952-.756.054-1.513.047-2.269.002-.504-.08-.92-.52-.93-1.028a60.878 60.878 0 0 1-.006-2.14c.002-.192-.054-.246-.247-.244-.918.01-1.837.004-2.755.004H.087c.369.284.664.546.758.958.047.11.023.225.025.338.012.868-.02 1.736.017 2.603.025.392.181.74.378 1.072.507.854 1.277 1.358 2.26 1.396 1.416.054 2.836.01 4.255.007a2.755 2.755 0 0 0 1.594-.484c.887-.62 1.328-1.488 1.304-2.578-.011-.484-.003-.97-.003-1.456zM45.01 55.792c-.026-.016-.045-.04-.08-.04-1.203-.004-2.406 0-3.608 0-.057 0-.135-.014-.12.088.348.189.668.404.808.8a9.22 9.22 0 0 1 0 1.578c-.104.39-.328.688-.7.86-.49.226-1.014.174-1.512.07a.747.747 0 0 1-.616-.687c-.063-.543-.023-1.088-.023-1.631 0-.217-.063-.28-.28-.276-.82.011-1.641.003-2.462.006-.08 0-.168-.032-.235.043l.002 2.694c.057.127-.001.267.044.395.06.11.032.234.069.353.179.586.494 1.059.982 1.445.445.352.924.6 1.49.61 1.136.023 2.273.023 3.409.011.43-.004.847-.093 1.235-.305.852-.467 1.356-1.177 1.553-2.114.037-.105-.015-.221.041-.323l.003-3.577zM59.883 62.121c2.773-.01 5.547-.005 8.32-.005.052-.955.015-1.911.018-2.867 0-.017-.023-.033-.036-.049-1.836.003-3.672.006-5.509.006-.039 0-.079-.019-.118-.029-.062-.096-.031-.202-.031-.303-.003-.95-.003-1.902-.001-2.852 0-.151.017-.277-.216-.276-1.094.012-2.19.004-3.285.008-.056 0-.163-.05-.15.085.45.259.684.647.685 1.16.004 1.603.008 3.204-.005 4.806-.003.263.074.317.328.316zM95.025 55.752c-1.813-.002-3.625-.001-5.438 0-.071 0-.146-.015-.212.029.015.088.025.178.049.264.231.852.469 1.702.697 2.555.296 1.102.596 2.203.87 3.31.046.19.113.209.273.208 1.232-.005 2.463-.011 3.695.004.257.003.302-.078.302-.312-.007-2.005 0-4.012.003-6.018-.071-.069-.16-.04-.239-.04zM30.682 61.835c.05.195.136.291.376.288 1.21-.017 2.42-.014 3.629-.002.24.003.309-.053.307-.3-.011-2.015-.006-4.03-.006-6.045-.058-.033-.122-.025-.183-.025h-5.5c-.07 0-.148-.024-.204.045.168.63.338 1.26.503 1.89.361 1.382.72 2.766 1.078 4.149zM46.73 55.126c1.164.002 2.328.002 3.492.001.061 0 .125.01.18-.033l.001-10.124c-.1-.045-.206-.024-.309-.024-.77-.002-1.542 0-2.313 0-.354 0-.354 0-.354.348 0 2.985 0 5.97-.002 8.955 0 .111.032.227-.031.334-.355.05-.716.085-.903.459.044.125.153.084.239.084zM80.363 44.945c-.353 0-.353 0-.353.349 0 2.985 0 5.97-.002 8.955 0 .111.032.227-.032.334-.348.055-.708.088-.894.456.035.137.15.087.232.087 1.163.004 2.326.003 3.49.002.061 0 .125.01.18-.033V44.971c-.1-.045-.205-.023-.308-.023-.77-.004-1.542-.003-2.313-.003zM94.993 44.946c-.803-.003-1.607.007-2.41-.006-.23-.005-.298.053-.298.29-.001 3.205.026 6.41-.012 9.614 0 .028 0 .053.002.075a1.198 1.198 0 0 0-.067-.134c-.192-.695-.39-1.388-.576-2.085-.518-1.933-1.043-3.864-1.54-5.802-.16-.629-.38-1.245-.471-1.891-.047-.108-.144-.06-.218-.06a1174.36 1174.36 0 0 0-3.892-.001c-.07 0-.147-.022-.206.04.003.496.008.991.008 1.487.001 2.583-.001 5.165.004 7.748 0 .234-.01.39-.315.404-.273.012-.496.174-.648.411.038.16.169.087.255.088 1.124.005 2.248-.006 3.372.01.266.004.303-.097.301-.323-.01-1.031-.007-2.063 0-3.094 0-.093-.08-.226.08-.282.111.44.22.88.335 1.32.204.78.412 1.559.617 2.337.027.014.05.033.085.034.897.004 1.793.004 2.69-.002.144 0 .21-.029.21-.105.04.087.128.118.285.114.803-.017 1.607-.005 2.41-.008.089 0 .19.037.267-.043-.003-.898-.007-1.796-.006-2.694 0-2.468.005-4.934.007-7.402-.08-.073-.178-.039-.269-.04zM32.25 55.126c.644.004 1.289.006 1.933 0 .268-.004.538.038.803-.032l.002-10.124c-.12-.048-.246-.026-.369-.024-.859.013-1.72-.034-2.577.024v9.757c0 .082-.01.164-.014.247-.033.201.12.151.221.152zM58.841 38.585c.991-.015 1.982-.006 2.973-.006.42 0 .42 0 .42-.4l.007-7.475c-.025-.016-.045-.04-.08-.04-1.433-.005-2.864 0-4.297 0-.055 0-.134-.016-.119.086.586.384.83.916.822 1.617-.023 1.975-.004 3.95-.013 5.924-.002.227.046.298.287.294zM58.89 55.124c1.126.005 2.252-.003 3.378.009.212.002.261-.066.26-.265-.005-3.223-.005-6.447.001-9.67 0-.21-.066-.26-.268-.257-.834.01-1.668.003-2.502.005-.07 0-.148-.021-.207.04l.008 9.484v.03c.01.106-.013.173-.144.182-.294.022-.54.155-.75.354.027.146.145.088.224.088zM90.618 38.36c.054.183.127.222.293.221 1.075-.004 2.15-.007 3.225.002.198.002.222-.053.169-.224-.45-1.437-.897-2.876-1.34-4.315-.344-1.118-.68-2.238-1.02-3.357-.02-.007-.039-.021-.058-.021-1.142-.008-2.284-.003-3.425-.003-.07 0-.153-.016-.168.09.113.401.215.806.34 1.204.26.83.54 1.654.797 2.484.406 1.303.806 2.609 1.187 3.919zM12.813 31.786c.047.109.024.225.024.337.001 2.039.005 4.077-.004 6.116-.001.236.051.318.308.314 1.023-.015 2.046-.015 3.07 0 .257.003.33-.065.329-.324-.01-2.442-.006-4.884-.008-7.326 0-.091.026-.187-.032-.272h-4.556c.464.268.711.677.869 1.155zM86.746 30.658c-1.386.008-2.772.004-4.16.007-.053 0-.164-.054-.148.084.438.227.626.638.797 1.062.06.106.03.222.03.333.002 2.033.002 4.067.003 6.1 0 .111-.023.227.024.336 1.212 0 2.424 0 3.636-.002.064-.105.032-.222.032-.333.003-1.137.002-2.273.002-3.41 0-1.301-.001-2.603.001-3.905.001-.154.01-.274-.217-.272zM27.948 55.753c-1.07-.005-2.14 0-3.212-.002-.073 0-.15-.008-.173.089.246.19.365.458.465.738.054.108.027.224.027.335l.003 4.866c0 .112-.023.227.024.336.874 0 1.75-.01 2.624.006.262.005.323-.067.322-.323-.009-2.002-.001-4.004.002-6.007-.026-.015-.045-.038-.082-.038zM72.47 62.121a64.559 64.559 0 0 1 2.378 0c.236.004.313-.045.311-.297-.012-2.016-.006-4.032-.005-6.048-1.178-.056-2.356-.012-3.533-.023-.055 0-.105.01-.089.085.45.248.67.643.672 1.137.01 1.623.009 3.246 0 4.869-.003.21.038.282.266.277zM80.043 62.114c.888 0 1.775-.01 2.662.008.244.005.286-.07.285-.293-.01-2.017-.005-4.036-.005-6.053-.02-.008-.039-.021-.058-.021-1.078-.008-2.157-.003-3.236-.004-.07 0-.153-.017-.165.09.256.155.3.45.456.672.052.108.025.224.025.336.002 1.644 0 3.288.003 4.932.002.11-.031.227.033.333zM88.062 55.746c-1.03.012-2.062.004-3.094.008-.05 0-.163-.06-.142.083.32.308.495.667.492 1.126-.012 1.622 0 3.244-.01 4.865-.002.225.045.299.287.294.886-.015 1.772-.005 2.657-.005.053-.214.023-.431.024-.646.003-1.807.002-3.613 0-5.42.002-.15.047-.308-.214-.305z" fill="#fff"/><path d="M101.839 52.24c-.053.935-.015 1.87-.018 2.805 0 .017.023.033.036.05h5.303c.08-.952.047-1.903.016-2.855h-5.337zM95.465 20.447c-.024-.099-.052-.197-.074-.297-.157-.75-.538-1.368-1.102-1.89-.577-.535-1.273-.797-2.033-.93-.101-.034-.207-.019-.31-.019h-8.323c-.355 0-.355 0-.355.348 0 3.793 0 7.587-.002 11.38 0 .112.031.228-.03.335-.044.025-.086.073-.128.072-.389-.005-.686.176-.944.44.062.18.214.086.317.087 3.04.006 6.08.004 9.119.004.093 0 .188.012.28-.014 1.038-.038 1.922-.427 2.637-1.175.538-.564.807-1.258.95-2.009.03-.1.016-.204.016-.307.002-1.905.002-3.811 0-5.717 0-.104.016-.208-.018-.308zm-3.632 4.739c-.027.725-.584 1.221-1.31 1.229-1.115.011-2.231-.002-3.347.008-.201.001-.24-.067-.238-.25.01-.837.004-1.674.004-2.511 0-.827.005-1.654-.005-2.48-.002-.188.044-.246.241-.244 1.105.009 2.21-.002 3.315.007.745.005 1.311.497 1.34 1.236.038 1 .037 2.005 0 3.005zM56.995 44.945c-.782.009-1.565.014-2.347-.002-.254-.006-.335.052-.333.318.013 1.593.006 3.186.006 4.777 0 1.603.003 3.206-.004 4.809 0 .194.04.267.254.264.814-.013 1.628-.01 2.442-.002.17.002.232-.037.23-.22-.005-3.236-.005-6.473.002-9.709 0-.199-.067-.237-.25-.235z" fill="#fff"/></svg>