<svg width="23" height="22" viewBox="0 0 23 22" fill="none" xmlns="http://www.w3.org/2000/svg"><path d="M10.199 5.24L6.816 1.335c-.39-.45-1.105-.448-1.558.006L2.476 4.128c-.828.829-1.065 2.06-.586 3.047a29.207 29.207 0 0 0 13.56 13.58c.987.479 2.217.242 3.045-.587l2.808-2.813c.455-.455.456-1.174.002-1.564l-3.92-3.365c-.41-.352-1.047-.306-1.458.106l-1.364 1.366a.462.462 0 0 1-.553.088 14.556 14.556 0 0 1-5.36-5.367.463.463 0 0 1 .088-.554l1.36-1.361c.412-.414.457-1.054.1-1.465v.001z" stroke="#F8F6E9" stroke-width="2" stroke-linecap="round" stroke-linejoin="round"/></svg>